<svg width="1440" height="1024" viewBox="0 0 1440 1024" fill="none" xmlns="http://www.w3.org/2000/svg">
<mask id="mask0_1_3323" style="mask-type:luminance" maskUnits="userSpaceOnUse" x="-350" y="-28" width="2140" height="1080">
<path d="M1790 -28H-350V1052H1790V-28Z" fill="white"/>
</mask>
<g mask="url(#mask0_1_3323)">
<path d="M10 452L-50 512L10 452Z" stroke="#D7DDE8" stroke-width="3"/>
<path d="M46 -4L34 8L46 -4Z" stroke="#D7DDE8"/>
<path d="M35 62C35 63.3261 35.5268 64.5979 36.4645 65.5355C37.4021 66.4732 38.6739 67 40 67C41.3261 67 42.5979 66.4732 43.5355 65.5355C44.4732 64.5979 45 63.3261 45 62C45 60.6739 44.4732 59.4021 43.5355 58.4645C42.5979 57.5268 41.3261 57 40 57C38.6739 57 37.4021 57.5268 36.4645 58.4645C35.5268 59.4021 35 60.6739 35 62V62Z" stroke="#D7DDE8"/>
<path d="M42 120L38 124L42 120Z" stroke="#D7DDE8"/>
<path d="M46 176L34 188L46 176Z" stroke="#D7DDE8"/>
<path d="M42 240L38 244L42 240Z" stroke="#D7DDE8"/>
<path d="M46 296L34 308L46 296Z" stroke="#D7DDE8"/>
<path d="M42 360L38 364L42 360Z" stroke="#D7DDE8"/>
<path d="M70 392L10 452L70 392Z" stroke="#D7DDE8" stroke-width="3"/>
<path d="M70 452L10 512L70 452Z" stroke="#D7DDE8" stroke-width="3"/>
<path d="M42 540L38 544L42 540Z" stroke="#D7DDE8"/>
<path d="M42 600L38 604L42 600Z" stroke="#D7DDE8"/>
<path d="M35 662C35 663.326 35.5268 664.598 36.4645 665.536C37.4021 666.473 38.6739 667 40 667C41.3261 667 42.5979 666.473 43.5355 665.536C44.4732 664.598 45 663.326 45 662C45 660.674 44.4732 659.402 43.5355 658.464C42.5979 657.527 41.3261 657 40 657C38.6739 657 37.4021 657.527 36.4645 658.464C35.5268 659.402 35 660.674 35 662V662Z" stroke="#D7DDE8"/>
<path d="M106 -4L94 8L106 -4Z" stroke="#D7DDE8"/>
<path d="M102 60L98 64L102 60Z" stroke="#D7DDE8"/>
<path d="M106 116L94 128L106 116Z" stroke="#D7DDE8"/>
<path d="M106 176L94 188L106 176Z" stroke="#D7DDE8"/>
<path d="M102 240L98 244L102 240Z" stroke="#D7DDE8"/>
<path d="M95 302C95 303.326 95.5268 304.598 96.4645 305.536C97.4021 306.473 98.6739 307 100 307C101.326 307 102.598 306.473 103.536 305.536C104.473 304.598 105 303.326 105 302C105 300.674 104.473 299.402 103.536 298.464C102.598 297.527 101.326 297 100 297C98.6739 297 97.4021 297.527 96.4645 298.464C95.5268 299.402 95 300.674 95 302V302Z" stroke="#D7DDE8"/>
<path d="M95 362C95 363.326 95.5268 364.598 96.4645 365.536C97.4021 366.473 98.6739 367 100 367C101.326 367 102.598 366.473 103.536 365.536C104.473 364.598 105 363.326 105 362C105 360.674 104.473 359.402 103.536 358.464C102.598 357.527 101.326 357 100 357C98.6739 357 97.4021 357.527 96.4645 358.464C95.5268 359.402 95 360.674 95 362V362Z" stroke="#D7DDE8"/>
<path d="M102 420L98 424L102 420Z" stroke="#D7DDE8"/>
<path d="M95 482C95 483.326 95.5268 484.598 96.4645 485.536C97.4021 486.473 98.6739 487 100 487C101.326 487 102.598 486.473 103.536 485.536C104.473 484.598 105 483.326 105 482C105 480.674 104.473 479.402 103.536 478.464C102.598 477.527 101.326 477 100 477C98.6739 477 97.4021 477.527 96.4645 478.464C95.5268 479.402 95 480.674 95 482V482Z" stroke="#D7DDE8"/>
<path d="M106 536L94 548L106 536Z" stroke="#D7DDE8"/>
<path d="M97 602C97 602.796 97.3161 603.559 97.8787 604.121C98.4413 604.684 99.2044 605 100 605C100.796 605 101.559 604.684 102.121 604.121C102.684 603.559 103 602.796 103 602C103 601.204 102.684 600.441 102.121 599.879C101.559 599.316 100.796 599 100 599C99.2044 599 98.4413 599.316 97.8787 599.879C97.3161 600.441 97 601.204 97 602V602Z" stroke="#D7DDE8"/>
<path d="M95 662C95 663.326 95.5268 664.598 96.4645 665.536C97.4021 666.473 98.6739 667 100 667C101.326 667 102.598 666.473 103.536 665.536C104.473 664.598 105 663.326 105 662C105 660.674 104.473 659.402 103.536 658.464C102.598 657.527 101.326 657 100 657C98.6739 657 97.4021 657.527 96.4645 658.464C95.5268 659.402 95 660.674 95 662V662Z" stroke="#D7DDE8"/>
<path d="M155 2C155 3.32608 155.527 4.59785 156.464 5.53553C157.402 6.47322 158.674 7 160 7C161.326 7 162.598 6.47322 163.536 5.53553C164.473 4.59785 165 3.32608 165 2C165 0.673918 164.473 -0.597852 163.536 -1.53553C162.598 -2.47322 161.326 -3 160 -3C158.674 -3 157.402 -2.47322 156.464 -1.53553C155.527 -0.597852 155 0.673918 155 2V2Z" stroke="#D7DDE8"/>
<path d="M155 62C155 63.3261 155.527 64.5979 156.464 65.5355C157.402 66.4732 158.674 67 160 67C161.326 67 162.598 66.4732 163.536 65.5355C164.473 64.5979 165 63.3261 165 62C165 60.6739 164.473 59.4021 163.536 58.4645C162.598 57.5268 161.326 57 160 57C158.674 57 157.402 57.5268 156.464 58.4645C155.527 59.4021 155 60.6739 155 62V62Z" stroke="#D7DDE8"/>
<path d="M155 122C155 123.326 155.527 124.598 156.464 125.536C157.402 126.473 158.674 127 160 127C161.326 127 162.598 126.473 163.536 125.536C164.473 124.598 165 123.326 165 122C165 120.674 164.473 119.402 163.536 118.464C162.598 117.527 161.326 117 160 117C158.674 117 157.402 117.527 156.464 118.464C155.527 119.402 155 120.674 155 122V122Z" stroke="#D7DDE8"/>
<path d="M162 180L158 184L162 180Z" stroke="#D7DDE8"/>
<path d="M166 236L154 248L166 236Z" stroke="#D7DDE8"/>
<path d="M157 302C157 302.796 157.316 303.559 157.879 304.121C158.441 304.684 159.204 305 160 305C160.796 305 161.559 304.684 162.121 304.121C162.684 303.559 163 302.796 163 302C163 301.204 162.684 300.441 162.121 299.879C161.559 299.316 160.796 299 160 299C159.204 299 158.441 299.316 157.879 299.879C157.316 300.441 157 301.204 157 302V302Z" stroke="#D7DDE8"/>
<path d="M155 362C155 363.326 155.527 364.598 156.464 365.536C157.402 366.473 158.674 367 160 367C161.326 367 162.598 366.473 163.536 365.536C164.473 364.598 165 363.326 165 362C165 360.674 164.473 359.402 163.536 358.464C162.598 357.527 161.326 357 160 357C158.674 357 157.402 357.527 156.464 358.464C155.527 359.402 155 360.674 155 362V362Z" stroke="#D7DDE8"/>
<path d="M155 422C155 423.326 155.527 424.598 156.464 425.536C157.402 426.473 158.674 427 160 427C161.326 427 162.598 426.473 163.536 425.536C164.473 424.598 165 423.326 165 422C165 420.674 164.473 419.402 163.536 418.464C162.598 417.527 161.326 417 160 417C158.674 417 157.402 417.527 156.464 418.464C155.527 419.402 155 420.674 155 422V422Z" stroke="#D7DDE8"/>
<path d="M162 480L158 484L162 480Z" stroke="#D7DDE8"/>
<path d="M190 512L130 572L190 512Z" stroke="#D7DDE8" stroke-width="3"/>
<path d="M159 602C159 602.265 159.105 602.52 159.293 602.707C159.48 602.895 159.735 603 160 603C160.265 603 160.52 602.895 160.707 602.707C160.895 602.52 161 602.265 161 602C161 601.735 160.895 601.48 160.707 601.293C160.52 601.105 160.265 601 160 601C159.735 601 159.48 601.105 159.293 601.293C159.105 601.48 159 601.735 159 602V602Z" stroke="#D7DDE8"/>
<path d="M155 662C155 663.326 155.527 664.598 156.464 665.536C157.402 666.473 158.674 667 160 667C161.326 667 162.598 666.473 163.536 665.536C164.473 664.598 165 663.326 165 662C165 660.674 164.473 659.402 163.536 658.464C162.598 657.527 161.326 657 160 657C158.674 657 157.402 657.527 156.464 658.464C155.527 659.402 155 660.674 155 662V662Z" stroke="#D7DDE8"/>
<path d="M215 2C215 3.32608 215.527 4.59785 216.464 5.53553C217.402 6.47322 218.674 7 220 7C221.326 7 222.598 6.47322 223.536 5.53553C224.473 4.59785 225 3.32608 225 2C225 0.673918 224.473 -0.597852 223.536 -1.53553C222.598 -2.47322 221.326 -3 220 -3C218.674 -3 217.402 -2.47322 216.464 -1.53553C215.527 -0.597852 215 0.673918 215 2V2Z" stroke="#D7DDE8"/>
<path d="M215 62C215 63.3261 215.527 64.5979 216.464 65.5355C217.402 66.4732 218.674 67 220 67C221.326 67 222.598 66.4732 223.536 65.5355C224.473 64.5979 225 63.3261 225 62C225 60.6739 224.473 59.4021 223.536 58.4645C222.598 57.5268 221.326 57 220 57C218.674 57 217.402 57.5268 216.464 58.4645C215.527 59.4021 215 60.6739 215 62V62Z" stroke="#D7DDE8"/>
<path d="M226 116L214 128L226 116Z" stroke="#D7DDE8"/>
<path d="M215 182C215 183.326 215.527 184.598 216.464 185.536C217.402 186.473 218.674 187 220 187C221.326 187 222.598 186.473 223.536 185.536C224.473 184.598 225 183.326 225 182C225 180.674 224.473 179.402 223.536 178.464C222.598 177.527 221.326 177 220 177C218.674 177 217.402 177.527 216.464 178.464C215.527 179.402 215 180.674 215 182V182Z" stroke="#D7DDE8"/>
<path d="M226 236L214 248L226 236Z" stroke="#D7DDE8"/>
<path d="M226 296L214 308L226 296Z" stroke="#D7DDE8"/>
<path d="M226 356L214 368L226 356Z" stroke="#D7DDE8"/>
<path d="M219 422C219 422.265 219.105 422.52 219.293 422.707C219.48 422.895 219.735 423 220 423C220.265 423 220.52 422.895 220.707 422.707C220.895 422.52 221 422.265 221 422C221 421.735 220.895 421.48 220.707 421.293C220.52 421.105 220.265 421 220 421C219.735 421 219.48 421.105 219.293 421.293C219.105 421.48 219 421.735 219 422V422Z" stroke="#D7DDE8"/>
<path d="M226 476L214 488L226 476Z" stroke="#D7DDE8"/>
<path d="M219 542C219 542.265 219.105 542.52 219.293 542.707C219.48 542.895 219.735 543 220 543C220.265 543 220.52 542.895 220.707 542.707C220.895 542.52 221 542.265 221 542C221 541.735 220.895 541.48 220.707 541.293C220.52 541.105 220.265 541 220 541C219.735 541 219.48 541.105 219.293 541.293C219.105 541.48 219 541.735 219 542V542Z" stroke="#D7DDE8"/>
<path d="M226 596L214 608L226 596Z" stroke="#D7DDE8"/>
<path d="M250 632L190 692L250 632Z" stroke="#D7DDE8" stroke-width="3"/>
<path d="M279 2C279 2.26522 279.105 2.51957 279.293 2.70711C279.48 2.89464 279.735 3 280 3C280.265 3 280.52 2.89464 280.707 2.70711C280.895 2.51957 281 2.26522 281 2C281 1.73478 280.895 1.48043 280.707 1.29289C280.52 1.10536 280.265 1 280 1C279.735 1 279.48 1.10536 279.293 1.29289C279.105 1.48043 279 1.73478 279 2V2Z" stroke="#D7DDE8"/>
<path d="M277 62C277 62.7956 277.316 63.5587 277.879 64.1213C278.441 64.6839 279.204 65 280 65C280.796 65 281.559 64.6839 282.121 64.1213C282.684 63.5587 283 62.7956 283 62C283 61.2044 282.684 60.4413 282.121 59.8787C281.559 59.3161 280.796 59 280 59C279.204 59 278.441 59.3161 277.879 59.8787C277.316 60.4413 277 61.2044 277 62V62Z" stroke="#D7DDE8"/>
<path d="M277 122C277 122.796 277.316 123.559 277.879 124.121C278.441 124.684 279.204 125 280 125C280.796 125 281.559 124.684 282.121 124.121C282.684 123.559 283 122.796 283 122C283 121.204 282.684 120.441 282.121 119.879C281.559 119.316 280.796 119 280 119C279.204 119 278.441 119.316 277.879 119.879C277.316 120.441 277 121.204 277 122V122Z" stroke="#D7DDE8"/>
<path d="M282 180L278 184L282 180Z" stroke="#D7DDE8"/>
<path d="M275 242C275 243.326 275.527 244.598 276.464 245.536C277.402 246.473 278.674 247 280 247C281.326 247 282.598 246.473 283.536 245.536C284.473 244.598 285 243.326 285 242C285 240.674 284.473 239.402 283.536 238.464C282.598 237.527 281.326 237 280 237C278.674 237 277.402 237.527 276.464 238.464C275.527 239.402 275 240.674 275 242V242Z" stroke="#D7DDE8"/>
<path d="M286 296L274 308L286 296Z" stroke="#D7DDE8"/>
<path d="M275 362C275 363.326 275.527 364.598 276.464 365.536C277.402 366.473 278.674 367 280 367C281.326 367 282.598 366.473 283.536 365.536C284.473 364.598 285 363.326 285 362C285 360.674 284.473 359.402 283.536 358.464C282.598 357.527 281.326 357 280 357C278.674 357 277.402 357.527 276.464 358.464C275.527 359.402 275 360.674 275 362V362Z" stroke="#D7DDE8"/>
<path d="M282 420L278 424L282 420Z" stroke="#D7DDE8"/>
<path d="M275 482C275 483.326 275.527 484.598 276.464 485.536C277.402 486.473 278.674 487 280 487C281.326 487 282.598 486.473 283.536 485.536C284.473 484.598 285 483.326 285 482C285 480.674 284.473 479.402 283.536 478.464C282.598 477.527 281.326 477 280 477C278.674 477 277.402 477.527 276.464 478.464C275.527 479.402 275 480.674 275 482V482Z" stroke="#D7DDE8"/>
<path d="M275 542C275 543.326 275.527 544.598 276.464 545.536C277.402 546.473 278.674 547 280 547C281.326 547 282.598 546.473 283.536 545.536C284.473 544.598 285 543.326 285 542C285 540.674 284.473 539.402 283.536 538.464C282.598 537.527 281.326 537 280 537C278.674 537 277.402 537.527 276.464 538.464C275.527 539.402 275 540.674 275 542V542Z" stroke="#D7DDE8"/>
<path d="M286 596L274 608L286 596Z" stroke="#D7DDE8"/>
<path d="M275 662C275 663.326 275.527 664.598 276.464 665.536C277.402 666.473 278.674 667 280 667C281.326 667 282.598 666.473 283.536 665.536C284.473 664.598 285 663.326 285 662C285 660.674 284.473 659.402 283.536 658.464C282.598 657.527 281.326 657 280 657C278.674 657 277.402 657.527 276.464 658.464C275.527 659.402 275 660.674 275 662V662Z" stroke="#D7DDE8"/>
<path d="M339 2C339 2.26522 339.105 2.51957 339.293 2.70711C339.48 2.89464 339.735 3 340 3C340.265 3 340.52 2.89464 340.707 2.70711C340.895 2.51957 341 2.26522 341 2C341 1.73478 340.895 1.48043 340.707 1.29289C340.52 1.10536 340.265 1 340 1C339.735 1 339.48 1.10536 339.293 1.29289C339.105 1.48043 339 1.73478 339 2V2Z" stroke="#D7DDE8"/>
<path d="M346 56L334 68L346 56Z" stroke="#D7DDE8"/>
<path d="M339 122C339 122.265 339.105 122.52 339.293 122.707C339.48 122.895 339.735 123 340 123C340.265 123 340.52 122.895 340.707 122.707C340.895 122.52 341 122.265 341 122C341 121.735 340.895 121.48 340.707 121.293C340.52 121.105 340.265 121 340 121C339.735 121 339.48 121.105 339.293 121.293C339.105 121.48 339 121.735 339 122V122Z" stroke="#D7DDE8"/>
<path d="M346 176L334 188L346 176Z" stroke="#D7DDE8"/>
<path d="M335 242C335 243.326 335.527 244.598 336.464 245.536C337.402 246.473 338.674 247 340 247C341.326 247 342.598 246.473 343.536 245.536C344.473 244.598 345 243.326 345 242C345 240.674 344.473 239.402 343.536 238.464C342.598 237.527 341.326 237 340 237C338.674 237 337.402 237.527 336.464 238.464C335.527 239.402 335 240.674 335 242V242Z" stroke="#D7DDE8"/>
<path d="M342 300L338 304L342 300Z" stroke="#D7DDE8"/>
<path d="M346 356L334 368L346 356Z" stroke="#D7DDE8"/>
<path d="M342 420L338 424L342 420Z" stroke="#D7DDE8"/>
<path d="M346 476L334 488L346 476Z" stroke="#D7DDE8"/>
<path d="M346 536L334 548L346 536Z" stroke="#D7DDE8"/>
<path d="M337 602C337 602.796 337.316 603.559 337.879 604.121C338.441 604.684 339.204 605 340 605C340.796 605 341.559 604.684 342.121 604.121C342.684 603.559 343 602.796 343 602C343 601.204 342.684 600.441 342.121 599.879C341.559 599.316 340.796 599 340 599C339.204 599 338.441 599.316 337.879 599.879C337.316 600.441 337 601.204 337 602V602Z" stroke="#D7DDE8"/>
<path d="M337 662C337 662.796 337.316 663.559 337.879 664.121C338.441 664.684 339.204 665 340 665C340.796 665 341.559 664.684 342.121 664.121C342.684 663.559 343 662.796 343 662C343 661.204 342.684 660.441 342.121 659.879C341.559 659.316 340.796 659 340 659C339.204 659 338.441 659.316 337.879 659.879C337.316 660.441 337 661.204 337 662V662Z" stroke="#D7DDE8"/>
<path d="M46 716L34 728L46 716Z" stroke="#D7DDE8"/>
<path d="M35 782C35 783.326 35.5268 784.598 36.4645 785.536C37.4021 786.473 38.6739 787 40 787C41.3261 787 42.5979 786.473 43.5355 785.536C44.4732 784.598 45 783.326 45 782C45 780.674 44.4732 779.402 43.5355 778.464C42.5979 777.527 41.3261 777 40 777C38.6739 777 37.4021 777.527 36.4645 778.464C35.5268 779.402 35 780.674 35 782V782Z" stroke="#D7DDE8"/>
<path d="M42 840L38 844L42 840Z" stroke="#D7DDE8"/>
<path d="M46 896L34 908L46 896Z" stroke="#D7DDE8"/>
<path d="M42 960L38 964L42 960Z" stroke="#D7DDE8"/>
<path d="M46 1016L34 1028L46 1016Z" stroke="#D7DDE8"/>
<path d="M106 716L94 728L106 716Z" stroke="#D7DDE8"/>
<path d="M102 780L98 784L102 780Z" stroke="#D7DDE8"/>
<path d="M106 836L94 848L106 836Z" stroke="#D7DDE8"/>
<path d="M106 896L94 908L106 896Z" stroke="#D7DDE8"/>
<path d="M102 960L98 964L102 960Z" stroke="#D7DDE8"/>
<path d="M95 1022C95 1023.33 95.5268 1024.6 96.4645 1025.54C97.4021 1026.47 98.6739 1027 100 1027C101.326 1027 102.598 1026.47 103.536 1025.54C104.473 1024.6 105 1023.33 105 1022C105 1020.67 104.473 1019.4 103.536 1018.46C102.598 1017.53 101.326 1017 100 1017C98.6739 1017 97.4021 1017.53 96.4645 1018.46C95.5268 1019.4 95 1020.67 95 1022V1022Z" stroke="#D7DDE8"/>
<path d="M155 722C155 723.326 155.527 724.598 156.464 725.536C157.402 726.473 158.674 727 160 727C161.326 727 162.598 726.473 163.536 725.536C164.473 724.598 165 723.326 165 722C165 720.674 164.473 719.402 163.536 718.464C162.598 717.527 161.326 717 160 717C158.674 717 157.402 717.527 156.464 718.464C155.527 719.402 155 720.674 155 722V722Z" stroke="#D7DDE8"/>
<path d="M155 782C155 783.326 155.527 784.598 156.464 785.536C157.402 786.473 158.674 787 160 787C161.326 787 162.598 786.473 163.536 785.536C164.473 784.598 165 783.326 165 782C165 780.674 164.473 779.402 163.536 778.464C162.598 777.527 161.326 777 160 777C158.674 777 157.402 777.527 156.464 778.464C155.527 779.402 155 780.674 155 782V782Z" stroke="#D7DDE8"/>
<path d="M155 842C155 843.326 155.527 844.598 156.464 845.536C157.402 846.473 158.674 847 160 847C161.326 847 162.598 846.473 163.536 845.536C164.473 844.598 165 843.326 165 842C165 840.674 164.473 839.402 163.536 838.464C162.598 837.527 161.326 837 160 837C158.674 837 157.402 837.527 156.464 838.464C155.527 839.402 155 840.674 155 842V842Z" stroke="#D7DDE8"/>
<path d="M162 900L158 904L162 900Z" stroke="#D7DDE8"/>
<path d="M166 956L154 968L166 956Z" stroke="#D7DDE8"/>
<path d="M157 1022C157 1022.8 157.316 1023.56 157.879 1024.12C158.441 1024.68 159.204 1025 160 1025C160.796 1025 161.559 1024.68 162.121 1024.12C162.684 1023.56 163 1022.8 163 1022C163 1021.2 162.684 1020.44 162.121 1019.88C161.559 1019.32 160.796 1019 160 1019C159.204 1019 158.441 1019.32 157.879 1019.88C157.316 1020.44 157 1021.2 157 1022V1022Z" stroke="#D7DDE8"/>
<path d="M215 722C215 723.326 215.527 724.598 216.464 725.536C217.402 726.473 218.674 727 220 727C221.326 727 222.598 726.473 223.536 725.536C224.473 724.598 225 723.326 225 722C225 720.674 224.473 719.402 223.536 718.464C222.598 717.527 221.326 717 220 717C218.674 717 217.402 717.527 216.464 718.464C215.527 719.402 215 720.674 215 722V722Z" stroke="#D7DDE8"/>
<path d="M215 782C215 783.326 215.527 784.598 216.464 785.536C217.402 786.473 218.674 787 220 787C221.326 787 222.598 786.473 223.536 785.536C224.473 784.598 225 783.326 225 782C225 780.674 224.473 779.402 223.536 778.464C222.598 777.527 221.326 777 220 777C218.674 777 217.402 777.527 216.464 778.464C215.527 779.402 215 780.674 215 782V782Z" stroke="#D7DDE8"/>
<path d="M226 836L214 848L226 836Z" stroke="#D7DDE8"/>
<path d="M215 902C215 903.326 215.527 904.598 216.464 905.536C217.402 906.473 218.674 907 220 907C221.326 907 222.598 906.473 223.536 905.536C224.473 904.598 225 903.326 225 902C225 900.674 224.473 899.402 223.536 898.464C222.598 897.527 221.326 897 220 897C218.674 897 217.402 897.527 216.464 898.464C215.527 899.402 215 900.674 215 902V902Z" stroke="#D7DDE8"/>
<path d="M226 956L214 968L226 956Z" stroke="#D7DDE8"/>
<path d="M226 1016L214 1028L226 1016Z" stroke="#D7DDE8"/>
<path d="M279 722C279 722.265 279.105 722.52 279.293 722.707C279.48 722.895 279.735 723 280 723C280.265 723 280.52 722.895 280.707 722.707C280.895 722.52 281 722.265 281 722C281 721.735 280.895 721.48 280.707 721.293C280.52 721.105 280.265 721 280 721C279.735 721 279.48 721.105 279.293 721.293C279.105 721.48 279 721.735 279 722V722Z" stroke="#D7DDE8"/>
<path d="M277 782C277 782.796 277.316 783.559 277.879 784.121C278.441 784.684 279.204 785 280 785C280.796 785 281.559 784.684 282.121 784.121C282.684 783.559 283 782.796 283 782C283 781.204 282.684 780.441 282.121 779.879C281.559 779.316 280.796 779 280 779C279.204 779 278.441 779.316 277.879 779.879C277.316 780.441 277 781.204 277 782V782Z" stroke="#D7DDE8"/>
<path d="M277 842C277 842.796 277.316 843.559 277.879 844.121C278.441 844.684 279.204 845 280 845C280.796 845 281.559 844.684 282.121 844.121C282.684 843.559 283 842.796 283 842C283 841.204 282.684 840.441 282.121 839.879C281.559 839.316 280.796 839 280 839C279.204 839 278.441 839.316 277.879 839.879C277.316 840.441 277 841.204 277 842V842Z" stroke="#D7DDE8"/>
<path d="M282 900L278 904L282 900Z" stroke="#D7DDE8"/>
<path d="M275 962C275 963.326 275.527 964.598 276.464 965.536C277.402 966.473 278.674 967 280 967C281.326 967 282.598 966.473 283.536 965.536C284.473 964.598 285 963.326 285 962C285 960.674 284.473 959.402 283.536 958.464C282.598 957.527 281.326 957 280 957C278.674 957 277.402 957.527 276.464 958.464C275.527 959.402 275 960.674 275 962V962Z" stroke="#D7DDE8"/>
<path d="M286 1016L274 1028L286 1016Z" stroke="#D7DDE8"/>
<path d="M339 722C339 722.265 339.105 722.52 339.293 722.707C339.48 722.895 339.735 723 340 723C340.265 723 340.52 722.895 340.707 722.707C340.895 722.52 341 722.265 341 722C341 721.735 340.895 721.48 340.707 721.293C340.52 721.105 340.265 721 340 721C339.735 721 339.48 721.105 339.293 721.293C339.105 721.48 339 721.735 339 722V722Z" stroke="#D7DDE8"/>
<path d="M346 776L334 788L346 776Z" stroke="#D7DDE8"/>
<path d="M339 842C339 842.265 339.105 842.52 339.293 842.707C339.48 842.895 339.735 843 340 843C340.265 843 340.52 842.895 340.707 842.707C340.895 842.52 341 842.265 341 842C341 841.735 340.895 841.48 340.707 841.293C340.52 841.105 340.265 841 340 841C339.735 841 339.48 841.105 339.293 841.293C339.105 841.48 339 841.735 339 842V842Z" stroke="#D7DDE8"/>
<path d="M346 896L334 908L346 896Z" stroke="#D7DDE8"/>
<path d="M335 962C335 963.326 335.527 964.598 336.464 965.536C337.402 966.473 338.674 967 340 967C341.326 967 342.598 966.473 343.536 965.536C344.473 964.598 345 963.326 345 962C345 960.674 344.473 959.402 343.536 958.464C342.598 957.527 341.326 957 340 957C338.674 957 337.402 957.527 336.464 958.464C335.527 959.402 335 960.674 335 962V962Z" stroke="#D7DDE8"/>
<path d="M342 1020L338 1024L342 1020Z" stroke="#D7DDE8"/>
<path d="M402 0L398 4L402 0Z" stroke="#D7DDE8"/>
<path d="M395 62C395 63.3261 395.527 64.5979 396.464 65.5355C397.402 66.4732 398.674 67 400 67C401.326 67 402.598 66.4732 403.536 65.5355C404.473 64.5979 405 63.3261 405 62C405 60.6739 404.473 59.4021 403.536 58.4645C402.598 57.5268 401.326 57 400 57C398.674 57 397.402 57.5268 396.464 58.4645C395.527 59.4021 395 60.6739 395 62V62Z" stroke="#D7DDE8"/>
<path d="M395 122C395 123.326 395.527 124.598 396.464 125.536C397.402 126.473 398.674 127 400 127C401.326 127 402.598 126.473 403.536 125.536C404.473 124.598 405 123.326 405 122C405 120.674 404.473 119.402 403.536 118.464C402.598 117.527 401.326 117 400 117C398.674 117 397.402 117.527 396.464 118.464C395.527 119.402 395 120.674 395 122V122Z" stroke="#D7DDE8"/>
<path d="M406 176L394 188L406 176Z" stroke="#D7DDE8"/>
<path d="M406 236L394 248L406 236Z" stroke="#D7DDE8"/>
<path d="M406 296L394 308L406 296Z" stroke="#D7DDE8"/>
<path d="M395 362C395 363.326 395.527 364.598 396.464 365.536C397.402 366.473 398.674 367 400 367C401.326 367 402.598 366.473 403.536 365.536C404.473 364.598 405 363.326 405 362C405 360.674 404.473 359.402 403.536 358.464C402.598 357.527 401.326 357 400 357C398.674 357 397.402 357.527 396.464 358.464C395.527 359.402 395 360.674 395 362V362Z" stroke="#D7DDE8"/>
<path d="M406 416L394 428L406 416Z" stroke="#D7DDE8"/>
<path d="M430 452L370 512L430 452Z" stroke="#D7DDE8" stroke-width="3"/>
<path d="M399 542C399 542.265 399.105 542.52 399.293 542.707C399.48 542.895 399.735 543 400 543C400.265 543 400.52 542.895 400.707 542.707C400.895 542.52 401 542.265 401 542C401 541.735 400.895 541.48 400.707 541.293C400.52 541.105 400.265 541 400 541C399.735 541 399.48 541.105 399.293 541.293C399.105 541.48 399 541.735 399 542V542Z" stroke="#D7DDE8"/>
<path d="M399 602C399 602.265 399.105 602.52 399.293 602.707C399.48 602.895 399.735 603 400 603C400.265 603 400.52 602.895 400.707 602.707C400.895 602.52 401 602.265 401 602C401 601.735 400.895 601.48 400.707 601.293C400.52 601.105 400.265 601 400 601C399.735 601 399.48 601.105 399.293 601.293C399.105 601.48 399 601.735 399 602V602Z" stroke="#D7DDE8"/>
<path d="M399 662C399 662.265 399.105 662.52 399.293 662.707C399.48 662.895 399.735 663 400 663C400.265 663 400.52 662.895 400.707 662.707C400.895 662.52 401 662.265 401 662C401 661.735 400.895 661.48 400.707 661.293C400.52 661.105 400.265 661 400 661C399.735 661 399.48 661.105 399.293 661.293C399.105 661.48 399 661.735 399 662V662Z" stroke="#D7DDE8"/>
<path d="M457 2C457 2.79565 457.316 3.55871 457.879 4.12132C458.441 4.68393 459.204 5 460 5C460.796 5 461.559 4.68393 462.121 4.12132C462.684 3.55871 463 2.79565 463 2C463 1.20435 462.684 0.441289 462.121 -0.12132C461.559 -0.683929 460.796 -1 460 -1C459.204 -1 458.441 -0.683929 457.879 -0.12132C457.316 0.441289 457 1.20435 457 2V2Z" stroke="#D7DDE8"/>
<path d="M466 56L454 68L466 56Z" stroke="#D7DDE8"/>
<path d="M457 122C457 122.796 457.316 123.559 457.879 124.121C458.441 124.684 459.204 125 460 125C460.796 125 461.559 124.684 462.121 124.121C462.684 123.559 463 122.796 463 122C463 121.204 462.684 120.441 462.121 119.879C461.559 119.316 460.796 119 460 119C459.204 119 458.441 119.316 457.879 119.879C457.316 120.441 457 121.204 457 122V122Z" stroke="#D7DDE8"/>
<path d="M459 182C459 182.265 459.105 182.52 459.293 182.707C459.48 182.895 459.735 183 460 183C460.265 183 460.52 182.895 460.707 182.707C460.895 182.52 461 182.265 461 182C461 181.735 460.895 181.48 460.707 181.293C460.52 181.105 460.265 181 460 181C459.735 181 459.48 181.105 459.293 181.293C459.105 181.48 459 181.735 459 182V182Z" stroke="#D7DDE8"/>
<path d="M466 236L454 248L466 236Z" stroke="#D7DDE8"/>
<path d="M459 302C459 302.265 459.105 302.52 459.293 302.707C459.48 302.895 459.735 303 460 303C460.265 303 460.52 302.895 460.707 302.707C460.895 302.52 461 302.265 461 302C461 301.735 460.895 301.48 460.707 301.293C460.52 301.105 460.265 301 460 301C459.735 301 459.48 301.105 459.293 301.293C459.105 301.48 459 301.735 459 302V302Z" stroke="#D7DDE8"/>
<path d="M455 362C455 363.326 455.527 364.598 456.464 365.536C457.402 366.473 458.674 367 460 367C461.326 367 462.598 366.473 463.536 365.536C464.473 364.598 465 363.326 465 362C465 360.674 464.473 359.402 463.536 358.464C462.598 357.527 461.326 357 460 357C458.674 357 457.402 357.527 456.464 358.464C455.527 359.402 455 360.674 455 362V362Z" stroke="#D7DDE8"/>
<path d="M455 422C455 423.326 455.527 424.598 456.464 425.536C457.402 426.473 458.674 427 460 427C461.326 427 462.598 426.473 463.536 425.536C464.473 424.598 465 423.326 465 422C465 420.674 464.473 419.402 463.536 418.464C462.598 417.527 461.326 417 460 417C458.674 417 457.402 417.527 456.464 418.464C455.527 419.402 455 420.674 455 422V422Z" stroke="#D7DDE8"/>
<path d="M455 482C455 483.326 455.527 484.598 456.464 485.536C457.402 486.473 458.674 487 460 487C461.326 487 462.598 486.473 463.536 485.536C464.473 484.598 465 483.326 465 482C465 480.674 464.473 479.402 463.536 478.464C462.598 477.527 461.326 477 460 477C458.674 477 457.402 477.527 456.464 478.464C455.527 479.402 455 480.674 455 482V482Z" stroke="#D7DDE8"/>
<path d="M466 536L454 548L466 536Z" stroke="#D7DDE8"/>
<path d="M459 602C459 602.265 459.105 602.52 459.293 602.707C459.48 602.895 459.735 603 460 603C460.265 603 460.52 602.895 460.707 602.707C460.895 602.52 461 602.265 461 602C461 601.735 460.895 601.48 460.707 601.293C460.52 601.105 460.265 601 460 601C459.735 601 459.48 601.105 459.293 601.293C459.105 601.48 459 601.735 459 602V602Z" stroke="#D7DDE8"/>
<path d="M462 660L458 664L462 660Z" stroke="#D7DDE8"/>
<path d="M515 2C515 3.32608 515.527 4.59785 516.464 5.53553C517.402 6.47322 518.674 7 520 7C521.326 7 522.598 6.47322 523.536 5.53553C524.473 4.59785 525 3.32608 525 2C525 0.673918 524.473 -0.597852 523.536 -1.53553C522.598 -2.47322 521.326 -3 520 -3C518.674 -3 517.402 -2.47322 516.464 -1.53553C515.527 -0.597852 515 0.673918 515 2V2Z" stroke="#D7DDE8"/>
<path d="M526 56L514 68L526 56Z" stroke="#D7DDE8"/>
<path d="M550 92L490 152L550 92Z" stroke="#D7DDE8" stroke-width="3"/>
<path d="M515 182C515 183.326 515.527 184.598 516.464 185.536C517.402 186.473 518.674 187 520 187C521.326 187 522.598 186.473 523.536 185.536C524.473 184.598 525 183.326 525 182C525 180.674 524.473 179.402 523.536 178.464C522.598 177.527 521.326 177 520 177C518.674 177 517.402 177.527 516.464 178.464C515.527 179.402 515 180.674 515 182V182Z" stroke="#D7DDE8"/>
<path d="M515 242C515 243.326 515.527 244.598 516.464 245.536C517.402 246.473 518.674 247 520 247C521.326 247 522.598 246.473 523.536 245.536C524.473 244.598 525 243.326 525 242C525 240.674 524.473 239.402 523.536 238.464C522.598 237.527 521.326 237 520 237C518.674 237 517.402 237.527 516.464 238.464C515.527 239.402 515 240.674 515 242V242Z" stroke="#D7DDE8"/>
<path d="M526 296L514 308L526 296Z" stroke="#D7DDE8"/>
<path d="M522 360L518 364L522 360Z" stroke="#D7DDE8"/>
<path d="M522 420L518 424L522 420Z" stroke="#D7DDE8"/>
<path d="M550 452L490 512L550 452Z" stroke="#D7DDE8" stroke-width="3"/>
<path d="M515 542C515 543.326 515.527 544.598 516.464 545.536C517.402 546.473 518.674 547 520 547C521.326 547 522.598 546.473 523.536 545.536C524.473 544.598 525 543.326 525 542C525 540.674 524.473 539.402 523.536 538.464C522.598 537.527 521.326 537 520 537C518.674 537 517.402 537.527 516.464 538.464C515.527 539.402 515 540.674 515 542V542Z" stroke="#D7DDE8"/>
<path d="M522 600L518 604L522 600Z" stroke="#D7DDE8"/>
<path d="M515 662C515 663.326 515.527 664.598 516.464 665.536C517.402 666.473 518.674 667 520 667C521.326 667 522.598 666.473 523.536 665.536C524.473 664.598 525 663.326 525 662C525 660.674 524.473 659.402 523.536 658.464C522.598 657.527 521.326 657 520 657C518.674 657 517.402 657.527 516.464 658.464C515.527 659.402 515 660.674 515 662V662Z" stroke="#D7DDE8"/>
<path d="M575 2C575 3.32608 575.527 4.59785 576.464 5.53553C577.402 6.47322 578.674 7 580 7C581.326 7 582.598 6.47322 583.536 5.53553C584.473 4.59785 585 3.32608 585 2C585 0.673918 584.473 -0.597852 583.536 -1.53553C582.598 -2.47322 581.326 -3 580 -3C578.674 -3 577.402 -2.47322 576.464 -1.53553C575.527 -0.597852 575 0.673918 575 2V2Z" stroke="#D7DDE8"/>
<path d="M582 60L578 64L582 60Z" stroke="#D7DDE8"/>
<path d="M579 122C579 122.265 579.105 122.52 579.293 122.707C579.48 122.895 579.735 123 580 123C580.265 123 580.52 122.895 580.707 122.707C580.895 122.52 581 122.265 581 122C581 121.735 580.895 121.48 580.707 121.293C580.52 121.105 580.265 121 580 121C579.735 121 579.48 121.105 579.293 121.293C579.105 121.48 579 121.735 579 122V122Z" stroke="#D7DDE8"/>
<path d="M577 182C577 182.796 577.316 183.559 577.879 184.121C578.441 184.684 579.204 185 580 185C580.796 185 581.559 184.684 582.121 184.121C582.684 183.559 583 182.796 583 182C583 181.204 582.684 180.441 582.121 179.879C581.559 179.316 580.796 179 580 179C579.204 179 578.441 179.316 577.879 179.879C577.316 180.441 577 181.204 577 182V182Z" stroke="#D7DDE8"/>
<path d="M575 242C575 243.326 575.527 244.598 576.464 245.536C577.402 246.473 578.674 247 580 247C581.326 247 582.598 246.473 583.536 245.536C584.473 244.598 585 243.326 585 242C585 240.674 584.473 239.402 583.536 238.464C582.598 237.527 581.326 237 580 237C578.674 237 577.402 237.527 576.464 238.464C575.527 239.402 575 240.674 575 242V242Z" stroke="#D7DDE8"/>
<path d="M575 302C575 303.326 575.527 304.598 576.464 305.536C577.402 306.473 578.674 307 580 307C581.326 307 582.598 306.473 583.536 305.536C584.473 304.598 585 303.326 585 302C585 300.674 584.473 299.402 583.536 298.464C582.598 297.527 581.326 297 580 297C578.674 297 577.402 297.527 576.464 298.464C575.527 299.402 575 300.674 575 302V302Z" stroke="#D7DDE8"/>
<path d="M586 356L574 368L586 356Z" stroke="#D7DDE8"/>
<path d="M577 422C577 422.796 577.316 423.559 577.879 424.121C578.441 424.684 579.204 425 580 425C580.796 425 581.559 424.684 582.121 424.121C582.684 423.559 583 422.796 583 422C583 421.204 582.684 420.441 582.121 419.879C581.559 419.316 580.796 419 580 419C579.204 419 578.441 419.316 577.879 419.879C577.316 420.441 577 421.204 577 422V422Z" stroke="#D7DDE8"/>
<path d="M579 482C579 482.265 579.105 482.52 579.293 482.707C579.48 482.895 579.735 483 580 483C580.265 483 580.52 482.895 580.707 482.707C580.895 482.52 581 482.265 581 482C581 481.735 580.895 481.48 580.707 481.293C580.52 481.105 580.265 481 580 481C579.735 481 579.48 481.105 579.293 481.293C579.105 481.48 579 481.735 579 482V482Z" stroke="#D7DDE8"/>
<path d="M586 536L574 548L586 536Z" stroke="#D7DDE8"/>
<path d="M586 596L574 608L586 596Z" stroke="#D7DDE8"/>
<path d="M586 656L574 668L586 656Z" stroke="#D7DDE8"/>
<path d="M635 2C635 3.32608 635.527 4.59785 636.464 5.53553C637.402 6.47322 638.674 7 640 7C641.326 7 642.598 6.47322 643.536 5.53553C644.473 4.59785 645 3.32608 645 2C645 0.673918 644.473 -0.597852 643.536 -1.53553C642.598 -2.47322 641.326 -3 640 -3C638.674 -3 637.402 -2.47322 636.464 -1.53553C635.527 -0.597852 635 0.673918 635 2V2Z" stroke="#D7DDE8"/>
<path d="M637 62C637 62.7956 637.316 63.5587 637.879 64.1213C638.441 64.6839 639.204 65 640 65C640.796 65 641.559 64.6839 642.121 64.1213C642.684 63.5587 643 62.7956 643 62C643 61.2044 642.684 60.4413 642.121 59.8787C641.559 59.3161 640.796 59 640 59C639.204 59 638.441 59.3161 637.879 59.8787C637.316 60.4413 637 61.2044 637 62V62Z" stroke="#D7DDE8"/>
<path d="M635 122C635 123.326 635.527 124.598 636.464 125.536C637.402 126.473 638.674 127 640 127C641.326 127 642.598 126.473 643.536 125.536C644.473 124.598 645 123.326 645 122C645 120.674 644.473 119.402 643.536 118.464C642.598 117.527 641.326 117 640 117C638.674 117 637.402 117.527 636.464 118.464C635.527 119.402 635 120.674 635 122V122Z" stroke="#D7DDE8"/>
<path d="M642 180L638 184L642 180Z" stroke="#D7DDE8"/>
<path d="M639 242C639 242.265 639.105 242.52 639.293 242.707C639.48 242.895 639.735 243 640 243C640.265 243 640.52 242.895 640.707 242.707C640.895 242.52 641 242.265 641 242C641 241.735 640.895 241.48 640.707 241.293C640.52 241.105 640.265 241 640 241C639.735 241 639.48 241.105 639.293 241.293C639.105 241.48 639 241.735 639 242V242Z" stroke="#D7DDE8"/>
<path d="M635 302C635 303.326 635.527 304.598 636.464 305.536C637.402 306.473 638.674 307 640 307C641.326 307 642.598 306.473 643.536 305.536C644.473 304.598 645 303.326 645 302C645 300.674 644.473 299.402 643.536 298.464C642.598 297.527 641.326 297 640 297C638.674 297 637.402 297.527 636.464 298.464C635.527 299.402 635 300.674 635 302V302Z" stroke="#D7DDE8"/>
<path d="M635 362C635 363.326 635.527 364.598 636.464 365.536C637.402 366.473 638.674 367 640 367C641.326 367 642.598 366.473 643.536 365.536C644.473 364.598 645 363.326 645 362C645 360.674 644.473 359.402 643.536 358.464C642.598 357.527 641.326 357 640 357C638.674 357 637.402 357.527 636.464 358.464C635.527 359.402 635 360.674 635 362V362Z" stroke="#D7DDE8"/>
<path d="M646 416L634 428L646 416Z" stroke="#D7DDE8"/>
<path d="M646 476L634 488L646 476Z" stroke="#D7DDE8"/>
<path d="M646 536L634 548L646 536Z" stroke="#D7DDE8"/>
<path d="M670 572L610 632L670 572Z" stroke="#D7DDE8" stroke-width="3"/>
<path d="M646 656L634 668L646 656Z" stroke="#D7DDE8"/>
<path d="M695 2C695 3.32608 695.527 4.59785 696.464 5.53553C697.402 6.47322 698.674 7 700 7C701.326 7 702.598 6.47322 703.536 5.53553C704.473 4.59785 705 3.32608 705 2C705 0.673918 704.473 -0.597852 703.536 -1.53553C702.598 -2.47322 701.326 -3 700 -3C698.674 -3 697.402 -2.47322 696.464 -1.53553C695.527 -0.597852 695 0.673918 695 2V2Z" stroke="#D7DDE8"/>
<path d="M706 56L694 68L706 56Z" stroke="#D7DDE8"/>
<path d="M702 120L698 124L702 120Z" stroke="#D7DDE8"/>
<path d="M702 180L698 184L702 180Z" stroke="#D7DDE8"/>
<path d="M699 242C699 242.265 699.105 242.52 699.293 242.707C699.48 242.895 699.735 243 700 243C700.265 243 700.52 242.895 700.707 242.707C700.895 242.52 701 242.265 701 242C701 241.735 700.895 241.48 700.707 241.293C700.52 241.105 700.265 241 700 241C699.735 241 699.48 241.105 699.293 241.293C699.105 241.48 699 241.735 699 242V242Z" stroke="#D7DDE8"/>
<path d="M695 302C695 303.326 695.527 304.598 696.464 305.536C697.402 306.473 698.674 307 700 307C701.326 307 702.598 306.473 703.536 305.536C704.473 304.598 705 303.326 705 302C705 300.674 704.473 299.402 703.536 298.464C702.598 297.527 701.326 297 700 297C698.674 297 697.402 297.527 696.464 298.464C695.527 299.402 695 300.674 695 302V302Z" stroke="#D7DDE8"/>
<path d="M699 362C699 362.265 699.105 362.52 699.293 362.707C699.48 362.895 699.735 363 700 363C700.265 363 700.52 362.895 700.707 362.707C700.895 362.52 701 362.265 701 362C701 361.735 700.895 361.48 700.707 361.293C700.52 361.105 700.265 361 700 361C699.735 361 699.48 361.105 699.293 361.293C699.105 361.48 699 361.735 699 362V362Z" stroke="#D7DDE8"/>
<path d="M706 416L694 428L706 416Z" stroke="#D7DDE8"/>
<path d="M730 452L670 512L730 452Z" stroke="#D7DDE8" stroke-width="3"/>
<path d="M702 540L698 544L702 540Z" stroke="#D7DDE8"/>
<path d="M702 600L698 604L702 600Z" stroke="#D7DDE8"/>
<path d="M702 660L698 664L702 660Z" stroke="#D7DDE8"/>
<path d="M766 -4L754 8L766 -4Z" stroke="#D7DDE8"/>
<path d="M755 62C755 63.3261 755.527 64.5979 756.464 65.5355C757.402 66.4732 758.674 67 760 67C761.326 67 762.598 66.4732 763.536 65.5355C764.473 64.5979 765 63.3261 765 62C765 60.6739 764.473 59.4021 763.536 58.4645C762.598 57.5268 761.326 57 760 57C758.674 57 757.402 57.5268 756.464 58.4645C755.527 59.4021 755 60.6739 755 62V62Z" stroke="#D7DDE8"/>
<path d="M762 120L758 124L762 120Z" stroke="#D7DDE8"/>
<path d="M766 176L754 188L766 176Z" stroke="#D7DDE8"/>
<path d="M762 240L758 244L762 240Z" stroke="#D7DDE8"/>
<path d="M766 296L754 308L766 296Z" stroke="#D7DDE8"/>
<path d="M762 360L758 364L762 360Z" stroke="#D7DDE8"/>
<path d="M790 392L730 452L790 392Z" stroke="#D7DDE8" stroke-width="3"/>
<path d="M790 452L730 512L790 452Z" stroke="#D7DDE8" stroke-width="3"/>
<path d="M762 540L758 544L762 540Z" stroke="#D7DDE8"/>
<path d="M762 600L758 604L762 600Z" stroke="#D7DDE8"/>
<path d="M755 662C755 663.326 755.527 664.598 756.464 665.536C757.402 666.473 758.674 667 760 667C761.326 667 762.598 666.473 763.536 665.536C764.473 664.598 765 663.326 765 662C765 660.674 764.473 659.402 763.536 658.464C762.598 657.527 761.326 657 760 657C758.674 657 757.402 657.527 756.464 658.464C755.527 659.402 755 660.674 755 662V662Z" stroke="#D7DDE8"/>
<path d="M826 -4L814 8L826 -4Z" stroke="#D7DDE8"/>
<path d="M822 60L818 64L822 60Z" stroke="#D7DDE8"/>
<path d="M826 116L814 128L826 116Z" stroke="#D7DDE8"/>
<path d="M826 176L814 188L826 176Z" stroke="#D7DDE8"/>
<path d="M822 240L818 244L822 240Z" stroke="#D7DDE8"/>
<path d="M815 302C815 303.326 815.527 304.598 816.464 305.536C817.402 306.473 818.674 307 820 307C821.326 307 822.598 306.473 823.536 305.536C824.473 304.598 825 303.326 825 302C825 300.674 824.473 299.402 823.536 298.464C822.598 297.527 821.326 297 820 297C818.674 297 817.402 297.527 816.464 298.464C815.527 299.402 815 300.674 815 302V302Z" stroke="#D7DDE8"/>
<path d="M815 362C815 363.326 815.527 364.598 816.464 365.536C817.402 366.473 818.674 367 820 367C821.326 367 822.598 366.473 823.536 365.536C824.473 364.598 825 363.326 825 362C825 360.674 824.473 359.402 823.536 358.464C822.598 357.527 821.326 357 820 357C818.674 357 817.402 357.527 816.464 358.464C815.527 359.402 815 360.674 815 362V362Z" stroke="#D7DDE8"/>
<path d="M822 420L818 424L822 420Z" stroke="#D7DDE8"/>
<path d="M815 482C815 483.326 815.527 484.598 816.464 485.536C817.402 486.473 818.674 487 820 487C821.326 487 822.598 486.473 823.536 485.536C824.473 484.598 825 483.326 825 482C825 480.674 824.473 479.402 823.536 478.464C822.598 477.527 821.326 477 820 477C818.674 477 817.402 477.527 816.464 478.464C815.527 479.402 815 480.674 815 482V482Z" stroke="#D7DDE8"/>
<path d="M826 536L814 548L826 536Z" stroke="#D7DDE8"/>
<path d="M817 602C817 602.796 817.316 603.559 817.879 604.121C818.441 604.684 819.204 605 820 605C820.796 605 821.559 604.684 822.121 604.121C822.684 603.559 823 602.796 823 602C823 601.204 822.684 600.441 822.121 599.879C821.559 599.316 820.796 599 820 599C819.204 599 818.441 599.316 817.879 599.879C817.316 600.441 817 601.204 817 602V602Z" stroke="#D7DDE8"/>
<path d="M815 662C815 663.326 815.527 664.598 816.464 665.536C817.402 666.473 818.674 667 820 667C821.326 667 822.598 666.473 823.536 665.536C824.473 664.598 825 663.326 825 662C825 660.674 824.473 659.402 823.536 658.464C822.598 657.527 821.326 657 820 657C818.674 657 817.402 657.527 816.464 658.464C815.527 659.402 815 660.674 815 662V662Z" stroke="#D7DDE8"/>
<path d="M875 2C875 3.32608 875.527 4.59785 876.464 5.53553C877.402 6.47322 878.674 7 880 7C881.326 7 882.598 6.47322 883.536 5.53553C884.473 4.59785 885 3.32608 885 2C885 0.673918 884.473 -0.597852 883.536 -1.53553C882.598 -2.47322 881.326 -3 880 -3C878.674 -3 877.402 -2.47322 876.464 -1.53553C875.527 -0.597852 875 0.673918 875 2V2Z" stroke="#D7DDE8"/>
<path d="M875 62C875 63.3261 875.527 64.5979 876.464 65.5355C877.402 66.4732 878.674 67 880 67C881.326 67 882.598 66.4732 883.536 65.5355C884.473 64.5979 885 63.3261 885 62C885 60.6739 884.473 59.4021 883.536 58.4645C882.598 57.5268 881.326 57 880 57C878.674 57 877.402 57.5268 876.464 58.4645C875.527 59.4021 875 60.6739 875 62V62Z" stroke="#D7DDE8"/>
<path d="M875 122C875 123.326 875.527 124.598 876.464 125.536C877.402 126.473 878.674 127 880 127C881.326 127 882.598 126.473 883.536 125.536C884.473 124.598 885 123.326 885 122C885 120.674 884.473 119.402 883.536 118.464C882.598 117.527 881.326 117 880 117C878.674 117 877.402 117.527 876.464 118.464C875.527 119.402 875 120.674 875 122V122Z" stroke="#D7DDE8"/>
<path d="M882 180L878 184L882 180Z" stroke="#D7DDE8"/>
<path d="M886 236L874 248L886 236Z" stroke="#D7DDE8"/>
<path d="M877 302C877 302.796 877.316 303.559 877.879 304.121C878.441 304.684 879.204 305 880 305C880.796 305 881.559 304.684 882.121 304.121C882.684 303.559 883 302.796 883 302C883 301.204 882.684 300.441 882.121 299.879C881.559 299.316 880.796 299 880 299C879.204 299 878.441 299.316 877.879 299.879C877.316 300.441 877 301.204 877 302V302Z" stroke="#D7DDE8"/>
<path d="M875 362C875 363.326 875.527 364.598 876.464 365.536C877.402 366.473 878.674 367 880 367C881.326 367 882.598 366.473 883.536 365.536C884.473 364.598 885 363.326 885 362C885 360.674 884.473 359.402 883.536 358.464C882.598 357.527 881.326 357 880 357C878.674 357 877.402 357.527 876.464 358.464C875.527 359.402 875 360.674 875 362V362Z" stroke="#D7DDE8"/>
<path d="M875 422C875 423.326 875.527 424.598 876.464 425.536C877.402 426.473 878.674 427 880 427C881.326 427 882.598 426.473 883.536 425.536C884.473 424.598 885 423.326 885 422C885 420.674 884.473 419.402 883.536 418.464C882.598 417.527 881.326 417 880 417C878.674 417 877.402 417.527 876.464 418.464C875.527 419.402 875 420.674 875 422V422Z" stroke="#D7DDE8"/>
<path d="M882 480L878 484L882 480Z" stroke="#D7DDE8"/>
<path d="M910 512L850 572L910 512Z" stroke="#D7DDE8" stroke-width="3"/>
<path d="M879 602C879 602.265 879.105 602.52 879.293 602.707C879.48 602.895 879.735 603 880 603C880.265 603 880.52 602.895 880.707 602.707C880.895 602.52 881 602.265 881 602C881 601.735 880.895 601.48 880.707 601.293C880.52 601.105 880.265 601 880 601C879.735 601 879.48 601.105 879.293 601.293C879.105 601.48 879 601.735 879 602V602Z" stroke="#D7DDE8"/>
<path d="M875 662C875 663.326 875.527 664.598 876.464 665.536C877.402 666.473 878.674 667 880 667C881.326 667 882.598 666.473 883.536 665.536C884.473 664.598 885 663.326 885 662C885 660.674 884.473 659.402 883.536 658.464C882.598 657.527 881.326 657 880 657C878.674 657 877.402 657.527 876.464 658.464C875.527 659.402 875 660.674 875 662V662Z" stroke="#D7DDE8"/>
<path d="M935 2C935 3.32608 935.527 4.59785 936.464 5.53553C937.402 6.47322 938.674 7 940 7C941.326 7 942.598 6.47322 943.536 5.53553C944.473 4.59785 945 3.32608 945 2C945 0.673918 944.473 -0.597852 943.536 -1.53553C942.598 -2.47322 941.326 -3 940 -3C938.674 -3 937.402 -2.47322 936.464 -1.53553C935.527 -0.597852 935 0.673918 935 2V2Z" stroke="#D7DDE8"/>
<path d="M935 62C935 63.3261 935.527 64.5979 936.464 65.5355C937.402 66.4732 938.674 67 940 67C941.326 67 942.598 66.4732 943.536 65.5355C944.473 64.5979 945 63.3261 945 62C945 60.6739 944.473 59.4021 943.536 58.4645C942.598 57.5268 941.326 57 940 57C938.674 57 937.402 57.5268 936.464 58.4645C935.527 59.4021 935 60.6739 935 62V62Z" stroke="#D7DDE8"/>
<path d="M946 116L934 128L946 116Z" stroke="#D7DDE8"/>
<path d="M935 182C935 183.326 935.527 184.598 936.464 185.536C937.402 186.473 938.674 187 940 187C941.326 187 942.598 186.473 943.536 185.536C944.473 184.598 945 183.326 945 182C945 180.674 944.473 179.402 943.536 178.464C942.598 177.527 941.326 177 940 177C938.674 177 937.402 177.527 936.464 178.464C935.527 179.402 935 180.674 935 182V182Z" stroke="#D7DDE8"/>
<path d="M946 236L934 248L946 236Z" stroke="#D7DDE8"/>
<path d="M946 296L934 308L946 296Z" stroke="#D7DDE8"/>
<path d="M946 356L934 368L946 356Z" stroke="#D7DDE8"/>
<path d="M939 422C939 422.265 939.105 422.52 939.293 422.707C939.48 422.895 939.735 423 940 423C940.265 423 940.52 422.895 940.707 422.707C940.895 422.52 941 422.265 941 422C941 421.735 940.895 421.48 940.707 421.293C940.52 421.105 940.265 421 940 421C939.735 421 939.48 421.105 939.293 421.293C939.105 421.48 939 421.735 939 422V422Z" stroke="#D7DDE8"/>
<path d="M946 476L934 488L946 476Z" stroke="#D7DDE8"/>
<path d="M939 542C939 542.265 939.105 542.52 939.293 542.707C939.48 542.895 939.735 543 940 543C940.265 543 940.52 542.895 940.707 542.707C940.895 542.52 941 542.265 941 542C941 541.735 940.895 541.48 940.707 541.293C940.52 541.105 940.265 541 940 541C939.735 541 939.48 541.105 939.293 541.293C939.105 541.48 939 541.735 939 542V542Z" stroke="#D7DDE8"/>
<path d="M946 596L934 608L946 596Z" stroke="#D7DDE8"/>
<path d="M970 632L910 692L970 632Z" stroke="#D7DDE8" stroke-width="3"/>
<path d="M999 2C999 2.26522 999.105 2.51957 999.293 2.70711C999.48 2.89464 999.735 3 1000 3C1000.27 3 1000.52 2.89464 1000.71 2.70711C1000.89 2.51957 1001 2.26522 1001 2C1001 1.73478 1000.89 1.48043 1000.71 1.29289C1000.52 1.10536 1000.27 1 1000 1C999.735 1 999.48 1.10536 999.293 1.29289C999.105 1.48043 999 1.73478 999 2V2Z" stroke="#D7DDE8"/>
<path d="M997 62C997 62.7956 997.316 63.5587 997.879 64.1213C998.441 64.6839 999.204 65 1000 65C1000.8 65 1001.56 64.6839 1002.12 64.1213C1002.68 63.5587 1003 62.7956 1003 62C1003 61.2044 1002.68 60.4413 1002.12 59.8787C1001.56 59.3161 1000.8 59 1000 59C999.204 59 998.441 59.3161 997.879 59.8787C997.316 60.4413 997 61.2044 997 62V62Z" stroke="#D7DDE8"/>
<path d="M997 122C997 122.796 997.316 123.559 997.879 124.121C998.441 124.684 999.204 125 1000 125C1000.8 125 1001.56 124.684 1002.12 124.121C1002.68 123.559 1003 122.796 1003 122C1003 121.204 1002.68 120.441 1002.12 119.879C1001.56 119.316 1000.8 119 1000 119C999.204 119 998.441 119.316 997.879 119.879C997.316 120.441 997 121.204 997 122V122Z" stroke="#D7DDE8"/>
<path d="M1002 180L998 184L1002 180Z" stroke="#D7DDE8"/>
<path d="M995 242C995 243.326 995.527 244.598 996.464 245.536C997.402 246.473 998.674 247 1000 247C1001.33 247 1002.6 246.473 1003.54 245.536C1004.47 244.598 1005 243.326 1005 242C1005 240.674 1004.47 239.402 1003.54 238.464C1002.6 237.527 1001.33 237 1000 237C998.674 237 997.402 237.527 996.464 238.464C995.527 239.402 995 240.674 995 242V242Z" stroke="#D7DDE8"/>
<path d="M1006 296L994 308L1006 296Z" stroke="#D7DDE8"/>
<path d="M995 362C995 363.326 995.527 364.598 996.464 365.536C997.402 366.473 998.674 367 1000 367C1001.33 367 1002.6 366.473 1003.54 365.536C1004.47 364.598 1005 363.326 1005 362C1005 360.674 1004.47 359.402 1003.54 358.464C1002.6 357.527 1001.33 357 1000 357C998.674 357 997.402 357.527 996.464 358.464C995.527 359.402 995 360.674 995 362V362Z" stroke="#D7DDE8"/>
<path d="M1002 420L998 424L1002 420Z" stroke="#D7DDE8"/>
<path d="M995 482C995 483.326 995.527 484.598 996.464 485.536C997.402 486.473 998.674 487 1000 487C1001.33 487 1002.6 486.473 1003.54 485.536C1004.47 484.598 1005 483.326 1005 482C1005 480.674 1004.47 479.402 1003.54 478.464C1002.6 477.527 1001.33 477 1000 477C998.674 477 997.402 477.527 996.464 478.464C995.527 479.402 995 480.674 995 482V482Z" stroke="#D7DDE8"/>
<path d="M995 542C995 543.326 995.527 544.598 996.464 545.536C997.402 546.473 998.674 547 1000 547C1001.33 547 1002.6 546.473 1003.54 545.536C1004.47 544.598 1005 543.326 1005 542C1005 540.674 1004.47 539.402 1003.54 538.464C1002.6 537.527 1001.33 537 1000 537C998.674 537 997.402 537.527 996.464 538.464C995.527 539.402 995 540.674 995 542V542Z" stroke="#D7DDE8"/>
<path d="M1006 596L994 608L1006 596Z" stroke="#D7DDE8"/>
<path d="M995 662C995 663.326 995.527 664.598 996.464 665.536C997.402 666.473 998.674 667 1000 667C1001.33 667 1002.6 666.473 1003.54 665.536C1004.47 664.598 1005 663.326 1005 662C1005 660.674 1004.47 659.402 1003.54 658.464C1002.6 657.527 1001.33 657 1000 657C998.674 657 997.402 657.527 996.464 658.464C995.527 659.402 995 660.674 995 662V662Z" stroke="#D7DDE8"/>
<path d="M1059 2C1059 2.26522 1059.11 2.51957 1059.29 2.70711C1059.48 2.89464 1059.73 3 1060 3C1060.27 3 1060.52 2.89464 1060.71 2.70711C1060.89 2.51957 1061 2.26522 1061 2C1061 1.73478 1060.89 1.48043 1060.71 1.29289C1060.52 1.10536 1060.27 1 1060 1C1059.73 1 1059.48 1.10536 1059.29 1.29289C1059.11 1.48043 1059 1.73478 1059 2V2Z" stroke="#D7DDE8"/>
<path d="M1066 56L1054 68L1066 56Z" stroke="#D7DDE8"/>
<path d="M1059 122C1059 122.265 1059.11 122.52 1059.29 122.707C1059.48 122.895 1059.73 123 1060 123C1060.27 123 1060.52 122.895 1060.71 122.707C1060.89 122.52 1061 122.265 1061 122C1061 121.735 1060.89 121.48 1060.71 121.293C1060.52 121.105 1060.27 121 1060 121C1059.73 121 1059.48 121.105 1059.29 121.293C1059.11 121.48 1059 121.735 1059 122V122Z" stroke="#D7DDE8"/>
<path d="M1066 176L1054 188L1066 176Z" stroke="#D7DDE8"/>
<path d="M1055 242C1055 243.326 1055.53 244.598 1056.46 245.536C1057.4 246.473 1058.67 247 1060 247C1061.33 247 1062.6 246.473 1063.54 245.536C1064.47 244.598 1065 243.326 1065 242C1065 240.674 1064.47 239.402 1063.54 238.464C1062.6 237.527 1061.33 237 1060 237C1058.67 237 1057.4 237.527 1056.46 238.464C1055.53 239.402 1055 240.674 1055 242V242Z" stroke="#D7DDE8"/>
<path d="M1062 300L1058 304L1062 300Z" stroke="#D7DDE8"/>
<path d="M1066 356L1054 368L1066 356Z" stroke="#D7DDE8"/>
<path d="M1062 420L1058 424L1062 420Z" stroke="#D7DDE8"/>
<path d="M1066 476L1054 488L1066 476Z" stroke="#D7DDE8"/>
<path d="M1066 536L1054 548L1066 536Z" stroke="#D7DDE8"/>
<path d="M1057 602C1057 602.796 1057.32 603.559 1057.88 604.121C1058.44 604.684 1059.2 605 1060 605C1060.8 605 1061.56 604.684 1062.12 604.121C1062.68 603.559 1063 602.796 1063 602C1063 601.204 1062.68 600.441 1062.12 599.879C1061.56 599.316 1060.8 599 1060 599C1059.2 599 1058.44 599.316 1057.88 599.879C1057.32 600.441 1057 601.204 1057 602V602Z" stroke="#D7DDE8"/>
<path d="M1057 662C1057 662.796 1057.32 663.559 1057.88 664.121C1058.44 664.684 1059.2 665 1060 665C1060.8 665 1061.56 664.684 1062.12 664.121C1062.68 663.559 1063 662.796 1063 662C1063 661.204 1062.68 660.441 1062.12 659.879C1061.56 659.316 1060.8 659 1060 659C1059.2 659 1058.44 659.316 1057.88 659.879C1057.32 660.441 1057 661.204 1057 662V662Z" stroke="#D7DDE8"/>
<path d="M402 720L398 724L402 720Z" stroke="#D7DDE8"/>
<path d="M395 782C395 783.326 395.527 784.598 396.464 785.536C397.402 786.473 398.674 787 400 787C401.326 787 402.598 786.473 403.536 785.536C404.473 784.598 405 783.326 405 782C405 780.674 404.473 779.402 403.536 778.464C402.598 777.527 401.326 777 400 777C398.674 777 397.402 777.527 396.464 778.464C395.527 779.402 395 780.674 395 782V782Z" stroke="#D7DDE8"/>
<path d="M395 842C395 843.326 395.527 844.598 396.464 845.536C397.402 846.473 398.674 847 400 847C401.326 847 402.598 846.473 403.536 845.536C404.473 844.598 405 843.326 405 842C405 840.674 404.473 839.402 403.536 838.464C402.598 837.527 401.326 837 400 837C398.674 837 397.402 837.527 396.464 838.464C395.527 839.402 395 840.674 395 842V842Z" stroke="#D7DDE8"/>
<path d="M406 896L394 908L406 896Z" stroke="#D7DDE8"/>
<path d="M406 956L394 968L406 956Z" stroke="#D7DDE8"/>
<path d="M406 1016L394 1028L406 1016Z" stroke="#D7DDE8"/>
<path d="M457 722C457 722.796 457.316 723.559 457.879 724.121C458.441 724.684 459.204 725 460 725C460.796 725 461.559 724.684 462.121 724.121C462.684 723.559 463 722.796 463 722C463 721.204 462.684 720.441 462.121 719.879C461.559 719.316 460.796 719 460 719C459.204 719 458.441 719.316 457.879 719.879C457.316 720.441 457 721.204 457 722V722Z" stroke="#D7DDE8"/>
<path d="M466 776L454 788L466 776Z" stroke="#D7DDE8"/>
<path d="M457 842C457 842.796 457.316 843.559 457.879 844.121C458.441 844.684 459.204 845 460 845C460.796 845 461.559 844.684 462.121 844.121C462.684 843.559 463 842.796 463 842C463 841.204 462.684 840.441 462.121 839.879C461.559 839.316 460.796 839 460 839C459.204 839 458.441 839.316 457.879 839.879C457.316 840.441 457 841.204 457 842V842Z" stroke="#D7DDE8"/>
<path d="M459 902C459 902.265 459.105 902.52 459.293 902.707C459.48 902.895 459.735 903 460 903C460.265 903 460.52 902.895 460.707 902.707C460.895 902.52 461 902.265 461 902C461 901.735 460.895 901.48 460.707 901.293C460.52 901.105 460.265 901 460 901C459.735 901 459.48 901.105 459.293 901.293C459.105 901.48 459 901.735 459 902V902Z" stroke="#D7DDE8"/>
<path d="M466 956L454 968L466 956Z" stroke="#D7DDE8"/>
<path d="M459 1022C459 1022.27 459.105 1022.52 459.293 1022.71C459.48 1022.89 459.735 1023 460 1023C460.265 1023 460.52 1022.89 460.707 1022.71C460.895 1022.52 461 1022.27 461 1022C461 1021.73 460.895 1021.48 460.707 1021.29C460.52 1021.11 460.265 1021 460 1021C459.735 1021 459.48 1021.11 459.293 1021.29C459.105 1021.48 459 1021.73 459 1022V1022Z" stroke="#D7DDE8"/>
<path d="M515 722C515 723.326 515.527 724.598 516.464 725.536C517.402 726.473 518.674 727 520 727C521.326 727 522.598 726.473 523.536 725.536C524.473 724.598 525 723.326 525 722C525 720.674 524.473 719.402 523.536 718.464C522.598 717.527 521.326 717 520 717C518.674 717 517.402 717.527 516.464 718.464C515.527 719.402 515 720.674 515 722V722Z" stroke="#D7DDE8"/>
<path d="M526 776L514 788L526 776Z" stroke="#D7DDE8"/>
<path d="M550 812L490 872L550 812Z" stroke="#D7DDE8" stroke-width="3"/>
<path d="M515 902C515 903.326 515.527 904.598 516.464 905.536C517.402 906.473 518.674 907 520 907C521.326 907 522.598 906.473 523.536 905.536C524.473 904.598 525 903.326 525 902C525 900.674 524.473 899.402 523.536 898.464C522.598 897.527 521.326 897 520 897C518.674 897 517.402 897.527 516.464 898.464C515.527 899.402 515 900.674 515 902V902Z" stroke="#D7DDE8"/>
<path d="M515 962C515 963.326 515.527 964.598 516.464 965.536C517.402 966.473 518.674 967 520 967C521.326 967 522.598 966.473 523.536 965.536C524.473 964.598 525 963.326 525 962C525 960.674 524.473 959.402 523.536 958.464C522.598 957.527 521.326 957 520 957C518.674 957 517.402 957.527 516.464 958.464C515.527 959.402 515 960.674 515 962V962Z" stroke="#D7DDE8"/>
<path d="M526 1016L514 1028L526 1016Z" stroke="#D7DDE8"/>
<path d="M575 722C575 723.326 575.527 724.598 576.464 725.536C577.402 726.473 578.674 727 580 727C581.326 727 582.598 726.473 583.536 725.536C584.473 724.598 585 723.326 585 722C585 720.674 584.473 719.402 583.536 718.464C582.598 717.527 581.326 717 580 717C578.674 717 577.402 717.527 576.464 718.464C575.527 719.402 575 720.674 575 722V722Z" stroke="#D7DDE8"/>
<path d="M582 780L578 784L582 780Z" stroke="#D7DDE8"/>
<path d="M579 842C579 842.265 579.105 842.52 579.293 842.707C579.48 842.895 579.735 843 580 843C580.265 843 580.52 842.895 580.707 842.707C580.895 842.52 581 842.265 581 842C581 841.735 580.895 841.48 580.707 841.293C580.52 841.105 580.265 841 580 841C579.735 841 579.48 841.105 579.293 841.293C579.105 841.48 579 841.735 579 842V842Z" stroke="#D7DDE8"/>
<path d="M577 902C577 902.796 577.316 903.559 577.879 904.121C578.441 904.684 579.204 905 580 905C580.796 905 581.559 904.684 582.121 904.121C582.684 903.559 583 902.796 583 902C583 901.204 582.684 900.441 582.121 899.879C581.559 899.316 580.796 899 580 899C579.204 899 578.441 899.316 577.879 899.879C577.316 900.441 577 901.204 577 902V902Z" stroke="#D7DDE8"/>
<path d="M575 962C575 963.326 575.527 964.598 576.464 965.536C577.402 966.473 578.674 967 580 967C581.326 967 582.598 966.473 583.536 965.536C584.473 964.598 585 963.326 585 962C585 960.674 584.473 959.402 583.536 958.464C582.598 957.527 581.326 957 580 957C578.674 957 577.402 957.527 576.464 958.464C575.527 959.402 575 960.674 575 962V962Z" stroke="#D7DDE8"/>
<path d="M575 1022C575 1023.33 575.527 1024.6 576.464 1025.54C577.402 1026.47 578.674 1027 580 1027C581.326 1027 582.598 1026.47 583.536 1025.54C584.473 1024.6 585 1023.33 585 1022C585 1020.67 584.473 1019.4 583.536 1018.46C582.598 1017.53 581.326 1017 580 1017C578.674 1017 577.402 1017.53 576.464 1018.46C575.527 1019.4 575 1020.67 575 1022V1022Z" stroke="#D7DDE8"/>
<path d="M635 722C635 723.326 635.527 724.598 636.464 725.536C637.402 726.473 638.674 727 640 727C641.326 727 642.598 726.473 643.536 725.536C644.473 724.598 645 723.326 645 722C645 720.674 644.473 719.402 643.536 718.464C642.598 717.527 641.326 717 640 717C638.674 717 637.402 717.527 636.464 718.464C635.527 719.402 635 720.674 635 722V722Z" stroke="#D7DDE8"/>
<path d="M637 782C637 782.796 637.316 783.559 637.879 784.121C638.441 784.684 639.204 785 640 785C640.796 785 641.559 784.684 642.121 784.121C642.684 783.559 643 782.796 643 782C643 781.204 642.684 780.441 642.121 779.879C641.559 779.316 640.796 779 640 779C639.204 779 638.441 779.316 637.879 779.879C637.316 780.441 637 781.204 637 782V782Z" stroke="#D7DDE8"/>
<path d="M635 842C635 843.326 635.527 844.598 636.464 845.536C637.402 846.473 638.674 847 640 847C641.326 847 642.598 846.473 643.536 845.536C644.473 844.598 645 843.326 645 842C645 840.674 644.473 839.402 643.536 838.464C642.598 837.527 641.326 837 640 837C638.674 837 637.402 837.527 636.464 838.464C635.527 839.402 635 840.674 635 842V842Z" stroke="#D7DDE8"/>
<path d="M642 900L638 904L642 900Z" stroke="#D7DDE8"/>
<path d="M639 962C639 962.265 639.105 962.52 639.293 962.707C639.48 962.895 639.735 963 640 963C640.265 963 640.52 962.895 640.707 962.707C640.895 962.52 641 962.265 641 962C641 961.735 640.895 961.48 640.707 961.293C640.52 961.105 640.265 961 640 961C639.735 961 639.48 961.105 639.293 961.293C639.105 961.48 639 961.735 639 962V962Z" stroke="#D7DDE8"/>
<path d="M635 1022C635 1023.33 635.527 1024.6 636.464 1025.54C637.402 1026.47 638.674 1027 640 1027C641.326 1027 642.598 1026.47 643.536 1025.54C644.473 1024.6 645 1023.33 645 1022C645 1020.67 644.473 1019.4 643.536 1018.46C642.598 1017.53 641.326 1017 640 1017C638.674 1017 637.402 1017.53 636.464 1018.46C635.527 1019.4 635 1020.67 635 1022V1022Z" stroke="#D7DDE8"/>
<path d="M695 722C695 723.326 695.527 724.598 696.464 725.536C697.402 726.473 698.674 727 700 727C701.326 727 702.598 726.473 703.536 725.536C704.473 724.598 705 723.326 705 722C705 720.674 704.473 719.402 703.536 718.464C702.598 717.527 701.326 717 700 717C698.674 717 697.402 717.527 696.464 718.464C695.527 719.402 695 720.674 695 722V722Z" stroke="#D7DDE8"/>
<path d="M706 776L694 788L706 776Z" stroke="#D7DDE8"/>
<path d="M702 840L698 844L702 840Z" stroke="#D7DDE8"/>
<path d="M702 900L698 904L702 900Z" stroke="#D7DDE8"/>
<path d="M699 962C699 962.265 699.105 962.52 699.293 962.707C699.48 962.895 699.735 963 700 963C700.265 963 700.52 962.895 700.707 962.707C700.895 962.52 701 962.265 701 962C701 961.735 700.895 961.48 700.707 961.293C700.52 961.105 700.265 961 700 961C699.735 961 699.48 961.105 699.293 961.293C699.105 961.48 699 961.735 699 962V962Z" stroke="#D7DDE8"/>
<path d="M695 1022C695 1023.33 695.527 1024.6 696.464 1025.54C697.402 1026.47 698.674 1027 700 1027C701.326 1027 702.598 1026.47 703.536 1025.54C704.473 1024.6 705 1023.33 705 1022C705 1020.67 704.473 1019.4 703.536 1018.46C702.598 1017.53 701.326 1017 700 1017C698.674 1017 697.402 1017.53 696.464 1018.46C695.527 1019.4 695 1020.67 695 1022V1022Z" stroke="#D7DDE8"/>
<path d="M766 716L754 728L766 716Z" stroke="#D7DDE8"/>
<path d="M755 782C755 783.326 755.527 784.598 756.464 785.536C757.402 786.473 758.674 787 760 787C761.326 787 762.598 786.473 763.536 785.536C764.473 784.598 765 783.326 765 782C765 780.674 764.473 779.402 763.536 778.464C762.598 777.527 761.326 777 760 777C758.674 777 757.402 777.527 756.464 778.464C755.527 779.402 755 780.674 755 782V782Z" stroke="#D7DDE8"/>
<path d="M762 840L758 844L762 840Z" stroke="#D7DDE8"/>
<path d="M766 896L754 908L766 896Z" stroke="#D7DDE8"/>
<path d="M762 960L758 964L762 960Z" stroke="#D7DDE8"/>
<path d="M766 1016L754 1028L766 1016Z" stroke="#D7DDE8"/>
<path d="M826 716L814 728L826 716Z" stroke="#D7DDE8"/>
<path d="M822 780L818 784L822 780Z" stroke="#D7DDE8"/>
<path d="M826 836L814 848L826 836Z" stroke="#D7DDE8"/>
<path d="M826 896L814 908L826 896Z" stroke="#D7DDE8"/>
<path d="M822 960L818 964L822 960Z" stroke="#D7DDE8"/>
<path d="M815 1022C815 1023.33 815.527 1024.6 816.464 1025.54C817.402 1026.47 818.674 1027 820 1027C821.326 1027 822.598 1026.47 823.536 1025.54C824.473 1024.6 825 1023.33 825 1022C825 1020.67 824.473 1019.4 823.536 1018.46C822.598 1017.53 821.326 1017 820 1017C818.674 1017 817.402 1017.53 816.464 1018.46C815.527 1019.4 815 1020.67 815 1022V1022Z" stroke="#D7DDE8"/>
<path d="M875 722C875 723.326 875.527 724.598 876.464 725.536C877.402 726.473 878.674 727 880 727C881.326 727 882.598 726.473 883.536 725.536C884.473 724.598 885 723.326 885 722C885 720.674 884.473 719.402 883.536 718.464C882.598 717.527 881.326 717 880 717C878.674 717 877.402 717.527 876.464 718.464C875.527 719.402 875 720.674 875 722V722Z" stroke="#D7DDE8"/>
<path d="M875 782C875 783.326 875.527 784.598 876.464 785.536C877.402 786.473 878.674 787 880 787C881.326 787 882.598 786.473 883.536 785.536C884.473 784.598 885 783.326 885 782C885 780.674 884.473 779.402 883.536 778.464C882.598 777.527 881.326 777 880 777C878.674 777 877.402 777.527 876.464 778.464C875.527 779.402 875 780.674 875 782V782Z" stroke="#D7DDE8"/>
<path d="M875 842C875 843.326 875.527 844.598 876.464 845.536C877.402 846.473 878.674 847 880 847C881.326 847 882.598 846.473 883.536 845.536C884.473 844.598 885 843.326 885 842C885 840.674 884.473 839.402 883.536 838.464C882.598 837.527 881.326 837 880 837C878.674 837 877.402 837.527 876.464 838.464C875.527 839.402 875 840.674 875 842V842Z" stroke="#D7DDE8"/>
<path d="M882 900L878 904L882 900Z" stroke="#D7DDE8"/>
<path d="M886 956L874 968L886 956Z" stroke="#D7DDE8"/>
<path d="M877 1022C877 1022.8 877.316 1023.56 877.879 1024.12C878.441 1024.68 879.204 1025 880 1025C880.796 1025 881.559 1024.68 882.121 1024.12C882.684 1023.56 883 1022.8 883 1022C883 1021.2 882.684 1020.44 882.121 1019.88C881.559 1019.32 880.796 1019 880 1019C879.204 1019 878.441 1019.32 877.879 1019.88C877.316 1020.44 877 1021.2 877 1022V1022Z" stroke="#D7DDE8"/>
<path d="M935 722C935 723.326 935.527 724.598 936.464 725.536C937.402 726.473 938.674 727 940 727C941.326 727 942.598 726.473 943.536 725.536C944.473 724.598 945 723.326 945 722C945 720.674 944.473 719.402 943.536 718.464C942.598 717.527 941.326 717 940 717C938.674 717 937.402 717.527 936.464 718.464C935.527 719.402 935 720.674 935 722V722Z" stroke="#D7DDE8"/>
<path d="M935 782C935 783.326 935.527 784.598 936.464 785.536C937.402 786.473 938.674 787 940 787C941.326 787 942.598 786.473 943.536 785.536C944.473 784.598 945 783.326 945 782C945 780.674 944.473 779.402 943.536 778.464C942.598 777.527 941.326 777 940 777C938.674 777 937.402 777.527 936.464 778.464C935.527 779.402 935 780.674 935 782V782Z" stroke="#D7DDE8"/>
<path d="M946 836L934 848L946 836Z" stroke="#D7DDE8"/>
<path d="M935 902C935 903.326 935.527 904.598 936.464 905.536C937.402 906.473 938.674 907 940 907C941.326 907 942.598 906.473 943.536 905.536C944.473 904.598 945 903.326 945 902C945 900.674 944.473 899.402 943.536 898.464C942.598 897.527 941.326 897 940 897C938.674 897 937.402 897.527 936.464 898.464C935.527 899.402 935 900.674 935 902V902Z" stroke="#D7DDE8"/>
<path d="M946 956L934 968L946 956Z" stroke="#D7DDE8"/>
<path d="M946 1016L934 1028L946 1016Z" stroke="#D7DDE8"/>
<path d="M999 722C999 722.265 999.105 722.52 999.293 722.707C999.48 722.895 999.735 723 1000 723C1000.27 723 1000.52 722.895 1000.71 722.707C1000.89 722.52 1001 722.265 1001 722C1001 721.735 1000.89 721.48 1000.71 721.293C1000.52 721.105 1000.27 721 1000 721C999.735 721 999.48 721.105 999.293 721.293C999.105 721.48 999 721.735 999 722V722Z" stroke="#D7DDE8"/>
<path d="M997 782C997 782.796 997.316 783.559 997.879 784.121C998.441 784.684 999.204 785 1000 785C1000.8 785 1001.56 784.684 1002.12 784.121C1002.68 783.559 1003 782.796 1003 782C1003 781.204 1002.68 780.441 1002.12 779.879C1001.56 779.316 1000.8 779 1000 779C999.204 779 998.441 779.316 997.879 779.879C997.316 780.441 997 781.204 997 782V782Z" stroke="#D7DDE8"/>
<path d="M997 842C997 842.796 997.316 843.559 997.879 844.121C998.441 844.684 999.204 845 1000 845C1000.8 845 1001.56 844.684 1002.12 844.121C1002.68 843.559 1003 842.796 1003 842C1003 841.204 1002.68 840.441 1002.12 839.879C1001.56 839.316 1000.8 839 1000 839C999.204 839 998.441 839.316 997.879 839.879C997.316 840.441 997 841.204 997 842V842Z" stroke="#D7DDE8"/>
<path d="M1002 900L998 904L1002 900Z" stroke="#D7DDE8"/>
<path d="M995 962C995 963.326 995.527 964.598 996.464 965.536C997.402 966.473 998.674 967 1000 967C1001.33 967 1002.6 966.473 1003.54 965.536C1004.47 964.598 1005 963.326 1005 962C1005 960.674 1004.47 959.402 1003.54 958.464C1002.6 957.527 1001.33 957 1000 957C998.674 957 997.402 957.527 996.464 958.464C995.527 959.402 995 960.674 995 962V962Z" stroke="#D7DDE8"/>
<path d="M1006 1016L994 1028L1006 1016Z" stroke="#D7DDE8"/>
<path d="M1059 722C1059 722.265 1059.11 722.52 1059.29 722.707C1059.48 722.895 1059.73 723 1060 723C1060.27 723 1060.52 722.895 1060.71 722.707C1060.89 722.52 1061 722.265 1061 722C1061 721.735 1060.89 721.48 1060.71 721.293C1060.52 721.105 1060.27 721 1060 721C1059.73 721 1059.48 721.105 1059.29 721.293C1059.11 721.48 1059 721.735 1059 722V722Z" stroke="#D7DDE8"/>
<path d="M1066 776L1054 788L1066 776Z" stroke="#D7DDE8"/>
<path d="M1059 842C1059 842.265 1059.11 842.52 1059.29 842.707C1059.48 842.895 1059.73 843 1060 843C1060.27 843 1060.52 842.895 1060.71 842.707C1060.89 842.52 1061 842.265 1061 842C1061 841.735 1060.89 841.48 1060.71 841.293C1060.52 841.105 1060.27 841 1060 841C1059.73 841 1059.48 841.105 1059.29 841.293C1059.11 841.48 1059 841.735 1059 842V842Z" stroke="#D7DDE8"/>
<path d="M1066 896L1054 908L1066 896Z" stroke="#D7DDE8"/>
<path d="M1055 962C1055 963.326 1055.53 964.598 1056.46 965.536C1057.4 966.473 1058.67 967 1060 967C1061.33 967 1062.6 966.473 1063.54 965.536C1064.47 964.598 1065 963.326 1065 962C1065 960.674 1064.47 959.402 1063.54 958.464C1062.6 957.527 1061.33 957 1060 957C1058.67 957 1057.4 957.527 1056.46 958.464C1055.53 959.402 1055 960.674 1055 962V962Z" stroke="#D7DDE8"/>
<path d="M1062 1020L1058 1024L1062 1020Z" stroke="#D7DDE8"/>
<path d="M1122 0L1118 4L1122 0Z" stroke="#D7DDE8"/>
<path d="M1115 62C1115 63.3261 1115.53 64.5979 1116.46 65.5355C1117.4 66.4732 1118.67 67 1120 67C1121.33 67 1122.6 66.4732 1123.54 65.5355C1124.47 64.5979 1125 63.3261 1125 62C1125 60.6739 1124.47 59.4021 1123.54 58.4645C1122.6 57.5268 1121.33 57 1120 57C1118.67 57 1117.4 57.5268 1116.46 58.4645C1115.53 59.4021 1115 60.6739 1115 62V62Z" stroke="#D7DDE8"/>
<path d="M1115 122C1115 123.326 1115.53 124.598 1116.46 125.536C1117.4 126.473 1118.67 127 1120 127C1121.33 127 1122.6 126.473 1123.54 125.536C1124.47 124.598 1125 123.326 1125 122C1125 120.674 1124.47 119.402 1123.54 118.464C1122.6 117.527 1121.33 117 1120 117C1118.67 117 1117.4 117.527 1116.46 118.464C1115.53 119.402 1115 120.674 1115 122V122Z" stroke="#D7DDE8"/>
<path d="M1126 176L1114 188L1126 176Z" stroke="#D7DDE8"/>
<path d="M1126 236L1114 248L1126 236Z" stroke="#D7DDE8"/>
<path d="M1126 296L1114 308L1126 296Z" stroke="#D7DDE8"/>
<path d="M1115 362C1115 363.326 1115.53 364.598 1116.46 365.536C1117.4 366.473 1118.67 367 1120 367C1121.33 367 1122.6 366.473 1123.54 365.536C1124.47 364.598 1125 363.326 1125 362C1125 360.674 1124.47 359.402 1123.54 358.464C1122.6 357.527 1121.33 357 1120 357C1118.67 357 1117.4 357.527 1116.46 358.464C1115.53 359.402 1115 360.674 1115 362V362Z" stroke="#D7DDE8"/>
<path d="M1126 416L1114 428L1126 416Z" stroke="#D7DDE8"/>
<path d="M1150 452L1090 512L1150 452Z" stroke="#D7DDE8" stroke-width="3"/>
<path d="M1119 542C1119 542.265 1119.11 542.52 1119.29 542.707C1119.48 542.895 1119.73 543 1120 543C1120.27 543 1120.52 542.895 1120.71 542.707C1120.89 542.52 1121 542.265 1121 542C1121 541.735 1120.89 541.48 1120.71 541.293C1120.52 541.105 1120.27 541 1120 541C1119.73 541 1119.48 541.105 1119.29 541.293C1119.11 541.48 1119 541.735 1119 542V542Z" stroke="#D7DDE8"/>
<path d="M1119 602C1119 602.265 1119.11 602.52 1119.29 602.707C1119.48 602.895 1119.73 603 1120 603C1120.27 603 1120.52 602.895 1120.71 602.707C1120.89 602.52 1121 602.265 1121 602C1121 601.735 1120.89 601.48 1120.71 601.293C1120.52 601.105 1120.27 601 1120 601C1119.73 601 1119.48 601.105 1119.29 601.293C1119.11 601.48 1119 601.735 1119 602V602Z" stroke="#D7DDE8"/>
<path d="M1119 662C1119 662.265 1119.11 662.52 1119.29 662.707C1119.48 662.895 1119.73 663 1120 663C1120.27 663 1120.52 662.895 1120.71 662.707C1120.89 662.52 1121 662.265 1121 662C1121 661.735 1120.89 661.48 1120.71 661.293C1120.52 661.105 1120.27 661 1120 661C1119.73 661 1119.48 661.105 1119.29 661.293C1119.11 661.48 1119 661.735 1119 662V662Z" stroke="#D7DDE8"/>
<path d="M1177 2C1177 2.79565 1177.32 3.55871 1177.88 4.12132C1178.44 4.68393 1179.2 5 1180 5C1180.8 5 1181.56 4.68393 1182.12 4.12132C1182.68 3.55871 1183 2.79565 1183 2C1183 1.20435 1182.68 0.441289 1182.12 -0.12132C1181.56 -0.683929 1180.8 -1 1180 -1C1179.2 -1 1178.44 -0.683929 1177.88 -0.12132C1177.32 0.441289 1177 1.20435 1177 2V2Z" stroke="#D7DDE8"/>
<path d="M1186 56L1174 68L1186 56Z" stroke="#D7DDE8"/>
<path d="M1177 122C1177 122.796 1177.32 123.559 1177.88 124.121C1178.44 124.684 1179.2 125 1180 125C1180.8 125 1181.56 124.684 1182.12 124.121C1182.68 123.559 1183 122.796 1183 122C1183 121.204 1182.68 120.441 1182.12 119.879C1181.56 119.316 1180.8 119 1180 119C1179.2 119 1178.44 119.316 1177.88 119.879C1177.32 120.441 1177 121.204 1177 122V122Z" stroke="#D7DDE8"/>
<path d="M1179 182C1179 182.265 1179.11 182.52 1179.29 182.707C1179.48 182.895 1179.73 183 1180 183C1180.27 183 1180.52 182.895 1180.71 182.707C1180.89 182.52 1181 182.265 1181 182C1181 181.735 1180.89 181.48 1180.71 181.293C1180.52 181.105 1180.27 181 1180 181C1179.73 181 1179.48 181.105 1179.29 181.293C1179.11 181.48 1179 181.735 1179 182V182Z" stroke="#D7DDE8"/>
<path d="M1186 236L1174 248L1186 236Z" stroke="#D7DDE8"/>
<path d="M1179 302C1179 302.265 1179.11 302.52 1179.29 302.707C1179.48 302.895 1179.73 303 1180 303C1180.27 303 1180.52 302.895 1180.71 302.707C1180.89 302.52 1181 302.265 1181 302C1181 301.735 1180.89 301.48 1180.71 301.293C1180.52 301.105 1180.27 301 1180 301C1179.73 301 1179.48 301.105 1179.29 301.293C1179.11 301.48 1179 301.735 1179 302V302Z" stroke="#D7DDE8"/>
<path d="M1175 362C1175 363.326 1175.53 364.598 1176.46 365.536C1177.4 366.473 1178.67 367 1180 367C1181.33 367 1182.6 366.473 1183.54 365.536C1184.47 364.598 1185 363.326 1185 362C1185 360.674 1184.47 359.402 1183.54 358.464C1182.6 357.527 1181.33 357 1180 357C1178.67 357 1177.4 357.527 1176.46 358.464C1175.53 359.402 1175 360.674 1175 362V362Z" stroke="#D7DDE8"/>
<path d="M1175 422C1175 423.326 1175.53 424.598 1176.46 425.536C1177.4 426.473 1178.67 427 1180 427C1181.33 427 1182.6 426.473 1183.54 425.536C1184.47 424.598 1185 423.326 1185 422C1185 420.674 1184.47 419.402 1183.54 418.464C1182.6 417.527 1181.33 417 1180 417C1178.67 417 1177.4 417.527 1176.46 418.464C1175.53 419.402 1175 420.674 1175 422V422Z" stroke="#D7DDE8"/>
<path d="M1175 482C1175 483.326 1175.53 484.598 1176.46 485.536C1177.4 486.473 1178.67 487 1180 487C1181.33 487 1182.6 486.473 1183.54 485.536C1184.47 484.598 1185 483.326 1185 482C1185 480.674 1184.47 479.402 1183.54 478.464C1182.6 477.527 1181.33 477 1180 477C1178.67 477 1177.4 477.527 1176.46 478.464C1175.53 479.402 1175 480.674 1175 482V482Z" stroke="#D7DDE8"/>
<path d="M1186 536L1174 548L1186 536Z" stroke="#D7DDE8"/>
<path d="M1179 602C1179 602.265 1179.11 602.52 1179.29 602.707C1179.48 602.895 1179.73 603 1180 603C1180.27 603 1180.52 602.895 1180.71 602.707C1180.89 602.52 1181 602.265 1181 602C1181 601.735 1180.89 601.48 1180.71 601.293C1180.52 601.105 1180.27 601 1180 601C1179.73 601 1179.48 601.105 1179.29 601.293C1179.11 601.48 1179 601.735 1179 602V602Z" stroke="#D7DDE8"/>
<path d="M1182 660L1178 664L1182 660Z" stroke="#D7DDE8"/>
<path d="M1235 2C1235 3.32608 1235.53 4.59785 1236.46 5.53553C1237.4 6.47322 1238.67 7 1240 7C1241.33 7 1242.6 6.47322 1243.54 5.53553C1244.47 4.59785 1245 3.32608 1245 2C1245 0.673918 1244.47 -0.597852 1243.54 -1.53553C1242.6 -2.47322 1241.33 -3 1240 -3C1238.67 -3 1237.4 -2.47322 1236.46 -1.53553C1235.53 -0.597852 1235 0.673918 1235 2V2Z" stroke="#D7DDE8"/>
<path d="M1246 56L1234 68L1246 56Z" stroke="#D7DDE8"/>
<path d="M1270 92L1210 152L1270 92Z" stroke="#D7DDE8" stroke-width="3"/>
<path d="M1235 182C1235 183.326 1235.53 184.598 1236.46 185.536C1237.4 186.473 1238.67 187 1240 187C1241.33 187 1242.6 186.473 1243.54 185.536C1244.47 184.598 1245 183.326 1245 182C1245 180.674 1244.47 179.402 1243.54 178.464C1242.6 177.527 1241.33 177 1240 177C1238.67 177 1237.4 177.527 1236.46 178.464C1235.53 179.402 1235 180.674 1235 182V182Z" stroke="#D7DDE8"/>
<path d="M1235 242C1235 243.326 1235.53 244.598 1236.46 245.536C1237.4 246.473 1238.67 247 1240 247C1241.33 247 1242.6 246.473 1243.54 245.536C1244.47 244.598 1245 243.326 1245 242C1245 240.674 1244.47 239.402 1243.54 238.464C1242.6 237.527 1241.33 237 1240 237C1238.67 237 1237.4 237.527 1236.46 238.464C1235.53 239.402 1235 240.674 1235 242V242Z" stroke="#D7DDE8"/>
<path d="M1246 296L1234 308L1246 296Z" stroke="#D7DDE8"/>
<path d="M1242 360L1238 364L1242 360Z" stroke="#D7DDE8"/>
<path d="M1242 420L1238 424L1242 420Z" stroke="#D7DDE8"/>
<path d="M1270 452L1210 512L1270 452Z" stroke="#D7DDE8" stroke-width="3"/>
<path d="M1235 542C1235 543.326 1235.53 544.598 1236.46 545.536C1237.4 546.473 1238.67 547 1240 547C1241.33 547 1242.6 546.473 1243.54 545.536C1244.47 544.598 1245 543.326 1245 542C1245 540.674 1244.47 539.402 1243.54 538.464C1242.6 537.527 1241.33 537 1240 537C1238.67 537 1237.4 537.527 1236.46 538.464C1235.53 539.402 1235 540.674 1235 542V542Z" stroke="#D7DDE8"/>
<path d="M1242 600L1238 604L1242 600Z" stroke="#D7DDE8"/>
<path d="M1235 662C1235 663.326 1235.53 664.598 1236.46 665.536C1237.4 666.473 1238.67 667 1240 667C1241.33 667 1242.6 666.473 1243.54 665.536C1244.47 664.598 1245 663.326 1245 662C1245 660.674 1244.47 659.402 1243.54 658.464C1242.6 657.527 1241.33 657 1240 657C1238.67 657 1237.4 657.527 1236.46 658.464C1235.53 659.402 1235 660.674 1235 662V662Z" stroke="#D7DDE8"/>
<path d="M1295 2C1295 3.32608 1295.53 4.59785 1296.46 5.53553C1297.4 6.47322 1298.67 7 1300 7C1301.33 7 1302.6 6.47322 1303.54 5.53553C1304.47 4.59785 1305 3.32608 1305 2C1305 0.673918 1304.47 -0.597852 1303.54 -1.53553C1302.6 -2.47322 1301.33 -3 1300 -3C1298.67 -3 1297.4 -2.47322 1296.46 -1.53553C1295.53 -0.597852 1295 0.673918 1295 2V2Z" stroke="#D7DDE8"/>
<path d="M1302 60L1298 64L1302 60Z" stroke="#D7DDE8"/>
<path d="M1299 122C1299 122.265 1299.11 122.52 1299.29 122.707C1299.48 122.895 1299.73 123 1300 123C1300.27 123 1300.52 122.895 1300.71 122.707C1300.89 122.52 1301 122.265 1301 122C1301 121.735 1300.89 121.48 1300.71 121.293C1300.52 121.105 1300.27 121 1300 121C1299.73 121 1299.48 121.105 1299.29 121.293C1299.11 121.48 1299 121.735 1299 122V122Z" stroke="#D7DDE8"/>
<path d="M1297 182C1297 182.796 1297.32 183.559 1297.88 184.121C1298.44 184.684 1299.2 185 1300 185C1300.8 185 1301.56 184.684 1302.12 184.121C1302.68 183.559 1303 182.796 1303 182C1303 181.204 1302.68 180.441 1302.12 179.879C1301.56 179.316 1300.8 179 1300 179C1299.2 179 1298.44 179.316 1297.88 179.879C1297.32 180.441 1297 181.204 1297 182V182Z" stroke="#D7DDE8"/>
<path d="M1295 242C1295 243.326 1295.53 244.598 1296.46 245.536C1297.4 246.473 1298.67 247 1300 247C1301.33 247 1302.6 246.473 1303.54 245.536C1304.47 244.598 1305 243.326 1305 242C1305 240.674 1304.47 239.402 1303.54 238.464C1302.6 237.527 1301.33 237 1300 237C1298.67 237 1297.4 237.527 1296.46 238.464C1295.53 239.402 1295 240.674 1295 242V242Z" stroke="#D7DDE8"/>
<path d="M1295 302C1295 303.326 1295.53 304.598 1296.46 305.536C1297.4 306.473 1298.67 307 1300 307C1301.33 307 1302.6 306.473 1303.54 305.536C1304.47 304.598 1305 303.326 1305 302C1305 300.674 1304.47 299.402 1303.54 298.464C1302.6 297.527 1301.33 297 1300 297C1298.67 297 1297.4 297.527 1296.46 298.464C1295.53 299.402 1295 300.674 1295 302V302Z" stroke="#D7DDE8"/>
<path d="M1306 356L1294 368L1306 356Z" stroke="#D7DDE8"/>
<path d="M1297 422C1297 422.796 1297.32 423.559 1297.88 424.121C1298.44 424.684 1299.2 425 1300 425C1300.8 425 1301.56 424.684 1302.12 424.121C1302.68 423.559 1303 422.796 1303 422C1303 421.204 1302.68 420.441 1302.12 419.879C1301.56 419.316 1300.8 419 1300 419C1299.2 419 1298.44 419.316 1297.88 419.879C1297.32 420.441 1297 421.204 1297 422V422Z" stroke="#D7DDE8"/>
<path d="M1299 482C1299 482.265 1299.11 482.52 1299.29 482.707C1299.48 482.895 1299.73 483 1300 483C1300.27 483 1300.52 482.895 1300.71 482.707C1300.89 482.52 1301 482.265 1301 482C1301 481.735 1300.89 481.48 1300.71 481.293C1300.52 481.105 1300.27 481 1300 481C1299.73 481 1299.48 481.105 1299.29 481.293C1299.11 481.48 1299 481.735 1299 482V482Z" stroke="#D7DDE8"/>
<path d="M1306 536L1294 548L1306 536Z" stroke="#D7DDE8"/>
<path d="M1306 596L1294 608L1306 596Z" stroke="#D7DDE8"/>
<path d="M1306 656L1294 668L1306 656Z" stroke="#D7DDE8"/>
<path d="M1355 2C1355 3.32608 1355.53 4.59785 1356.46 5.53553C1357.4 6.47322 1358.67 7 1360 7C1361.33 7 1362.6 6.47322 1363.54 5.53553C1364.47 4.59785 1365 3.32608 1365 2C1365 0.673918 1364.47 -0.597852 1363.54 -1.53553C1362.6 -2.47322 1361.33 -3 1360 -3C1358.67 -3 1357.4 -2.47322 1356.46 -1.53553C1355.53 -0.597852 1355 0.673918 1355 2V2Z" stroke="#D7DDE8"/>
<path d="M1357 62C1357 62.7956 1357.32 63.5587 1357.88 64.1213C1358.44 64.6839 1359.2 65 1360 65C1360.8 65 1361.56 64.6839 1362.12 64.1213C1362.68 63.5587 1363 62.7956 1363 62C1363 61.2044 1362.68 60.4413 1362.12 59.8787C1361.56 59.3161 1360.8 59 1360 59C1359.2 59 1358.44 59.3161 1357.88 59.8787C1357.32 60.4413 1357 61.2044 1357 62V62Z" stroke="#D7DDE8"/>
<path d="M1355 122C1355 123.326 1355.53 124.598 1356.46 125.536C1357.4 126.473 1358.67 127 1360 127C1361.33 127 1362.6 126.473 1363.54 125.536C1364.47 124.598 1365 123.326 1365 122C1365 120.674 1364.47 119.402 1363.54 118.464C1362.6 117.527 1361.33 117 1360 117C1358.67 117 1357.4 117.527 1356.46 118.464C1355.53 119.402 1355 120.674 1355 122V122Z" stroke="#D7DDE8"/>
<path d="M1362 180L1358 184L1362 180Z" stroke="#D7DDE8"/>
<path d="M1359 242C1359 242.265 1359.11 242.52 1359.29 242.707C1359.48 242.895 1359.73 243 1360 243C1360.27 243 1360.52 242.895 1360.71 242.707C1360.89 242.52 1361 242.265 1361 242C1361 241.735 1360.89 241.48 1360.71 241.293C1360.52 241.105 1360.27 241 1360 241C1359.73 241 1359.48 241.105 1359.29 241.293C1359.11 241.48 1359 241.735 1359 242V242Z" stroke="#D7DDE8"/>
<path d="M1355 302C1355 303.326 1355.53 304.598 1356.46 305.536C1357.4 306.473 1358.67 307 1360 307C1361.33 307 1362.6 306.473 1363.54 305.536C1364.47 304.598 1365 303.326 1365 302C1365 300.674 1364.47 299.402 1363.54 298.464C1362.6 297.527 1361.33 297 1360 297C1358.67 297 1357.4 297.527 1356.46 298.464C1355.53 299.402 1355 300.674 1355 302V302Z" stroke="#D7DDE8"/>
<path d="M1355 362C1355 363.326 1355.53 364.598 1356.46 365.536C1357.4 366.473 1358.67 367 1360 367C1361.33 367 1362.6 366.473 1363.54 365.536C1364.47 364.598 1365 363.326 1365 362C1365 360.674 1364.47 359.402 1363.54 358.464C1362.6 357.527 1361.33 357 1360 357C1358.67 357 1357.4 357.527 1356.46 358.464C1355.53 359.402 1355 360.674 1355 362V362Z" stroke="#D7DDE8"/>
<path d="M1366 416L1354 428L1366 416Z" stroke="#D7DDE8"/>
<path d="M1366 476L1354 488L1366 476Z" stroke="#D7DDE8"/>
<path d="M1366 536L1354 548L1366 536Z" stroke="#D7DDE8"/>
<path d="M1390 572L1330 632L1390 572Z" stroke="#D7DDE8" stroke-width="3"/>
<path d="M1366 656L1354 668L1366 656Z" stroke="#D7DDE8"/>
<path d="M1415 2C1415 3.32608 1415.53 4.59785 1416.46 5.53553C1417.4 6.47322 1418.67 7 1420 7C1421.33 7 1422.6 6.47322 1423.54 5.53553C1424.47 4.59785 1425 3.32608 1425 2C1425 0.673918 1424.47 -0.597852 1423.54 -1.53553C1422.6 -2.47322 1421.33 -3 1420 -3C1418.67 -3 1417.4 -2.47322 1416.46 -1.53553C1415.53 -0.597852 1415 0.673918 1415 2V2Z" stroke="#D7DDE8"/>
<path d="M1426 56L1414 68L1426 56Z" stroke="#D7DDE8"/>
<path d="M1422 120L1418 124L1422 120Z" stroke="#D7DDE8"/>
<path d="M1422 180L1418 184L1422 180Z" stroke="#D7DDE8"/>
<path d="M1419 242C1419 242.265 1419.11 242.52 1419.29 242.707C1419.48 242.895 1419.73 243 1420 243C1420.27 243 1420.52 242.895 1420.71 242.707C1420.89 242.52 1421 242.265 1421 242C1421 241.735 1420.89 241.48 1420.71 241.293C1420.52 241.105 1420.27 241 1420 241C1419.73 241 1419.48 241.105 1419.29 241.293C1419.11 241.48 1419 241.735 1419 242V242Z" stroke="#D7DDE8"/>
<path d="M1415 302C1415 303.326 1415.53 304.598 1416.46 305.536C1417.4 306.473 1418.67 307 1420 307C1421.33 307 1422.6 306.473 1423.54 305.536C1424.47 304.598 1425 303.326 1425 302C1425 300.674 1424.47 299.402 1423.54 298.464C1422.6 297.527 1421.33 297 1420 297C1418.67 297 1417.4 297.527 1416.46 298.464C1415.53 299.402 1415 300.674 1415 302V302Z" stroke="#D7DDE8"/>
<path d="M1419 362C1419 362.265 1419.11 362.52 1419.29 362.707C1419.48 362.895 1419.73 363 1420 363C1420.27 363 1420.52 362.895 1420.71 362.707C1420.89 362.52 1421 362.265 1421 362C1421 361.735 1420.89 361.48 1420.71 361.293C1420.52 361.105 1420.27 361 1420 361C1419.73 361 1419.48 361.105 1419.29 361.293C1419.11 361.48 1419 361.735 1419 362V362Z" stroke="#D7DDE8"/>
<path d="M1426 416L1414 428L1426 416Z" stroke="#D7DDE8"/>
<path d="M1450 452L1390 512L1450 452Z" stroke="#D7DDE8" stroke-width="3"/>
<path d="M1422 540L1418 544L1422 540Z" stroke="#D7DDE8"/>
<path d="M1422 600L1418 604L1422 600Z" stroke="#D7DDE8"/>
<path d="M1422 660L1418 664L1422 660Z" stroke="#D7DDE8"/>
<path d="M1122 720L1118 724L1122 720Z" stroke="#D7DDE8"/>
<path d="M1115 782C1115 783.326 1115.53 784.598 1116.46 785.536C1117.4 786.473 1118.67 787 1120 787C1121.33 787 1122.6 786.473 1123.54 785.536C1124.47 784.598 1125 783.326 1125 782C1125 780.674 1124.47 779.402 1123.54 778.464C1122.6 777.527 1121.33 777 1120 777C1118.67 777 1117.4 777.527 1116.46 778.464C1115.53 779.402 1115 780.674 1115 782V782Z" stroke="#D7DDE8"/>
<path d="M1115 842C1115 843.326 1115.53 844.598 1116.46 845.536C1117.4 846.473 1118.67 847 1120 847C1121.33 847 1122.6 846.473 1123.54 845.536C1124.47 844.598 1125 843.326 1125 842C1125 840.674 1124.47 839.402 1123.54 838.464C1122.6 837.527 1121.33 837 1120 837C1118.67 837 1117.4 837.527 1116.46 838.464C1115.53 839.402 1115 840.674 1115 842V842Z" stroke="#D7DDE8"/>
<path d="M1126 896L1114 908L1126 896Z" stroke="#D7DDE8"/>
<path d="M1126 956L1114 968L1126 956Z" stroke="#D7DDE8"/>
<path d="M1126 1016L1114 1028L1126 1016Z" stroke="#D7DDE8"/>
<path d="M1177 722C1177 722.796 1177.32 723.559 1177.88 724.121C1178.44 724.684 1179.2 725 1180 725C1180.8 725 1181.56 724.684 1182.12 724.121C1182.68 723.559 1183 722.796 1183 722C1183 721.204 1182.68 720.441 1182.12 719.879C1181.56 719.316 1180.8 719 1180 719C1179.2 719 1178.44 719.316 1177.88 719.879C1177.32 720.441 1177 721.204 1177 722V722Z" stroke="#D7DDE8"/>
<path d="M1186 776L1174 788L1186 776Z" stroke="#D7DDE8"/>
<path d="M1177 842C1177 842.796 1177.32 843.559 1177.88 844.121C1178.44 844.684 1179.2 845 1180 845C1180.8 845 1181.56 844.684 1182.12 844.121C1182.68 843.559 1183 842.796 1183 842C1183 841.204 1182.68 840.441 1182.12 839.879C1181.56 839.316 1180.8 839 1180 839C1179.2 839 1178.44 839.316 1177.88 839.879C1177.32 840.441 1177 841.204 1177 842V842Z" stroke="#D7DDE8"/>
<path d="M1179 902C1179 902.265 1179.11 902.52 1179.29 902.707C1179.48 902.895 1179.73 903 1180 903C1180.27 903 1180.52 902.895 1180.71 902.707C1180.89 902.52 1181 902.265 1181 902C1181 901.735 1180.89 901.48 1180.71 901.293C1180.52 901.105 1180.27 901 1180 901C1179.73 901 1179.48 901.105 1179.29 901.293C1179.11 901.48 1179 901.735 1179 902V902Z" stroke="#D7DDE8"/>
<path d="M1186 956L1174 968L1186 956Z" stroke="#D7DDE8"/>
<path d="M1179 1022C1179 1022.27 1179.11 1022.52 1179.29 1022.71C1179.48 1022.89 1179.73 1023 1180 1023C1180.27 1023 1180.52 1022.89 1180.71 1022.71C1180.89 1022.52 1181 1022.27 1181 1022C1181 1021.73 1180.89 1021.48 1180.71 1021.29C1180.52 1021.11 1180.27 1021 1180 1021C1179.73 1021 1179.48 1021.11 1179.29 1021.29C1179.11 1021.48 1179 1021.73 1179 1022V1022Z" stroke="#D7DDE8"/>
<path d="M1235 722C1235 723.326 1235.53 724.598 1236.46 725.536C1237.4 726.473 1238.67 727 1240 727C1241.33 727 1242.6 726.473 1243.54 725.536C1244.47 724.598 1245 723.326 1245 722C1245 720.674 1244.47 719.402 1243.54 718.464C1242.6 717.527 1241.33 717 1240 717C1238.67 717 1237.4 717.527 1236.46 718.464C1235.53 719.402 1235 720.674 1235 722V722Z" stroke="#D7DDE8"/>
<path d="M1246 776L1234 788L1246 776Z" stroke="#D7DDE8"/>
<path d="M1270 812L1210 872L1270 812Z" stroke="#D7DDE8" stroke-width="3"/>
<path d="M1235 902C1235 903.326 1235.53 904.598 1236.46 905.536C1237.4 906.473 1238.67 907 1240 907C1241.33 907 1242.6 906.473 1243.54 905.536C1244.47 904.598 1245 903.326 1245 902C1245 900.674 1244.47 899.402 1243.54 898.464C1242.6 897.527 1241.33 897 1240 897C1238.67 897 1237.4 897.527 1236.46 898.464C1235.53 899.402 1235 900.674 1235 902V902Z" stroke="#D7DDE8"/>
<path d="M1235 962C1235 963.326 1235.53 964.598 1236.46 965.536C1237.4 966.473 1238.67 967 1240 967C1241.33 967 1242.6 966.473 1243.54 965.536C1244.47 964.598 1245 963.326 1245 962C1245 960.674 1244.47 959.402 1243.54 958.464C1242.6 957.527 1241.33 957 1240 957C1238.67 957 1237.4 957.527 1236.46 958.464C1235.53 959.402 1235 960.674 1235 962V962Z" stroke="#D7DDE8"/>
<path d="M1246 1016L1234 1028L1246 1016Z" stroke="#D7DDE8"/>
<path d="M1295 722C1295 723.326 1295.53 724.598 1296.46 725.536C1297.4 726.473 1298.67 727 1300 727C1301.33 727 1302.6 726.473 1303.54 725.536C1304.47 724.598 1305 723.326 1305 722C1305 720.674 1304.47 719.402 1303.54 718.464C1302.6 717.527 1301.33 717 1300 717C1298.67 717 1297.4 717.527 1296.46 718.464C1295.53 719.402 1295 720.674 1295 722V722Z" stroke="#D7DDE8"/>
<path d="M1302 780L1298 784L1302 780Z" stroke="#D7DDE8"/>
<path d="M1299 842C1299 842.265 1299.11 842.52 1299.29 842.707C1299.48 842.895 1299.73 843 1300 843C1300.27 843 1300.52 842.895 1300.71 842.707C1300.89 842.52 1301 842.265 1301 842C1301 841.735 1300.89 841.48 1300.71 841.293C1300.52 841.105 1300.27 841 1300 841C1299.73 841 1299.48 841.105 1299.29 841.293C1299.11 841.48 1299 841.735 1299 842V842Z" stroke="#D7DDE8"/>
<path d="M1297 902C1297 902.796 1297.32 903.559 1297.88 904.121C1298.44 904.684 1299.2 905 1300 905C1300.8 905 1301.56 904.684 1302.12 904.121C1302.68 903.559 1303 902.796 1303 902C1303 901.204 1302.68 900.441 1302.12 899.879C1301.56 899.316 1300.8 899 1300 899C1299.2 899 1298.44 899.316 1297.88 899.879C1297.32 900.441 1297 901.204 1297 902V902Z" stroke="#D7DDE8"/>
<path d="M1295 962C1295 963.326 1295.53 964.598 1296.46 965.536C1297.4 966.473 1298.67 967 1300 967C1301.33 967 1302.6 966.473 1303.54 965.536C1304.47 964.598 1305 963.326 1305 962C1305 960.674 1304.47 959.402 1303.54 958.464C1302.6 957.527 1301.33 957 1300 957C1298.67 957 1297.4 957.527 1296.46 958.464C1295.53 959.402 1295 960.674 1295 962V962Z" stroke="#D7DDE8"/>
<path d="M1295 1022C1295 1023.33 1295.53 1024.6 1296.46 1025.54C1297.4 1026.47 1298.67 1027 1300 1027C1301.33 1027 1302.6 1026.47 1303.54 1025.54C1304.47 1024.6 1305 1023.33 1305 1022C1305 1020.67 1304.47 1019.4 1303.54 1018.46C1302.6 1017.53 1301.33 1017 1300 1017C1298.67 1017 1297.4 1017.53 1296.46 1018.46C1295.53 1019.4 1295 1020.67 1295 1022V1022Z" stroke="#D7DDE8"/>
<path d="M1355 722C1355 723.326 1355.53 724.598 1356.46 725.536C1357.4 726.473 1358.67 727 1360 727C1361.33 727 1362.6 726.473 1363.54 725.536C1364.47 724.598 1365 723.326 1365 722C1365 720.674 1364.47 719.402 1363.54 718.464C1362.6 717.527 1361.33 717 1360 717C1358.67 717 1357.4 717.527 1356.46 718.464C1355.53 719.402 1355 720.674 1355 722V722Z" stroke="#D7DDE8"/>
<path d="M1357 782C1357 782.796 1357.32 783.559 1357.88 784.121C1358.44 784.684 1359.2 785 1360 785C1360.8 785 1361.56 784.684 1362.12 784.121C1362.68 783.559 1363 782.796 1363 782C1363 781.204 1362.68 780.441 1362.12 779.879C1361.56 779.316 1360.8 779 1360 779C1359.2 779 1358.44 779.316 1357.88 779.879C1357.32 780.441 1357 781.204 1357 782V782Z" stroke="#D7DDE8"/>
<path d="M1355 842C1355 843.326 1355.53 844.598 1356.46 845.536C1357.4 846.473 1358.67 847 1360 847C1361.33 847 1362.6 846.473 1363.54 845.536C1364.47 844.598 1365 843.326 1365 842C1365 840.674 1364.47 839.402 1363.54 838.464C1362.6 837.527 1361.33 837 1360 837C1358.67 837 1357.4 837.527 1356.46 838.464C1355.53 839.402 1355 840.674 1355 842V842Z" stroke="#D7DDE8"/>
<path d="M1362 900L1358 904L1362 900Z" stroke="#D7DDE8"/>
<path d="M1359 962C1359 962.265 1359.11 962.52 1359.29 962.707C1359.48 962.895 1359.73 963 1360 963C1360.27 963 1360.52 962.895 1360.71 962.707C1360.89 962.52 1361 962.265 1361 962C1361 961.735 1360.89 961.48 1360.71 961.293C1360.52 961.105 1360.27 961 1360 961C1359.73 961 1359.48 961.105 1359.29 961.293C1359.11 961.48 1359 961.735 1359 962V962Z" stroke="#D7DDE8"/>
<path d="M1355 1022C1355 1023.33 1355.53 1024.6 1356.46 1025.54C1357.4 1026.47 1358.67 1027 1360 1027C1361.33 1027 1362.6 1026.47 1363.54 1025.54C1364.47 1024.6 1365 1023.33 1365 1022C1365 1020.67 1364.47 1019.4 1363.54 1018.46C1362.6 1017.53 1361.33 1017 1360 1017C1358.67 1017 1357.4 1017.53 1356.46 1018.46C1355.53 1019.4 1355 1020.67 1355 1022V1022Z" stroke="#D7DDE8"/>
<path d="M1415 722C1415 723.326 1415.53 724.598 1416.46 725.536C1417.4 726.473 1418.67 727 1420 727C1421.33 727 1422.6 726.473 1423.54 725.536C1424.47 724.598 1425 723.326 1425 722C1425 720.674 1424.47 719.402 1423.54 718.464C1422.6 717.527 1421.33 717 1420 717C1418.67 717 1417.4 717.527 1416.46 718.464C1415.53 719.402 1415 720.674 1415 722V722Z" stroke="#D7DDE8"/>
<path d="M1426 776L1414 788L1426 776Z" stroke="#D7DDE8"/>
<path d="M1422 840L1418 844L1422 840Z" stroke="#D7DDE8"/>
<path d="M1422 900L1418 904L1422 900Z" stroke="#D7DDE8"/>
<path d="M1419 962C1419 962.265 1419.11 962.52 1419.29 962.707C1419.48 962.895 1419.73 963 1420 963C1420.27 963 1420.52 962.895 1420.71 962.707C1420.89 962.52 1421 962.265 1421 962C1421 961.735 1420.89 961.48 1420.71 961.293C1420.52 961.105 1420.27 961 1420 961C1419.73 961 1419.48 961.105 1419.29 961.293C1419.11 961.48 1419 961.735 1419 962V962Z" stroke="#D7DDE8"/>
<path d="M1415 1022C1415 1023.33 1415.53 1024.6 1416.46 1025.54C1417.4 1026.47 1418.67 1027 1420 1027C1421.33 1027 1422.6 1026.47 1423.54 1025.54C1424.47 1024.6 1425 1023.33 1425 1022C1425 1020.67 1424.47 1019.4 1423.54 1018.46C1422.6 1017.53 1421.33 1017 1420 1017C1418.67 1017 1417.4 1017.53 1416.46 1018.46C1415.53 1019.4 1415 1020.67 1415 1022V1022Z" stroke="#D7DDE8"/>
</g>
</svg>
