<svg width="396" height="391" viewBox="0 0 396 391" fill="none" xmlns="http://www.w3.org/2000/svg">
<path d="M301.065 23.4622C314.23 42.3088 298.794 72.8636 318.328 87.0377C337.344 100.835 360.704 78.2193 378.625 90.0962C405.21 107.715 400.355 188.334 361.486 238.424C349.797 253.488 340.03 259.349 335.705 276.385C326.416 312.967 359.061 334.728 352.849 352.821C338.861 393.559 123.741 427.743 37.4253 305.312C-2.8876 248.131 -8.91932 165.562 27.099 102.85C92.1837 -10.4697 271.525 -18.826 301.065 23.4622Z" fill="#F4F7FA"/>
<path d="M362.057 111.032C367.151 113.619 373.551 111.244 376.352 105.728C379.152 100.212 377.293 93.6443 372.199 91.0579C371.935 90.9239 371.666 90.8112 371.395 90.7035C372.342 87.6514 373.056 84.5754 373.534 81.4983C373.826 81.4973 374.119 81.4925 374.417 81.4659C380.229 80.9478 384.841 75.6074 384.72 69.5373C384.598 63.4671 379.788 58.9664 373.976 59.4845C373.672 59.5118 373.374 59.5596 373.077 59.6123C372.47 56.6041 371.638 53.6656 370.589 50.8216C370.856 50.6652 371.122 50.5035 371.382 50.3214C376.354 46.8379 377.944 39.9623 374.933 34.9644C371.922 29.9668 365.449 28.7394 360.477 32.2229C360.222 32.4016 359.983 32.5943 359.746 32.79C357.782 30.619 355.628 28.607 353.297 26.7707C353.461 26.502 353.621 26.2298 353.767 25.9442C356.567 20.4284 360.227 14.4031 355.093 11.8967C343.216 6.0991 338.12 11.0622 335.319 16.5782C335.174 16.8638 335.049 17.1539 334.929 17.4448C332.071 16.6468 329.176 16.0951 326.264 15.7907C326.282 15.4839 326.297 15.1768 326.29 14.8657C326.169 8.79581 327.97 5.51098 322.136 5.39745C309.414 5.1502 305.122 10.6719 305.244 16.7416C305.25 17.0589 305.277 17.3691 305.308 17.6772C302.393 18.5082 299.53 19.5706 296.743 20.8556C296.61 20.585 296.473 20.3158 296.316 20.0544C293.304 15.0567 286.832 13.8292 281.86 17.313C276.887 20.7969 275.298 27.6724 278.309 32.67C278.463 32.9261 278.632 33.1654 278.804 33.4018C276.602 35.6038 274.54 37.995 272.634 40.5604C272.388 40.4058 272.138 40.2547 271.874 40.1208C266.78 37.5343 260.38 39.9092 257.579 45.4251C254.779 50.9408 256.638 57.509 261.732 60.0954C261.996 60.2294 262.266 60.342 262.536 60.4499C261.589 63.5019 260.876 66.5779 260.397 69.6552C260.105 69.656 259.812 69.6608 259.515 69.6871C253.703 70.2054 249.09 75.5459 249.212 81.6161C249.333 87.6861 254.144 92.1867 259.956 91.6687C260.259 91.6418 260.558 91.594 260.854 91.5413C261.461 94.5494 262.293 97.4879 263.342 100.332C263.075 100.488 262.809 100.65 262.549 100.832C257.577 104.315 255.987 111.191 258.999 116.189C262.01 121.187 271.979 123.509 276.952 120.025C277.207 119.846 273.949 118.559 274.186 118.364C276.15 120.535 278.304 122.547 280.634 124.383C280.47 124.651 280.31 124.924 280.165 125.209C277.364 130.725 279.224 137.293 284.318 139.88C289.412 142.466 295.812 140.091 298.612 134.575C298.757 134.29 298.882 133.999 299.002 133.709C301.86 134.507 304.755 135.058 307.667 135.363C307.649 135.669 307.635 135.977 307.641 136.288C307.763 142.358 312.573 146.859 318.385 146.341C324.196 145.822 328.809 140.482 328.688 134.412C328.681 134.095 328.655 133.784 328.623 133.476C331.539 132.645 334.402 131.583 337.188 130.298C337.321 130.569 337.458 130.838 337.616 131.099C340.627 136.097 347.099 137.324 352.071 133.84C357.044 130.357 358.633 123.481 355.622 118.483C355.468 118.227 355.299 117.988 355.127 117.752C357.329 115.55 359.391 113.158 361.297 110.593C361.544 110.747 361.794 110.898 362.057 111.032ZM298.555 111.838C280.06 102.448 273.309 78.6004 283.477 58.5737C293.645 38.5467 316.881 29.9245 335.377 39.315C353.872 48.7057 360.623 72.5528 350.455 92.5797C340.287 112.606 317.051 121.229 298.555 111.838Z" fill="#AABBCC"/>
<path d="M374.417 81.466C380.229 80.9478 384.841 75.6071 384.72 69.5371C384.598 63.4671 379.788 58.966 373.976 59.4843C373.672 59.5114 373.374 59.5594 373.077 59.612C372.47 56.6038 371.638 53.6655 370.589 50.8216C370.856 50.6653 371.122 50.5035 371.382 50.3214C376.354 46.8379 382.506 38.4207 378.998 33.7583C372.34 24.9092 365.449 28.7396 360.477 32.223C360.222 32.4017 359.983 32.5941 359.746 32.79C357.782 30.619 355.628 28.6072 353.297 26.7707C353.461 26.502 353.621 26.23 353.767 25.9443C355.291 22.9425 355.425 19.6327 354.419 16.8189C349.616 25.2718 344.878 33.7603 340.225 42.295C354.98 53.1071 359.678 74.4145 350.455 92.58C342.639 107.973 327.103 116.617 311.934 115.534C311.257 117.289 310.592 119.053 309.868 120.791C307.901 125.507 305.667 130.127 303.431 134.74C304.837 135.006 306.25 135.214 307.667 135.363C307.649 135.669 307.635 135.977 307.641 136.288C307.763 142.358 311.448 147.515 321.981 146.956C327.808 146.647 328.809 140.482 328.687 134.412C328.681 134.095 328.655 133.784 328.623 133.476C331.538 132.645 334.402 131.583 337.188 130.298C337.321 130.569 337.458 130.838 337.616 131.099C340.627 136.097 351.073 138.22 356.046 134.736C361.018 131.253 358.633 123.481 355.622 118.483C355.468 118.227 355.299 117.988 355.127 117.752C357.329 115.55 359.391 113.158 361.297 110.593C361.543 110.748 361.793 110.899 362.057 111.033C367.151 113.619 373.551 111.244 376.352 105.728C379.152 100.213 377.293 93.6444 372.199 91.058C371.935 90.924 371.666 90.8114 371.395 90.7038C372.342 87.6516 373.055 84.5755 373.534 81.4987C373.826 81.4973 374.119 81.4924 374.417 81.466Z" fill="#AABBCC"/>
<path d="M367.537 111.655C372.631 114.242 379.03 111.867 381.831 106.351C384.631 100.835 382.772 94.2673 377.678 91.6809C377.414 91.5469 377.145 91.4342 376.875 91.3265C377.821 88.2744 378.535 85.1984 379.013 82.1213C379.305 82.1203 379.598 82.1155 379.896 82.0889C385.708 81.5709 390.321 76.2303 390.199 70.1603C390.077 64.0902 385.267 59.5892 379.455 60.1075C379.151 60.1348 378.853 60.1826 378.557 60.2353C377.949 57.2271 377.117 54.2887 376.068 51.4446C376.336 51.2882 376.602 51.1266 376.861 50.9444C381.834 47.4608 383.423 40.5853 380.412 35.5874C377.401 30.5897 370.929 29.3623 365.956 32.8459C365.701 33.0246 365.462 33.2173 365.225 33.413C363.261 31.2419 361.107 29.2298 358.776 27.3937C358.94 27.1252 359.101 26.8528 359.246 26.5672C362.046 21.0513 360.187 14.4833 355.093 11.8967C349.999 9.31048 343.599 11.6854 340.798 17.2012C340.653 17.4868 340.528 17.777 340.408 18.0678C337.55 17.2698 334.655 16.7182 331.743 16.4137C331.762 16.1069 331.776 15.7997 331.77 15.4887C331.648 9.41883 326.838 4.91795 321.026 5.43599C315.214 5.95403 310.601 11.2947 310.723 17.3646C310.729 17.6819 310.756 17.9921 310.787 18.3002C307.872 19.1312 305.009 20.1936 302.222 21.4786C302.09 21.208 301.952 20.9389 301.795 20.6775C298.784 15.6796 292.312 14.4523 287.339 17.936C282.367 21.4199 280.777 28.2951 283.789 33.293C283.943 33.5491 284.112 33.7885 284.283 34.0248C282.081 36.227 280.019 38.6182 278.114 41.1833C277.867 41.0288 277.617 40.8777 277.353 40.7439C272.259 38.1573 265.859 40.5322 263.059 46.0481C260.258 51.5638 262.118 58.132 267.212 60.7184C267.476 60.8523 267.745 60.965 268.015 61.0728C267.069 64.1249 266.355 67.2008 265.877 70.278C265.585 70.2787 265.292 70.2836 264.994 70.3098C259.182 70.8282 254.569 76.1687 254.691 82.2387C254.813 88.309 259.623 92.8094 265.435 92.2914C265.739 92.2645 266.037 92.2167 266.334 92.1639C266.941 95.1719 267.772 98.1105 268.822 100.955C268.555 101.111 268.288 101.272 268.029 101.455C263.057 104.938 261.467 111.814 264.478 116.811C267.489 121.809 273.962 123.037 278.934 119.553C279.188 119.375 279.428 119.182 279.665 118.986C281.629 121.157 283.783 123.169 286.113 125.005C285.95 125.274 285.789 125.546 285.644 125.832C282.844 131.348 284.703 137.916 289.797 140.502C294.891 143.089 301.291 140.714 304.091 135.198C304.236 134.912 304.361 134.622 304.482 134.331C307.339 135.129 310.235 135.681 313.147 135.985C313.128 136.292 313.114 136.599 313.12 136.91C313.242 142.98 318.052 147.481 323.864 146.963C329.676 146.445 334.289 141.104 334.167 135.034C334.161 134.717 334.134 134.407 334.103 134.099C337.018 133.268 339.881 132.206 342.668 130.92C342.8 131.191 342.938 131.46 343.095 131.721C346.107 136.719 352.579 137.947 357.551 134.463C362.523 130.979 364.113 124.104 361.102 119.106C360.948 118.85 360.779 118.611 360.607 118.374C362.809 116.172 364.871 113.781 366.776 111.216C367.023 111.371 367.272 111.521 367.537 111.655ZM304.034 112.461C285.539 103.071 278.788 79.2234 288.956 59.1964C299.124 39.1697 322.36 30.5475 340.856 39.9379C359.351 49.3283 366.102 73.1757 355.934 93.2026C345.766 113.229 322.529 121.852 304.034 112.461Z" fill="#D8DEE8"/>
<path d="M358.199 64.9492L40.1497 49.9536C36.4098 49.7773 33.3705 52.8318 33.3705 56.7765V333.655C33.3705 337.6 36.4097 340.623 40.1497 340.408L358.199 322.12C361.123 321.952 363.489 318.997 363.489 315.52V71.4938C363.489 68.0171 361.123 65.0873 358.199 64.9492Z" fill="url(#paint0_linear_1_1357)"/>
<path opacity="0.61" d="M40.5341 332.97V57.3882L41.3724 57.4254L358.071 71.4007V315.67L357.3 315.712L40.5341 332.97ZM42.151 59.3893V330.951L356.454 313.828V73.2589L42.151 59.3893Z" fill="white"/>
<g opacity="0.61">
<path d="M64.7757 297.995C63.0611 297.995 61.4193 297.26 60.1975 295.877C58.7021 294.185 58.1365 291.873 58.6456 289.535C66.0872 255.365 84.9732 241.07 95.5687 235.59L96.212 237.359C85.8869 242.699 67.4799 256.642 60.2108 290.02C59.8539 291.658 60.2549 293.283 61.3106 294.479C62.6291 295.971 64.6193 296.456 66.5049 295.744L93.1422 285.693C97.1455 284.183 100.442 280.942 102.186 276.802L107.114 265.103L108.558 265.968L103.631 277.667C101.692 282.269 98.0467 285.865 93.63 287.532L66.9927 297.582C66.2589 297.859 65.5104 297.995 64.7757 297.995Z" fill="white"/>
<path d="M206.124 292.019C205.6 292.019 205.074 291.941 204.557 291.78L180.064 284.169C175.875 282.867 172.412 279.612 170.561 275.238L165.577 263.459L167.02 262.59L172.004 274.37C173.646 278.249 176.733 281.141 180.472 282.303L204.965 289.914C206.548 290.405 208.255 289.856 209.422 288.48C210.472 287.24 210.882 285.609 210.546 284.006C204.026 252.85 187.111 240.359 177.609 235.687L178.225 233.904C183.006 236.255 190.078 240.753 196.622 248.831C203.985 257.921 209.198 269.598 212.115 283.539C212.586 285.786 212.004 288.145 210.559 289.85C209.37 291.254 207.761 292.019 206.124 292.019Z" fill="white"/>
<path d="M115.734 286.313C114.29 286.313 112.988 285.524 112.227 284.18C111.505 282.906 111.393 281.357 111.921 279.932L116.564 267.331L118.045 268.107L113.4 280.709C113.102 281.516 113.163 282.387 113.567 283.101C114.042 283.94 114.891 284.427 115.835 284.382L158.831 282.717C159.754 282.682 160.583 282.133 161.047 281.25C161.434 280.514 161.494 279.656 161.211 278.899L156.574 266.832L158.044 266.029L162.685 278.105C163.194 279.468 163.095 280.985 162.417 282.274C161.667 283.702 160.346 284.588 158.883 284.645L115.888 286.31C115.836 286.312 115.785 286.313 115.734 286.313Z" fill="white"/>
<path d="M135.7 270.893C126.632 270.893 117.389 269.182 108.022 265.758C106.741 265.289 105.711 264.296 105.122 262.96C100.477 252.428 77.5463 197.585 82.2749 152.092C86.3479 112.906 117.459 89.3859 130.646 81.0924C132.731 79.7809 134.394 78.8335 135.421 78.2699C136.403 77.731 136.925 77.4466 137.243 77.3215C137.292 77.2962 137.34 77.2755 137.401 77.2672C137.636 77.2022 137.732 77.2617 137.903 77.3669L137.896 77.3816C138.472 77.6291 139.609 78.3271 142.153 80.0368C147.912 83.9077 159.1 92.2527 169.319 104.651C181.775 119.762 188.955 136.101 190.661 153.215C195.016 196.913 173.541 250.759 169.192 261.109C168.65 262.4 167.707 263.409 166.536 263.952C156.553 268.578 146.245 270.893 135.7 270.893ZM137.492 79.2843C133.385 81.3803 88.7526 105.446 83.8796 152.329C79.2103 197.251 101.948 251.62 106.553 262.063C106.94 262.94 107.63 263.597 108.497 263.914C128.4 271.191 147.731 270.599 165.95 262.154C166.747 261.785 167.384 261.108 167.747 260.246C172.06 249.982 193.356 196.594 189.055 153.442C184.53 108.033 141.525 81.6255 137.525 79.2858L137.509 79.2945L137.492 79.2843Z" fill="white"/>
<path d="M137.068 219.257C126.748 219.257 116.837 214.535 109.809 206.252C103.421 198.723 99.9032 188.903 99.9032 178.6C99.9032 168.298 103.421 158.483 109.81 150.964C116.945 142.566 127.06 137.852 137.542 138.007C147.36 138.16 156.566 142.463 163.466 150.122C170.372 157.788 174.175 167.923 174.175 178.659C174.175 189.397 170.372 199.526 163.466 207.18C156.566 214.829 147.359 219.116 137.541 219.254C137.384 219.256 137.225 219.257 137.068 219.257ZM137.013 139.931C127.135 139.931 117.66 144.433 110.945 152.336C104.867 159.49 101.52 168.818 101.52 178.6C101.52 188.383 104.868 197.716 110.946 204.881C117.672 212.809 127.172 217.328 137.067 217.329C137.22 217.329 137.37 217.328 137.522 217.326C156.841 217.055 172.558 199.71 172.558 178.659C172.558 157.608 156.841 140.237 137.521 139.935C137.352 139.932 137.182 139.931 137.013 139.931Z" fill="white"/>
<path d="M137.241 211.263C128.948 211.263 120.98 207.458 115.34 200.793C110.223 194.747 107.405 186.868 107.405 178.607C107.405 170.345 110.223 162.47 115.34 156.432C121.049 149.696 129.153 145.897 137.54 145.999C145.433 146.099 152.841 149.54 158.397 155.689C163.964 161.85 167.03 170.005 167.03 178.654C167.03 187.303 163.964 195.454 158.397 201.605C152.84 207.745 145.433 211.174 137.539 211.261C137.44 211.262 137.34 211.263 137.241 211.263ZM137.197 147.925C129.343 147.925 121.808 151.513 116.477 157.802C111.669 163.475 109.022 170.864 109.022 178.606C109.022 186.349 111.669 193.742 116.477 199.423C121.882 205.809 129.546 209.419 137.524 209.333C152.902 209.164 165.413 195.401 165.413 178.654C165.413 161.905 152.902 148.122 137.523 147.927C137.415 147.926 137.305 147.925 137.197 147.925Z" fill="white"/>
<path d="M178.844 120.752L94.8725 118.809L94.9038 116.881L178.875 118.824L178.844 120.752Z" fill="white"/>
</g>
<path opacity="0.61" d="M41.3742 311.557L41.3109 309.631L357.231 294.852L357.294 296.779L41.3742 311.557Z" fill="white"/>
<path opacity="0.61" d="M233.982 301.62H232.365V321.899H233.982V301.62Z" fill="white"/>
<path opacity="0.61" d="M233.036 312.732L232.967 310.805L357.228 304.504L357.297 306.431L233.036 312.732Z" fill="white"/>
<path opacity="0.61" d="M255.837 300.598H254.22V310.652H255.837V300.598Z" fill="white"/>
<path opacity="0.61" d="M287.274 299.128H285.657V309.058H287.274V299.128Z" fill="white"/>
<path opacity="0.61" d="M265.481 83.4918L137.631 78.5933L137.652 77.8224L265.502 82.7209L265.481 83.4918Z" fill="white"/>
<path opacity="0.61" d="M212.121 292.179L212.098 291.408L265.638 289.126L265.661 289.897L212.121 292.179Z" fill="white"/>
<path opacity="0.61" d="M178.852 235.065L178.841 234.293L265.644 232.52L265.655 233.291L178.852 235.065Z" fill="white"/>
<path opacity="0.61" d="M265.644 122.198L178.84 120.189L178.853 119.418L265.656 121.427L265.644 122.198Z" fill="white"/>
<path opacity="0.61" d="M261.937 83.1506H261.291V289.491H261.937V83.1506Z" fill="white"/>
<path opacity="0.61" d="M173.492 218.217L173.396 218.109L117.892 155.066L118.338 154.508L173.747 217.442L233.342 216.607L233.35 217.378L173.492 218.217Z" fill="white"/>
<path opacity="0.45" d="M343.769 91.1449L281.666 88.8919V83.9174L343.769 86.2922V91.1449Z" fill="white"/>
<path opacity="0.45" d="M343.769 98.9836L281.666 96.9277V91.9532L343.769 94.131V98.9836Z" fill="white"/>
<path opacity="0.45" d="M343.769 106.822L281.666 104.963V99.989L343.769 101.97V106.822Z" fill="white"/>
<path opacity="0.45" d="M343.769 151.616L281.666 150.882V145.907L343.769 146.763V151.616Z" fill="white"/>
<path opacity="0.45" d="M343.769 159.454L281.666 158.918V153.943L343.769 154.602V159.454Z" fill="white"/>
<path opacity="0.45" d="M343.769 167.293L281.666 166.953V161.979L343.769 162.441V167.293Z" fill="white"/>
<path opacity="0.45" d="M343.769 120.634L310.189 119.816V114.898L343.769 115.781V120.634Z" fill="white"/>
<path opacity="0.45" d="M343.769 128.472L310.189 127.761V122.843L343.769 123.62V128.472Z" fill="white"/>
<path opacity="0.45" d="M343.769 136.311L310.189 135.707V130.788L343.769 131.459V136.311Z" fill="white"/>
<path opacity="0.61" d="M281.343 289.037V179.578L344.093 179.599V286.367L281.343 289.037ZM281.99 180.35V288.238L343.446 285.623V180.37L281.99 180.35Z" fill="white"/>
<path opacity="0.61" d="M281.668 196.803L281.664 196.032L343.767 195.65L343.771 196.421L281.668 196.803Z" fill="white"/>
<path opacity="0.61" d="M281.669 205.222L281.664 204.451L343.767 203.862L343.772 204.633L281.669 205.222Z" fill="white"/>
<path opacity="0.61" d="M281.67 213.64L281.663 212.869L343.766 212.074L343.773 212.845L281.67 213.64Z" fill="white"/>
<path opacity="0.61" d="M281.671 222.059L281.662 221.287L343.765 220.286L343.774 221.057L281.671 222.059Z" fill="white"/>
<path opacity="0.61" d="M281.672 230.477L281.661 229.706L343.764 228.498L343.774 229.269L281.672 230.477Z" fill="white"/>
<path opacity="0.61" d="M281.673 246.549L281.659 245.777L343.762 244.176L343.776 244.947L281.673 246.549Z" fill="white"/>
<path opacity="0.61" d="M281.674 254.967L281.658 254.196L343.761 252.388L343.777 253.159L281.674 254.967Z" fill="white"/>
<path opacity="0.61" d="M281.675 263.385L281.657 262.614L343.76 260.6L343.778 261.371L281.675 263.385Z" fill="white"/>
<path opacity="0.61" d="M281.676 271.804L281.657 271.033L343.759 268.812L343.779 269.583L281.676 271.804Z" fill="white"/>
<path opacity="0.61" d="M281.677 280.222L281.656 279.451L343.759 277.024L343.78 277.795L281.677 280.222Z" fill="white"/>
<path opacity="0.61" d="M301.729 179.97H301.083V287.987H301.729V179.97Z" fill="white"/>
<path opacity="0.45" d="M256.551 185.172L253.165 185.178V174.537L256.551 174.545V185.172Z" fill="white"/>
<path opacity="0.45" d="M256.551 268.645L253.165 268.761V258.12L256.551 258.018V268.645Z" fill="white"/>
<path opacity="0.45" d="M229.207 211.973L205.853 212.255V205.555L229.207 205.334V211.973Z" fill="white"/>
<path opacity="0.49" d="M279.723 171.924L145.116 172.198C144.343 172.2 143.988 171.052 144.576 170.454L160.183 154.607L160.04 84.5028C160.035 81.6742 162.024 79.4313 164.481 79.4933L279.541 82.3953C281.817 82.4526 283.684 84.7207 283.689 87.4354L283.851 166.981C283.857 169.706 282.008 171.92 279.723 171.924Z" fill="white"/>
<path d="M197.368 96.1033L171.063 95.5631L171.056 91.8745L197.361 92.4432L197.368 96.1033Z" fill="#D8DEE8"/>
<path d="M197.383 103.423L171.078 102.94L171.071 99.2517L197.376 99.7633L197.383 103.423Z" fill="#D8DEE8"/>
<path d="M197.407 114.952L171.102 114.559L171.094 110.871L197.399 111.292L197.407 114.952Z" fill="#D8DEE8"/>
<path d="M197.422 122.272L171.117 121.937L171.109 118.248L197.414 118.612L197.422 122.272Z" fill="#D8DEE8"/>
<path d="M273.542 152.935L171.179 152.552L171.172 148.864L273.534 149.358L273.542 152.935Z" fill="#D8DEE8"/>
<path d="M273.556 160.09L171.194 159.93L171.187 156.241L273.549 156.512L273.556 160.09Z" fill="#D8DEE8"/>
<path d="M197.445 133.801L171.141 133.556L171.133 129.867L197.438 130.142L197.445 133.801Z" fill="#D8DEE8"/>
<path d="M197.46 141.122L171.156 140.933L171.148 137.245L197.453 137.461L197.46 141.122Z" fill="#D8DEE8"/>
<path d="M273.519 142.038L207.28 141.571L207.18 92.6553L207.831 92.6693L207.929 140.817L273.518 141.295L273.519 142.038Z" fill="#D8DEE8"/>
<path d="M216.482 127.997L216.019 127.461L229.651 111.375L242.968 117.013L255.952 104.052L268.956 112.107L268.673 112.766L256.044 104.947L243.107 117.865L229.826 112.246L216.482 127.997Z" fill="#D8DEE8"/>
<path d="M218.482 127.754C218.485 129.194 217.488 130.351 216.256 130.338C215.023 130.325 214.02 129.146 214.017 127.704C214.014 126.263 215.012 125.106 216.245 125.121C217.478 125.136 218.479 126.315 218.482 127.754Z" fill="url(#paint1_linear_1_1357)"/>
<path d="M231.952 111.846C231.955 113.28 230.967 114.427 229.744 114.408C228.521 114.39 227.526 113.211 227.523 111.775C227.52 110.339 228.51 109.192 229.734 109.213C230.956 109.233 231.949 110.412 231.952 111.846Z" fill="url(#paint2_linear_1_1357)"/>
<path d="M245.233 117.471C245.236 118.899 244.256 120.043 243.043 120.027C241.83 120.01 240.843 118.837 240.84 117.407C240.837 115.978 241.819 114.833 243.033 114.852C244.245 114.87 245.23 116.043 245.233 117.471Z" fill="url(#paint3_linear_1_1357)"/>
<path d="M258.176 104.539C258.179 105.962 257.206 107.098 256.003 107.077C254.799 107.056 253.82 105.884 253.817 104.459C253.814 103.035 254.788 101.899 255.993 101.922C257.196 101.945 258.173 103.117 258.176 104.539Z" fill="url(#paint4_linear_1_1357)"/>
<path d="M270.976 112.471C270.979 113.888 270.014 115.022 268.82 115.004C267.625 114.986 266.653 113.821 266.65 112.402C266.647 110.983 267.614 109.849 268.809 109.869C270.003 109.889 270.973 111.054 270.976 112.471Z" fill="url(#paint5_linear_1_1357)"/>
<path d="M245.15 328.113C244.731 328.113 244.391 327.773 244.391 327.353V212.403C244.391 211.984 244.731 211.644 245.15 211.644C245.57 211.644 245.91 211.984 245.91 212.403V327.353C245.91 327.773 245.57 328.113 245.15 328.113Z" fill="#A2A7AE"/>
<path d="M306.908 325.749C306.488 325.749 306.148 325.41 306.148 324.99V212.403C306.148 211.984 306.488 211.644 306.908 211.644C307.327 211.644 307.667 211.984 307.667 212.403V324.99C307.667 325.41 307.327 325.749 306.908 325.749Z" fill="#A2A7AE"/>
<path d="M300.672 341.586C300.342 341.586 300.039 341.371 299.943 341.039L262.857 213.647C262.74 213.245 262.972 212.823 263.374 212.706C263.779 212.587 264.199 212.82 264.316 213.223L301.401 340.615C301.518 341.017 301.287 341.439 300.884 341.556C300.813 341.576 300.742 341.586 300.672 341.586Z" fill="#FAFBFC"/>
<path d="M358.044 335.325C357.721 335.325 357.421 335.117 357.32 334.792L319.322 213.662C319.196 213.262 319.419 212.836 319.819 212.71C320.218 212.584 320.645 212.807 320.771 213.208L358.769 334.338C358.894 334.738 358.672 335.164 358.271 335.29C358.196 335.314 358.119 335.325 358.044 335.325Z" fill="#FAFBFC"/>
<path d="M322.226 213.538L263.074 214.57L244.121 213.538V211.269L288.196 210.542L322.226 211.269V213.538Z" fill="#D8DEE8"/>
<path d="M322.226 213.538L263.074 214.57V212.3L322.226 211.269V213.538Z" fill="url(#paint6_linear_1_1357)"/>
<path d="M271.594 241.703C271.191 241.703 270.855 241.386 270.837 240.979C270.817 240.559 271.142 240.204 271.561 240.185L327.286 237.662C327.702 237.642 328.06 237.967 328.079 238.386C328.098 238.805 327.773 239.16 327.354 239.179L271.629 241.703C271.618 241.703 271.606 241.703 271.594 241.703Z" fill="#FAFBFC"/>
<path d="M278.967 267.028C278.566 267.028 278.231 266.714 278.209 266.31C278.186 265.891 278.507 265.533 278.926 265.51L335.596 262.437C336.009 262.403 336.372 262.735 336.395 263.154C336.418 263.573 336.097 263.93 335.678 263.953L279.008 267.027C278.994 267.028 278.98 267.028 278.967 267.028Z" fill="#FAFBFC"/>
<path d="M286.296 292.207C285.898 292.207 285.564 291.898 285.539 291.495C285.513 291.077 285.832 290.717 286.25 290.69L343.33 287.156C343.742 287.137 344.109 287.448 344.135 287.867C344.161 288.285 343.842 288.645 343.424 288.671L286.344 292.206C286.328 292.207 286.312 292.207 286.296 292.207Z" fill="#FAFBFC"/>
<path d="M293.585 317.243C293.19 317.243 292.857 316.938 292.828 316.538C292.798 316.12 293.112 315.756 293.531 315.726L350.959 311.562C351.376 311.529 351.741 311.846 351.772 312.265C351.802 312.683 351.487 313.047 351.069 313.077L293.64 317.241C293.622 317.242 293.603 317.243 293.585 317.243Z" fill="#FAFBFC"/>
<path d="M292.507 208.973C293.186 210.056 293.08 210.563 292.963 210.794C292.621 211.47 291.575 210.974 289.039 211.547C288.742 211.614 288.175 211.752 287.44 211.658C286.811 211.577 286.052 211.326 286.066 211.158C286.071 211.097 286.178 211.062 286.218 211.049C286.915 210.822 291.232 208.987 291.232 208.987L292.507 208.973Z" fill="url(#paint7_linear_1_1357)"/>
<path d="M292.587 206.427L292.455 209.021C292.455 209.021 291.44 209.911 291.054 209C290.776 208.345 290.591 206.521 290.591 206.521L292.587 206.427Z" fill="url(#paint8_linear_1_1357)"/>
<path d="M279.774 205.723L281.157 208.549L282.695 208.137L282.048 205.453L279.774 205.723Z" fill="url(#paint9_linear_1_1357)"/>
<path d="M281.813 210.117C282.477 209.139 283.161 209.15 283.233 208.519C283.289 208.022 282.93 207.459 282.458 207.279C281.795 207.028 281.084 207.603 280.923 207.733C279.832 208.617 280.275 209.774 279.225 210.406C279.014 210.533 278.673 210.68 278.338 211.066C278.196 211.231 277.844 211.637 277.962 211.88C278.098 212.16 278.793 212.077 279.454 211.998C280.247 211.904 280.644 211.857 281 211.578C281.495 211.193 281.301 210.871 281.813 210.117Z" fill="url(#paint10_linear_1_1357)"/>
<path d="M294.574 144.501C294.906 150.468 294.585 155.624 294.05 159.857C293.475 164.41 292.987 165.229 292.948 168.348C292.864 175.134 295.114 175.918 296.143 183.495C297.28 191.862 295.599 198.727 294.932 201.347C294.348 203.638 293.694 205.503 293.193 206.803C292.478 207.538 291.278 207.378 290.015 207.228C288.926 199.644 287.761 192.518 286.671 184.934C284.245 173.59 281.819 162.246 279.393 150.902C284.454 148.768 289.514 146.635 294.574 144.501Z" fill="url(#paint11_linear_1_1357)"/>
<path opacity="0.3" d="M290.015 207.228C288.926 199.644 287.761 192.518 286.671 184.934C284.245 173.59 281.819 162.246 279.393 150.902C284.454 148.768 289.514 146.635 294.574 144.501C294.596 144.896 294.608 145.277 294.624 145.666C287.852 152.608 286.84 157.747 287.195 161.165C287.626 165.311 290.067 167.182 290.123 173.241C290.163 177.573 288.931 178.438 289.254 182.324C289.669 187.327 292.05 189.962 293.335 192.766C294.577 195.476 295.265 199.404 293.779 205.195C293.571 205.798 293.372 206.338 293.192 206.803C292.478 207.538 291.278 207.378 290.015 207.228Z" fill="url(#paint12_linear_1_1357)"/>
<path d="M285.841 147.678C282.551 154.452 280.849 159.71 279.956 162.944C279.411 164.917 278.939 166.964 279.007 169.592C279.091 172.811 279.946 175.391 280.638 177.031C281.621 179.124 282.557 181.582 283.248 184.39C285.492 193.495 283.97 201.397 282.648 205.978C281.752 206.397 280.856 206.816 279.959 207.235C277.38 201.551 274.127 193.454 271.436 183.359C269.966 177.846 268.834 173.52 268.364 167.946C267.869 162.065 267.935 152.694 271.825 141.182C276.497 143.347 281.169 145.513 285.841 147.678Z" fill="url(#paint13_linear_1_1357)"/>
<path d="M279.484 96.9501C273.689 98.4472 269.301 99.869 267.558 103.114C265.717 106.541 269.275 108.711 270.779 115.77C273.082 126.578 267.139 131.18 269.858 142.029C270.774 145.685 272.272 148.447 273.28 150.078C275.308 151.47 278.503 153.334 282.718 154.428C288.852 156.019 291.692 154.563 299.75 154.357C312.931 154.019 315.21 157.661 320.943 154.83C326.737 151.969 330.543 145.22 329.046 142.595C328.15 141.023 325.834 142.243 322.226 140.521C317.575 138.301 318.028 134.708 314.177 131.978C308.647 128.056 304.038 132.862 299.302 129.445C294.512 125.988 293.207 116.726 294.649 111.027C295.591 107.306 295.287 103.368 295.901 99.5786C295.952 99.2638 295.972 98.7666 295.734 98.2245C294.824 96.1512 290.885 96.0651 287.909 96.0279C283.372 95.971 279.961 96.8269 279.484 96.9501Z" fill="url(#paint14_linear_1_1357)"/>
<path opacity="0.3" d="M319.912 150.744C317.995 149.684 318.694 146.172 315.853 144.573C313.216 143.09 311.452 145.462 307.679 144.639C302.84 143.583 302.71 139.019 298.067 137.944C294.729 137.171 293.919 139.328 289.236 139.806C284.56 140.284 278.261 138.86 273.962 134.218C272.136 132.246 271.026 130.072 270.351 128.033C269.434 132.182 268.399 136.206 269.858 142.029C270.774 145.685 272.272 148.447 273.28 150.078C275.309 151.47 278.503 153.334 282.718 154.428C288.852 156.019 291.692 154.563 299.75 154.357C312.931 154.019 315.21 157.661 320.943 154.83C324.646 153.001 327.529 149.587 328.742 146.674C323.87 150.876 321.303 151.513 319.912 150.744Z" fill="url(#paint15_linear_1_1357)"/>
<path d="M275.245 87.0576C275.245 87.0576 273.877 90.2332 273.952 92.3755C274.027 94.5179 276.422 94.1631 276.422 94.1631L276.443 95.5168C276.461 96.6725 275.798 97.7304 274.75 98.2175L273.828 98.6459C273.828 98.6459 280.141 99.4599 283.329 96.786L282.345 96.7714C280.952 96.7507 279.766 95.7509 279.511 94.381L279.404 93.8097C279.404 93.8097 279.929 87.0687 275.245 87.0576Z" fill="url(#paint16_linear_1_1357)"/>
<path d="M268.92 121.72L259.482 105.44C259.365 105.239 259.131 105.138 258.905 105.191L245.7 108.277C245.347 108.359 245.18 108.764 245.372 109.071L256.325 126.583C256.456 126.794 256.718 126.884 256.952 126.8L268.557 122.608L268.92 121.72Z" fill="url(#paint17_linear_1_1357)"/>
<path d="M266.598 119.873L258.956 106.69C258.862 106.528 258.672 106.446 258.489 106.488L247.797 108.987C247.512 109.054 247.376 109.381 247.532 109.63L256.4 123.81C256.506 123.98 256.718 124.053 256.907 123.985L266.305 120.591L266.598 119.873Z" fill="url(#paint18_linear_1_1357)"/>
<path d="M256.701 106.842L256.094 105.785C256.01 105.638 255.84 105.563 255.674 105.6L250.175 106.837C249.919 106.894 249.794 107.184 249.926 107.409L250.601 108.559C250.687 108.706 250.86 108.779 251.026 108.739L256.458 107.409C256.708 107.348 256.829 107.065 256.701 106.842Z" fill="url(#paint19_linear_1_1357)"/>
<path d="M249.497 111.375C249.506 111.374 249.514 111.372 249.523 111.37L259.205 109.085C259.325 109.057 259.399 108.937 259.371 108.817C259.342 108.697 259.218 108.625 259.103 108.652L249.42 110.937C249.301 110.965 249.226 111.085 249.254 111.205C249.281 111.316 249.387 111.388 249.497 111.375Z" fill="white"/>
<path d="M250.104 112.313C250.114 112.312 250.123 112.31 250.132 112.308L259.755 109.933C259.875 109.904 259.948 109.783 259.918 109.663C259.889 109.543 259.769 109.471 259.648 109.5L250.025 111.875C249.906 111.904 249.833 112.025 249.862 112.145C249.889 112.255 249.995 112.326 250.104 112.313Z" fill="white"/>
<path d="M255.181 113.358C255.192 113.356 255.203 113.354 255.214 113.351L260.446 111.908C260.565 111.875 260.634 111.752 260.601 111.633C260.569 111.515 260.444 111.445 260.327 111.478L255.095 112.921C254.976 112.954 254.907 113.077 254.94 113.196C254.969 113.303 255.073 113.37 255.181 113.358Z" fill="white"/>
<path d="M253.644 122.297C253.644 122.297 251.309 121.042 250.945 120.023C250.581 119.004 250.44 117.03 250.44 117.03L252 119.669C252 119.669 252.596 119.428 252.765 118.488C252.934 117.547 253.469 118.336 253.361 119.045C253.252 119.754 253.644 122.297 253.644 122.297Z" fill="url(#paint20_linear_1_1357)"/>
<path d="M268.493 101.974C267.415 102.796 265.807 104.209 264.48 106.356C260.703 112.466 263.035 118.311 259.645 120.819C258.676 121.536 256.914 122.22 253.519 121.404L252.334 122.203C252.334 122.203 251.616 130.159 261.113 129.461C270.61 128.763 274.097 116.502 274.097 116.502L268.493 101.974Z" fill="url(#paint21_linear_1_1357)"/>
<path d="M276.465 90.0015C276.784 89.9483 277.015 89.5197 277.244 89.6225C277.485 89.7298 277.509 90.3247 277.343 90.7574C277.207 91.112 276.955 91.327 276.813 91.4293C277.089 91.7512 277.449 92.2576 277.638 92.9439C278.056 94.4614 277.339 95.7693 277.059 96.523C275.794 99.9211 278.612 104.894 281.452 107.288C283.759 109.234 284.683 108.298 286.099 109.926C288.856 113.095 285.745 117.087 287.402 121.523C289.922 128.267 300.997 129.417 301.456 129.46C301.636 129.476 301.758 129.486 301.945 129.5C306.901 129.872 314.413 130.435 319.302 125.987C322.959 122.66 324.317 117.283 323.64 112.703C323.462 111.498 322.714 106.93 318.656 103.488C318.012 102.942 314.199 99.7147 309.437 100.066C306.915 100.253 306.48 101.183 304.507 100.794C301.806 100.261 299.982 97.9963 298.85 96.5917C296.768 94.008 297.474 93.361 296.028 92.1252C293.194 89.7043 290.298 92.0299 287.313 89.9335C284.37 87.8672 285.772 84.6166 282.95 82.8507C280.039 81.0296 274.855 82.1795 273.939 84.7115C273.152 86.8869 275.489 90.1641 276.465 90.0015Z" fill="url(#paint22_linear_1_1357)"/>
<path opacity="0.75" d="M115.499 50.2948C115.499 24.608 93.6303 3.78476 66.6535 3.78476C39.6767 3.78476 17.8077 24.608 17.8077 50.2948C17.8077 65.8834 25.8625 79.6802 38.2252 88.1191C43.47 91.6992 46.6507 97.5999 46.6507 103.95V107.509C46.6507 115.243 52.9199 121.512 60.6532 121.512H72.6537C80.3869 121.512 86.6561 115.243 86.6561 107.509V103.95C86.6561 97.5999 89.8369 91.6992 95.0816 88.1191C107.444 79.6804 115.499 65.8834 115.499 50.2948Z" fill="#F4F7FA"/>
<path d="M66.6535 147.986C72.6376 147.986 77.4888 145.417 77.4888 142.249C77.4888 139.081 72.6376 136.512 66.6535 136.512C60.6693 136.512 55.8181 139.081 55.8181 142.249C55.8181 145.417 60.6693 147.986 66.6535 147.986Z" fill="#AABBCC"/>
<path d="M52.2573 132.001V137.859C52.2573 139.841 53.3852 141.657 55.1742 142.511C57.6579 143.695 61.7872 144.995 67.7884 144.841C72.6569 144.716 75.8315 143.921 77.85 143.086C79.7998 142.279 81.0496 140.351 81.0496 138.241V134.999L52.2573 132.001Z" fill="url(#paint23_linear_1_1357)"/>
<path d="M52.2573 137.133C52.6962 137.559 53.2044 137.921 53.7751 138.193C56.5614 139.522 74.8122 142.491 79.2146 140.837C79.7864 140.622 80.3007 140.335 80.7512 139.988C80.9438 139.435 81.0496 138.846 81.0496 138.241V134.999L52.2573 132.001V137.133Z" fill="#AABBCC"/>
<path d="M53.5356 128.015C51.9141 127.847 50.5028 129.119 50.5028 130.749V130.915C50.5028 133.138 51.7682 135.176 53.7753 136.133C56.5616 137.462 74.8123 140.431 79.2148 138.776C81.4309 137.944 82.8045 136.041 82.8045 133.674V133.54C82.8045 132.133 81.7409 130.952 80.341 130.807L53.5356 128.015Z" fill="url(#paint24_linear_1_1357)"/>
<path d="M80.3407 130.807L53.5356 128.015C52.4781 127.905 51.5129 128.41 50.9673 129.225C51.5058 130.494 52.4862 131.555 53.7751 132.17C56.5614 133.499 75.5895 136.855 79.2146 135.147C80.6258 134.482 81.7324 133.359 82.3254 131.995C81.8836 131.347 81.1727 130.893 80.3407 130.807Z" fill="#BFC8D6"/>
<path d="M52.4869 118.524C51.3912 118.524 50.5028 119.413 50.5028 120.508V125.097C50.5028 127.32 51.7682 129.357 53.7753 130.315C56.5616 131.644 75.5897 135 79.2148 133.291C81.3563 132.282 82.8045 130.223 82.8045 127.855V120.508C82.8045 119.413 81.9161 118.524 80.8205 118.524H52.4869Z" fill="url(#paint25_linear_1_1357)"/>
<path d="M66.6535 123.677C75.3526 123.677 82.4047 122.009 82.4047 119.953C82.4047 117.896 75.3526 116.229 66.6535 116.229C57.9543 116.229 50.9022 117.896 50.9022 119.953C50.9022 122.009 57.9543 123.677 66.6535 123.677Z" fill="#BFC8D6"/>
<path d="M115.499 50.2948C115.499 24.608 93.6303 3.78476 66.6535 3.78476C39.6767 3.78476 17.8077 24.608 17.8077 50.2948C17.8077 65.8834 25.8625 79.6802 38.2252 88.1191C43.47 91.6992 46.6507 97.5999 46.6507 103.95V107.509C46.6507 115.243 52.9199 121.512 60.6532 121.512H72.6537C80.3869 121.512 86.6561 115.243 86.6561 107.509V103.95C86.6561 97.5999 89.8369 91.6992 95.0816 88.1191C107.444 79.6804 115.499 65.8834 115.499 50.2948Z" fill="url(#paint26_linear_1_1357)"/>
<path opacity="0.5" d="M78.1789 117.016C78.1789 118.521 73.0189 119.741 66.6534 119.741C60.2881 119.741 55.1278 118.521 55.1278 117.016C55.1278 115.511 60.288 114.291 66.6534 114.291C73.0189 114.291 78.1789 115.511 78.1789 117.016Z" fill="#F4F7FA"/>
<path d="M63.6501 118.681C63.32 118.681 63.0335 118.436 62.9902 118.1L54.5113 52.1614C54.4645 51.7966 54.7222 51.4629 55.0871 51.4161C55.4526 51.3669 55.7856 51.6269 55.8326 51.9916L64.3115 117.93C64.3584 118.295 64.1006 118.629 63.7358 118.676C63.7069 118.68 63.6783 118.681 63.6501 118.681Z" fill="url(#paint27_linear_1_1357)"/>
<path d="M68.9165 118.681C68.8882 118.681 68.8596 118.68 68.8309 118.676C68.4661 118.629 68.2083 118.295 68.2551 117.93L76.7342 51.9917C76.7812 51.6269 77.1145 51.3667 77.4797 51.4162C77.8446 51.463 78.1023 51.7967 78.0555 52.1616L69.5764 118.1C69.5331 118.436 69.2466 118.681 68.9165 118.681Z" fill="url(#paint28_linear_1_1357)"/>
<path d="M75.8219 52.1082C75.6055 52.1082 75.393 52.0029 75.2651 51.8086L72.9251 48.2586C72.901 48.2222 72.864 48.201 72.83 48.2052C72.772 48.2065 72.7475 48.2478 72.7395 48.2612L71.1945 50.849C70.9384 51.2776 70.4896 51.5411 69.9937 51.5534C69.5009 51.5694 69.0353 51.3248 68.7575 50.9085L66.636 47.7278C66.6129 47.6934 66.5821 47.6756 66.5443 47.6751C66.4992 47.6836 66.4782 47.6911 66.4556 47.7236L64.5919 50.4174C64.3228 50.8068 63.8816 51.0396 63.4115 51.0406H63.4085C62.9386 51.0406 62.4965 50.809 62.2254 50.4204L59.5386 46.5714C59.5144 46.5366 59.4803 46.5246 59.4439 46.5209C59.4055 46.5226 59.3755 46.5421 59.3543 46.5785L56.9019 50.8118C56.7178 51.1298 56.3099 51.2385 55.9919 51.0542C55.6734 50.8697 55.5649 50.4623 55.7494 50.144L58.2016 45.9105C58.451 45.4802 58.8945 45.211 59.3878 45.1902C59.8773 45.1653 60.3461 45.401 60.6309 45.8092L63.3175 49.6582C63.3408 49.6914 63.3714 49.7086 63.4084 49.7086H63.4085C63.4447 49.7083 63.4742 49.6921 63.4967 49.6598L65.3603 46.9661C65.633 46.5722 66.082 46.3379 66.5558 46.3433C67.0331 46.3475 67.4775 46.5889 67.7446 46.9892L69.8658 50.1695C69.8896 50.2053 69.9255 50.2352 69.9607 50.2219C70.0184 50.2206 70.0428 50.1796 70.0508 50.1662L71.5958 47.5784C71.8528 47.1481 72.3032 46.8846 72.8006 46.8737C73.293 46.8628 73.761 47.1066 74.0373 47.5259L76.3774 51.076C76.5798 51.383 76.495 51.796 76.1878 51.9986C76.0749 52.0727 75.9478 52.1082 75.8219 52.1082Z" fill="url(#paint29_linear_1_1357)"/>
<path opacity="0.3" d="M67.54 86.9804C68.5864 69.0539 98.8071 64.8585 98.6776 48.8491C98.5979 38.989 86.589 31.6664 84.0246 30.1998C65.1289 19.3926 41.8715 31.8725 37.0683 23.0398C35.8724 20.8406 36.4331 18.4467 36.7524 17.0834C37.2349 15.0229 38.3276 13.1038 39.9487 11.3484C26.6174 19.6532 17.8077 33.9933 17.8077 50.2948C17.8077 65.8834 25.8625 79.6804 38.2252 88.1191C43.47 91.6992 46.6507 97.6 46.6507 103.95V107.509C46.6507 115.243 52.9199 121.512 60.6532 121.512H72.6537C80.3869 121.512 86.6561 115.243 86.6561 107.509V104.664C85.0044 105.93 83.1075 106.812 81.0273 106.795C73.8099 106.736 67.0193 95.9011 67.54 86.9804Z" fill="url(#paint30_linear_1_1357)"/>
<path opacity="0.44" d="M67.4347 92.6442C90.6487 92.6442 109.467 74.4956 109.467 52.1082C109.467 29.7207 90.6487 11.5721 67.4347 11.5721C44.2207 11.5721 25.402 29.7207 25.402 52.1082C25.402 74.4956 44.2207 92.6442 67.4347 92.6442Z" fill="#F4F7FA"/>
<path d="M30.3178 363.916C20.6705 358.831 16.959 342.696 17.6912 331.448C18.5461 318.315 25.1152 317.113 24.9854 306.848C24.7434 287.736 1.87284 284.064 0.100497 264.809C-1.34835 249.068 13.3866 245.549 10.989 228.191C9.2588 215.665 0.754911 211.477 2.84192 200.078C3.02035 199.104 5.09516 188.622 13.3636 185.157C21.7091 181.66 31.4831 187.356 36.5947 192.304C46.0433 201.45 40.9704 209.407 48.1922 224.36C58.0247 244.718 73.248 242.02 77.3893 258.507C80.8091 272.121 71.2174 277.1 75.3092 292.12C79.1088 306.067 88.7604 306.841 90.4175 316.469C94.2299 338.618 49.9958 374.289 30.3178 363.916Z" fill="url(#paint31_linear_1_1357)"/>
<mask id="mask0_1_1357" style="mask-type:luminance" maskUnits="userSpaceOnUse" x="0" y="184" width="91" height="182">
<path d="M30.3178 363.916C20.6705 358.831 16.959 342.696 17.6912 331.448C18.5461 318.315 25.1152 317.113 24.9854 306.848C24.7434 287.736 1.87284 284.064 0.100497 264.809C-1.34835 249.068 13.3866 245.549 10.989 228.191C9.2588 215.665 0.754911 211.477 2.84192 200.078C3.02035 199.104 5.09516 188.622 13.3636 185.157C21.7091 181.66 31.4831 187.356 36.5947 192.304C46.0433 201.45 40.9704 209.407 48.1922 224.36C58.0247 244.718 73.248 242.02 77.3893 258.507C80.8091 272.121 71.2174 277.1 75.3092 292.12C79.1088 306.067 88.7604 306.841 90.4175 316.469C94.2299 338.618 49.9958 374.289 30.3178 363.916Z" fill="white"/>
</mask>
<g mask="url(#mask0_1_1357)">
<path opacity="0.7" d="M44.3812 372.697C44.2957 372.697 44.2114 372.659 44.155 372.586C44.058 372.461 44.0804 372.281 44.2055 372.184C51.7931 366.286 57.8135 359.06 62.0994 350.706C66.1572 342.796 70.3535 334.617 68.728 325.379C67.5009 318.406 63.7072 315.048 58.9041 310.797C54.2022 306.636 48.3508 301.456 43.3686 291.079C40.5236 285.153 36.9827 277.777 37.7383 268.24C38.1789 262.679 39.8893 259.355 41.3985 256.423C42.9624 253.384 44.1978 250.983 43.3895 247.127C42.0646 240.806 38.0714 237.126 33.4472 232.864C30.5781 230.22 27.6116 227.486 24.8274 223.776C16.9886 213.33 14.8307 198.214 18.414 178.848C18.4425 178.693 18.5922 178.59 18.7475 178.619C18.9029 178.648 19.0057 178.797 18.9768 178.952C15.424 198.154 17.5464 213.12 25.2856 223.432C28.038 227.101 30.9851 229.817 33.8353 232.443C38.5317 236.771 42.5876 240.509 43.9498 247.01C44.7998 251.064 43.4594 253.669 41.9074 256.685C40.4231 259.569 38.7406 262.839 38.3089 268.285C37.5655 277.668 41.0694 284.967 43.8844 290.831C48.8165 301.104 54.6202 306.241 59.2834 310.368C64.17 314.693 68.0297 318.109 69.2915 325.28C70.9503 334.707 66.7094 342.973 62.6083 350.967C58.284 359.396 52.2104 366.686 44.5563 372.637C44.5044 372.677 44.4425 372.697 44.3812 372.697Z" fill="white"/>
<path opacity="0.7" d="M37.9788 273.032C37.9231 273.032 37.8668 273.015 37.8173 272.981C7.55723 252.301 4.64732 231.01 4.62154 230.797C4.60261 230.641 4.71432 230.498 4.87102 230.479C5.03081 230.458 5.17083 230.572 5.19003 230.728C5.21582 230.938 8.1138 251.988 38.1405 272.509C38.2709 272.598 38.3045 272.776 38.2154 272.907C38.1597 272.988 38.07 273.032 37.9788 273.032Z" fill="white"/>
<path opacity="0.7" d="M48.2797 299.296C48.2092 299.296 48.1387 299.27 48.0833 299.218C47.9682 299.109 47.963 298.928 48.0715 298.813C63.7929 282.14 66.3129 265.515 65.6582 254.504C64.9487 242.564 60.4599 234.461 60.4146 234.381C60.3369 234.243 60.386 234.068 60.5236 233.99C60.6607 233.912 60.8358 233.962 60.9134 234.099C60.9594 234.181 65.5051 242.379 66.2282 254.443C66.8951 265.573 64.3588 282.374 48.4878 299.206C48.4318 299.265 48.3556 299.296 48.2797 299.296Z" fill="white"/>
<path opacity="0.7" d="M66.9677 342.471C66.9528 342.471 66.9378 342.47 66.9227 342.467C45.2345 339.064 32.8755 329.334 26.3267 321.771C19.2213 313.565 17.2256 306.051 17.2064 305.976C17.1668 305.823 17.2589 305.667 17.412 305.627C17.5652 305.588 17.7213 305.68 17.7606 305.833C17.7798 305.907 19.7518 313.314 26.7803 321.42C33.2665 328.902 45.5113 338.528 67.0116 341.901C67.1677 341.926 67.2745 342.073 67.2498 342.229C67.2277 342.37 67.1062 342.471 66.9677 342.471Z" fill="white"/>
<path opacity="0.7" d="M24.0877 221.872C24.0307 221.872 23.9729 221.855 23.9228 221.82C23.7935 221.728 23.763 221.55 23.8541 221.421C33.8946 207.213 33.6001 193.804 31.5851 185.057C29.3986 175.566 24.7719 169.354 24.7252 169.292C24.63 169.166 24.6551 168.986 24.7815 168.891C24.9077 168.796 25.0871 168.821 25.1824 168.948C25.2295 169.01 29.9201 175.302 32.1376 184.905C34.1848 193.772 34.4908 207.362 24.3215 221.751C24.2659 221.83 24.1773 221.872 24.0877 221.872Z" fill="white"/>
</g>
<path d="M44.9083 358.13C39.6073 352.153 41.2283 340.134 44.6342 332.611C48.6106 323.829 53.4243 324.701 55.9854 317.63C60.7538 304.465 46.0227 296.044 49.7786 282.386C52.849 271.221 63.859 272.613 66.6965 260.094C68.744 251.06 63.9953 245.994 68.369 238.718C68.7428 238.096 72.8711 231.446 79.434 231.205C86.0581 230.962 91.2882 237.39 93.5149 242.102C97.6311 250.812 92.0993 254.957 93.1899 267.072C94.6748 283.566 105.807 285.647 104.39 298.019C103.22 308.234 95.3591 309.172 94.2867 320.525C93.2908 331.067 99.7076 334.09 98.358 341.118C95.2535 357.287 55.7205 370.321 44.9083 358.13Z" fill="url(#paint32_linear_1_1357)"/>
<mask id="mask1_1_1357" style="mask-type:luminance" maskUnits="userSpaceOnUse" x="41" y="231" width="64" height="132">
<path d="M44.9083 358.13C39.6073 352.153 41.2283 340.134 44.6342 332.611C48.6106 323.829 53.4243 324.701 55.9854 317.63C60.7538 304.465 46.0227 296.044 49.7786 282.386C52.849 271.221 63.859 272.613 66.6965 260.094C68.744 251.06 63.9953 245.994 68.369 238.718C68.7428 238.096 72.8711 231.446 79.434 231.205C86.0581 230.962 91.2882 237.39 93.5149 242.102C97.6311 250.812 92.0993 254.957 93.1899 267.072C94.6748 283.566 105.807 285.647 104.39 298.019C103.22 308.234 95.3591 309.172 94.2867 320.525C93.2908 331.067 99.7076 334.09 98.358 341.118C95.2535 357.287 55.7205 370.321 44.9083 358.13Z" fill="white"/>
</mask>
<g mask="url(#mask1_1_1357)">
<path opacity="0.7" d="M52.3563 367.87C52.2339 367.87 52.1208 367.791 52.083 367.668C52.0362 367.517 52.1206 367.357 52.2716 367.31C58.9848 365.229 64.9679 361.834 70.0547 357.221C74.8694 352.855 79.8478 348.341 81.1136 341.613C82.0678 336.541 80.3395 333.271 78.151 329.13C75.9989 325.057 73.3204 319.988 72.5828 311.572C72.1614 306.766 71.6371 300.784 74.626 294.423C76.3702 290.71 78.407 288.867 80.2041 287.242C82.0496 285.572 83.5073 284.254 83.9446 281.428C84.6643 276.777 82.882 273.234 80.8182 269.13C79.5323 266.574 78.2027 263.93 77.25 260.661C74.5662 251.455 76.992 240.515 84.4595 228.144C84.5419 228.01 84.718 227.966 84.8527 228.047C84.9881 228.129 85.0317 228.305 84.9499 228.441C77.5685 240.668 75.1627 251.455 77.7996 260.501C78.7377 263.72 80.0555 266.34 81.3297 268.873C83.4377 273.064 85.2583 276.684 84.5103 281.516C84.0421 284.542 82.4416 285.99 80.5882 287.667C78.8312 289.256 76.8399 291.057 75.1445 294.666C72.221 300.888 72.7378 306.784 73.1532 311.522C73.8807 319.823 76.4184 324.625 78.6575 328.862C80.8977 333.102 82.6675 336.451 81.6765 341.719C80.3751 348.635 75.3242 353.216 70.4397 357.645C65.2906 362.315 59.235 365.751 52.4414 367.857C52.4129 367.866 52.3842 367.87 52.3563 367.87Z" fill="white"/>
<path opacity="0.7" d="M73.6975 297.892C73.6073 297.892 73.5185 297.85 73.4627 297.77C58.0372 275.753 61.5467 260.372 61.584 260.219C61.6214 260.065 61.7752 259.973 61.9298 260.008C62.0834 260.046 62.1776 260.201 62.1401 260.354C62.1037 260.505 58.6683 275.656 73.9317 297.442C74.0224 297.571 73.9908 297.75 73.8615 297.84C73.8116 297.875 73.7542 297.892 73.6975 297.892Z" fill="white"/>
<path opacity="0.7" d="M73.9786 318.556C73.8725 318.556 73.7709 318.497 73.7212 318.396C73.6518 318.253 73.7108 318.082 73.8528 318.013C88.907 310.655 94.9161 299.931 97.3065 292.231C99.8992 283.878 98.9168 277.175 98.9063 277.109C98.8823 276.952 98.9895 276.806 99.1458 276.782C99.3056 276.757 99.4485 276.865 99.4724 277.022C99.4827 277.089 100.485 283.9 97.8614 292.374C95.4408 300.191 89.3542 311.074 74.1041 318.527C74.0636 318.547 74.0208 318.556 73.9786 318.556Z" fill="white"/>
<path opacity="0.7" d="M75.6429 352.979C75.5951 352.979 75.5466 352.967 75.5019 352.942C61.4923 344.998 55.522 335.121 52.9805 328.233C50.2219 320.757 50.7953 315.072 50.8015 315.016C50.8186 314.859 50.9613 314.742 51.117 314.762C51.2741 314.78 51.3878 314.921 51.371 315.078C51.3651 315.133 50.8073 320.709 53.5289 328.065C56.0406 334.854 61.9404 344.594 75.7846 352.444C75.9221 352.522 75.9705 352.696 75.8923 352.834C75.8396 352.927 75.7426 352.979 75.6429 352.979Z" fill="white"/>
<path opacity="0.7" d="M77.3819 259.234C77.2901 259.234 77.1999 259.19 77.1448 259.108C77.0561 258.977 77.0901 258.8 77.2212 258.711C97.366 245.064 91.3085 223.5 91.2449 223.284C91.2005 223.132 91.2872 222.973 91.439 222.929C91.5907 222.884 91.7498 222.972 91.7943 223.122C91.8592 223.343 98.0406 245.298 77.5421 259.185C77.4931 259.218 77.4373 259.234 77.3819 259.234Z" fill="white"/>
</g>
<path d="M38.7264 369.021V357.012L157.972 358.825L321.448 363.63V375.639L198.046 387.61L38.7264 369.021Z" fill="url(#paint33_linear_1_1357)"/>
<path opacity="0.19" d="M198.046 357.012L157.972 358.825L321.448 363.63V375.639L198.046 387.61V357.012Z" fill="url(#paint34_linear_1_1357)"/>
<path d="M38.7264 357.012L157.972 346.815L321.448 363.63L198.046 375.601L38.7264 357.012Z" fill="url(#paint35_linear_1_1357)"/>
<path d="M203.201 379.182C202.831 379.182 202.515 378.901 202.478 378.525C202.439 378.125 202.732 377.77 203.131 377.731L317.856 366.579C318.254 366.535 318.611 366.832 318.65 367.232C318.689 367.632 318.397 367.987 317.997 368.026L203.272 379.179C203.248 379.181 203.225 379.182 203.201 379.182Z" fill="white"/>
<path d="M203.127 384.419C202.758 384.419 202.442 384.139 202.405 383.764C202.365 383.364 202.657 383.008 203.057 382.969L317.855 371.587C318.255 371.551 318.61 371.84 318.65 372.239C318.689 372.639 318.398 372.995 317.998 373.035L203.2 384.416C203.176 384.418 203.152 384.419 203.127 384.419Z" fill="white"/>
<path d="M284.188 367.244C265.273 360.801 249.441 359.438 237.072 359.852C217.911 360.493 212.167 365.224 186.605 365.427C153.323 365.692 142.297 357.839 117.066 356.625C105.894 356.087 91.786 356.851 75.0876 361.254L198.046 375.601L284.188 367.244Z" fill="url(#paint36_linear_1_1357)"/>
<path opacity="0.67" d="M207.663 371.501C207.627 371.501 207.59 371.499 207.553 371.495L96.3644 358.987C95.8323 358.927 95.4497 358.447 95.5095 357.915C95.5694 357.383 96.0484 357.001 96.5812 357.06L207.77 369.568C208.302 369.628 208.685 370.108 208.625 370.64C208.569 371.135 208.15 371.501 207.663 371.501Z" fill="white"/>
<path opacity="0.67" d="M164.243 360.043C164.208 360.043 164.173 360.041 164.138 360.037L123.89 355.702C123.358 355.644 122.973 355.166 123.03 354.634C123.088 354.102 123.567 353.718 124.098 353.774L164.346 358.11C164.878 358.167 165.263 358.645 165.206 359.177C165.152 359.674 164.732 360.043 164.243 360.043Z" fill="white"/>
<path d="M267.577 360.076C267.577 360.076 260.789 363.161 260.678 363.654C260.567 364.146 265.043 363.489 266.871 363.559C268.698 363.631 270.201 363.091 270.036 362.316C269.871 361.543 269.231 359.596 269.231 359.596L267.577 360.076Z" fill="url(#paint37_linear_1_1357)"/>
<path d="M267.328 357.572L267.741 360.629C267.741 360.629 268.816 361.011 269.538 360.559L269.846 357.207L267.328 357.572Z" fill="url(#paint38_linear_1_1357)"/>
<path d="M299.295 357.646L300.085 358.913C300.306 359.268 300.372 359.694 300.266 360.098C299.99 361.152 299.438 363.206 299.198 363.742C298.87 364.472 294.477 364.905 294.477 364.905C294.477 364.905 294.086 364.354 294.998 363.688C295.91 363.022 296.496 362.918 296.818 361.935C297.14 360.953 297.354 358.173 297.354 358.173L299.295 357.646Z" fill="url(#paint39_linear_1_1357)"/>
<path d="M296.009 354.425C296.297 354.655 297.708 358.937 297.708 358.937C297.708 358.937 298.165 359.521 299.032 358.659C299.9 357.797 299.425 358.272 299.425 358.272L299.262 354.061L296.009 354.425Z" fill="url(#paint40_linear_1_1357)"/>
<path d="M263.594 296.172C263.236 305.288 263.221 315.193 263.745 325.774C264.336 337.689 265.523 348.702 267.019 358.685C267.575 358.703 268.159 358.706 268.769 358.689C269.181 358.677 269.581 358.657 269.967 358.631C270.743 356.561 271.66 353.838 272.482 350.587C273.346 347.168 273.867 344.101 274.238 341.168C275.545 330.842 274.013 329.942 275.074 322.289C276.014 315.512 277.35 315.247 278.918 305.625C280.62 295.185 279.353 293.618 278.737 293.052C276.114 290.644 269.954 292.284 263.594 296.172Z" fill="url(#paint41_linear_1_1357)"/>
<path opacity="0.3" d="M278.737 293.053C276.236 290.755 270.515 292.146 264.473 295.653C271.424 303.162 272.182 308.034 271.348 311.195C270.407 314.768 267.543 315.797 267.554 319.703C267.568 324.504 271.9 325.775 271.808 330.855C271.747 334.215 269.844 334.18 269.394 338.329C268.862 343.238 271.349 344.929 270.544 348.561C270.197 350.124 269.208 352.166 266.39 354.269C266.593 355.76 266.802 357.237 267.019 358.685C267.575 358.703 268.159 358.706 268.769 358.689C269.181 358.677 269.581 358.657 269.967 358.631C270.743 356.561 271.66 353.839 272.482 350.587C273.346 347.168 273.867 344.101 274.238 341.168C275.545 330.843 274.014 329.942 275.074 322.289C276.014 315.512 277.35 315.247 278.918 305.625C280.62 295.185 279.353 293.618 278.737 293.053Z" fill="url(#paint42_linear_1_1357)"/>
<path d="M267.899 296.019C273.884 304.776 280.34 315.675 286.113 328.72C290.476 338.578 293.64 347.835 295.963 356.084C296.277 356.229 297.019 356.52 297.966 356.394C299.259 356.224 300.033 355.399 300.236 355.168C301.181 349.255 301.077 344.246 300.756 340.632C300.551 338.317 300.187 334.463 298.712 329.705C297.06 324.376 295.924 324.077 293.768 318.438C291.531 312.586 292.073 311.125 289.93 303.801C289.05 300.793 287.576 296.315 285.145 290.96C279.396 292.646 273.648 294.332 267.899 296.019Z" fill="url(#paint43_linear_1_1357)"/>
<path d="M240.267 307.132C241.419 308.922 245.38 308.713 248.086 307.746C254.412 305.484 258.46 297.438 258.816 291.036C258.893 289.662 258.844 288.318 259.123 288.277C259.824 288.174 261.623 296.485 263.036 303.532C264.171 303.948 265.893 304.389 267.861 304.067C271.081 303.539 271.464 301.539 275.066 300.234C277.167 299.473 279.226 299.471 283.344 299.468C287.992 299.464 288.12 300.037 289.016 299.621C290.672 298.852 292.624 295.778 282.768 257.6C282.12 255.09 281.028 251.078 277.977 249.91C275.478 248.954 272.264 250.734 265.94 254.333C262.78 256.131 259.248 258.167 255.105 261.785C252.282 264.251 250.317 265.967 248.699 268.349C242.171 277.953 249.715 285.958 243.793 298.241C241.757 302.465 239.062 305.258 240.267 307.132Z" fill="white"/>
<path opacity="0.3" d="M281.811 294.409C279.961 293.446 280.429 291.425 278.822 290.27C276.425 288.548 273.503 291.687 270.314 291.19C263.354 290.105 262.649 272.879 258.127 272.794C255.998 272.754 253.946 276.535 253.298 279.463C252.164 284.585 256.506 286.871 255.827 293.259C255.705 294.405 255.577 294.221 252.608 302.687C252.213 303.813 251.851 304.855 251.523 305.804C255.851 302.393 258.53 296.186 258.816 291.036C258.893 289.662 258.844 288.318 259.123 288.277C259.824 288.174 261.623 296.485 263.036 303.532C264.171 303.948 265.893 304.389 267.861 304.067C271.081 303.539 271.464 301.538 275.066 300.234C277.167 299.473 279.226 299.471 283.344 299.468C287.992 299.463 288.12 300.037 289.016 299.621C289.694 299.306 290.42 298.601 290.367 295.266C289 294.416 287.827 294.171 286.869 294.179C284.906 294.196 283.471 295.273 281.811 294.409Z" fill="url(#paint44_linear_1_1357)"/>
<path d="M257.819 252.602C257.819 252.602 259.519 254.531 261.346 255.531C262.996 256.435 266.636 254.913 267.478 254.734C268.32 254.555 267.309 256.823 265.721 258.385C264.132 259.948 258.882 263.522 257.465 263.581C256.049 263.641 257.693 262.401 258.563 260.957C259.433 259.513 258.207 256.527 257.11 255.607C256.012 254.687 257.819 252.602 257.819 252.602Z" fill="url(#paint45_linear_1_1357)"/>
<path d="M308.001 259.768L272.118 287.041C271.102 287.814 269.65 287.616 268.878 286.599C268.105 285.582 268.302 284.131 269.319 283.358L305.202 256.086C306.219 255.313 307.67 255.51 308.443 256.527C309.216 257.544 309.018 258.995 308.001 259.768Z" fill="#D8DEE8"/>
<path d="M315.204 248.483L307.364 254.442L303.942 249.94L311.782 243.981C311.919 243.877 312.114 243.904 312.217 244.04L315.264 248.049C315.367 248.185 315.341 248.38 315.204 248.483Z" fill="#D8DEE8"/>
<path d="M169.079 357.516L165.733 360.059C165.357 360.345 164.82 360.272 164.534 359.895C164.248 359.519 164.321 358.982 164.697 358.696L168.043 356.153L169.079 357.516Z" fill="#26264F"/>
<path d="M166.629 358.303C167.154 358.993 168.091 359.219 168.873 358.845L185.011 351.117L178.474 342.515L166.707 355.996C166.137 356.649 166.105 357.613 166.629 358.303Z" fill="#D8DEE8"/>
<path d="M167.09 357.01C167.234 357.199 167.843 356.993 168.548 356.517L182.203 345.523L180.413 343.167L167.955 355.737C167.308 356.289 166.947 356.82 167.09 357.01Z" fill="white"/>
<path d="M309.447 256.289L184.674 351.373C182.299 353.178 175.762 344.577 178.137 342.772L302.909 247.688C304.326 246.611 306.348 246.887 307.425 248.304L310.062 251.774C311.139 253.191 310.863 255.213 309.447 256.289Z" fill="url(#paint46_linear_1_1357)"/>
<path d="M278.464 271.978L180.403 346.759L178.862 344.732L276.923 269.95L278.464 271.978Z" fill="white"/>
<path d="M283.097 276.371L281.954 277.239L275.39 268.604L276.533 267.735L283.097 276.371Z" fill="url(#paint47_linear_1_1357)"/>
<path d="M302.75 247.821L301.607 248.69L308.17 257.326L309.313 256.457L302.75 247.821Z" fill="white"/>
<path opacity="0.3" d="M302.909 247.688L243.172 293.342C240.09 304.517 235.706 308.737 231.82 310.298C229.12 311.382 225.044 311.834 220.674 315.561C216.454 319.159 217.371 321.197 213.656 323.685C208.149 327.373 203.693 324.528 200.278 328.398C198.441 330.48 199.569 331.485 197.627 335.324C196.907 336.748 193.909 342.678 187.535 344.777C183.829 345.997 180.329 345.478 177.697 344.625C178.302 347.704 182.792 352.803 184.674 351.373L309.447 256.289C310.863 255.212 311.139 253.191 310.062 251.774L307.424 248.303C306.348 246.887 304.326 246.611 302.909 247.688Z" fill="url(#paint48_linear_1_1357)"/>
<path d="M242.813 307.068C242.813 307.068 240.371 308.235 238.642 308.479C236.914 308.723 236.538 310.103 237.018 310.611C237.498 311.118 240.248 310.563 241.168 310.045C242.088 309.528 242.813 307.068 242.813 307.068Z" fill="url(#paint49_linear_1_1357)"/>
<path d="M290.371 276.301C290.371 276.301 288.455 276.013 287.519 276.933C286.582 277.853 284.156 279.179 283.07 278.717L286.693 275.964L290.371 274.921V276.301Z" fill="url(#paint50_linear_1_1357)"/>
<path d="M289.629 276.933C291.025 276.886 296.723 276.533 300.973 272.028C305.277 267.465 306.93 259.882 303.732 254.705C301.179 250.572 296.477 249.501 291.661 248.404C285.378 246.973 280.445 248.059 278.473 248.594C275.119 249.502 269.936 250.906 269.38 254.009C268.765 257.438 273.888 262.472 278.875 262.717C283.909 262.966 286.602 258.229 291.154 259.668C291.463 259.765 293.648 260.489 294.675 262.427C296.296 265.487 294.46 270.496 289.674 274.51C289.659 275.318 289.644 276.125 289.629 276.933Z" fill="white"/>
<path d="M253.914 254.111C252.99 253.676 252.367 252.171 252.824 251.031C253.163 250.185 253.977 249.84 254.569 249.588C254.844 249.471 256.784 248.675 258.029 249.67C258.425 249.986 258.733 250.55 258.831 251.083C258.881 251.357 258.883 251.734 258.836 252.486C258.795 253.153 258.807 253.124 258.79 253.321C258.748 253.795 258.619 254.627 258.157 255.782C257.965 255.571 257.71 255.319 257.389 255.071C257.265 254.976 256.776 254.606 256.22 254.382C255.091 253.927 254.637 254.452 253.914 254.111Z" fill="url(#paint51_linear_1_1357)"/>
<path d="M258.862 254.495C258.862 254.495 258.776 256.34 257.037 257.15C255.481 257.876 253.414 254.625 253.983 253.384C254.172 252.97 254.76 252.52 255.361 252.38C255.717 252.298 255.891 252.369 256.469 252.223C257.002 252.088 257.106 251.964 257.312 252.006C257.569 252.058 257.898 252.351 258.143 253.497C258.271 253.05 258.554 252.75 258.861 252.731C258.91 252.729 259.052 252.742 259.168 252.817C259.589 253.087 259.507 253.771 258.862 254.495Z" fill="url(#paint52_linear_1_1357)"/>
<path d="M257.957 252.479C257.957 252.479 258.112 253.992 257.957 254.479C257.802 254.967 257.161 255.636 256.163 255.733C255.166 255.83 254.51 255.733 254.51 255.733C254.51 255.733 255.255 257.47 255.565 257.536C255.875 257.602 257.774 257.512 258.12 257.192C258.466 256.871 258.891 255.472 258.789 254.854C258.688 254.236 258.12 252.837 258.12 252.837L257.957 252.479Z" fill="url(#paint53_linear_1_1357)"/>
<path d="M102.859 346.214C104.562 347.079 106.701 346.285 107.637 344.441C108.573 342.597 107.952 340.401 106.249 339.537C106.161 339.492 106.07 339.455 105.98 339.419C106.297 338.398 106.535 337.37 106.695 336.341C106.793 336.341 106.891 336.34 106.99 336.331C108.933 336.158 110.475 334.372 110.434 332.343C110.394 330.314 108.786 328.81 106.843 328.983C106.741 328.992 106.642 329.008 106.542 329.026C106.339 328.02 106.061 327.038 105.711 326.087C105.8 326.035 105.889 325.981 105.976 325.92C107.638 324.755 108.169 322.457 107.163 320.786C106.156 319.116 103.993 318.705 102.331 319.87C102.245 319.93 102.165 319.994 102.086 320.059C101.429 319.334 100.71 318.661 99.9304 318.047C99.9852 317.957 100.039 317.866 100.087 317.771C101.023 315.927 102.247 313.913 100.53 313.075C96.5605 311.137 94.8568 312.796 93.9207 314.64C93.8722 314.736 93.8304 314.833 93.7902 314.93C92.8349 314.663 91.867 314.479 90.8938 314.377C90.8998 314.274 90.9045 314.171 90.9024 314.068C90.8617 312.039 91.4638 310.94 89.5137 310.903C85.2612 310.82 83.8265 312.666 83.8672 314.695C83.8694 314.801 83.8781 314.904 83.8887 315.007C82.9142 315.285 81.9572 315.64 81.0255 316.07C80.9812 315.979 80.9353 315.889 80.8827 315.802C79.8762 314.132 77.7127 313.721 76.0505 314.886C74.3883 316.05 73.857 318.349 74.8636 320.019C74.9152 320.105 74.9717 320.185 75.029 320.264C74.293 321 73.6035 321.799 72.9666 322.657C72.8842 322.605 72.8007 322.555 72.7125 322.51C71.0097 321.645 68.8704 322.439 67.9343 324.283C66.9981 326.127 67.6196 328.322 69.3224 329.187C69.4106 329.232 69.5007 329.269 69.5911 329.305C69.2748 330.326 69.0362 331.354 68.8762 332.382C68.7786 332.383 68.6806 332.384 68.5813 332.393C66.6383 332.566 65.0964 334.352 65.1371 336.381C65.1777 338.41 66.7858 339.914 68.7286 339.741C68.8301 339.732 68.9297 339.716 69.0289 339.699C69.2319 340.704 69.51 341.686 69.8607 342.637C69.7714 342.689 69.6824 342.743 69.5955 342.804C67.9334 343.969 67.4021 346.267 68.4086 347.938C69.4151 349.608 72.7477 350.384 74.4099 349.22C74.4951 349.16 73.4061 348.73 73.4852 348.665C74.1418 349.39 74.8618 350.063 75.6408 350.677C75.5861 350.767 75.5324 350.858 75.484 350.953C74.5478 352.797 75.1693 354.992 76.8723 355.857C78.5751 356.722 80.7144 355.928 81.6506 354.084C81.6991 353.988 81.7409 353.891 81.7811 353.794C82.7363 354.061 83.7042 354.246 84.6776 354.347C84.6714 354.45 84.6668 354.553 84.6688 354.657C84.7094 356.685 86.3175 358.19 88.2601 358.017C90.2027 357.844 91.7448 356.058 91.7042 354.029C91.7021 353.923 91.6932 353.82 91.6826 353.717C92.6571 353.439 93.6143 353.084 94.5458 352.654C94.5901 352.745 94.6361 352.835 94.6886 352.922C95.6953 354.593 97.8587 355.003 99.5209 353.838C101.183 352.674 101.715 350.376 100.708 348.705C100.656 348.619 100.6 348.539 100.542 348.46C101.279 347.724 101.968 346.925 102.605 346.067C102.687 346.119 102.771 346.169 102.859 346.214ZM81.6314 346.483C75.4488 343.344 73.1922 335.373 76.5912 328.678C79.9901 321.984 87.7575 319.101 93.9402 322.24C100.123 325.38 102.379 333.351 98.9805 340.046C95.5813 346.74 87.814 349.622 81.6314 346.483Z" fill="#D8DEE8"/>
<path d="M106.99 336.331C108.933 336.157 110.475 334.372 110.434 332.343C110.394 330.314 108.786 328.809 106.843 328.983C106.742 328.992 106.642 329.008 106.543 329.025C106.34 328.02 106.062 327.037 105.711 326.087C105.8 326.035 105.889 325.981 105.976 325.92C107.638 324.755 109.695 321.941 108.522 320.383C106.296 317.425 103.993 318.705 102.331 319.87C102.245 319.929 102.165 319.994 102.086 320.059C101.43 319.333 100.71 318.661 99.9307 318.047C99.9855 317.957 100.039 317.866 100.088 317.771C100.597 316.767 100.642 315.661 100.306 314.72C98.7001 317.546 97.1163 320.384 95.5609 323.236C100.493 326.851 102.063 333.973 98.9804 340.046C96.3679 345.191 91.1745 348.081 86.1037 347.719C85.8775 348.305 85.6555 348.895 85.4132 349.476C84.7558 351.053 84.009 352.597 83.2614 354.139C83.7317 354.228 84.204 354.297 84.6776 354.347C84.6714 354.45 84.6668 354.552 84.6688 354.656C84.7094 356.685 85.9413 358.409 89.4624 358.222C91.4101 358.119 91.7448 356.058 91.7042 354.029C91.7021 353.923 91.6933 353.819 91.6828 353.716C92.6573 353.439 93.6143 353.083 94.5458 352.654C94.5901 352.744 94.6361 352.834 94.6888 352.922C95.6954 354.592 99.1874 355.302 100.85 354.138C102.512 352.973 101.715 350.375 100.708 348.705C100.656 348.619 100.6 348.539 100.543 348.46C101.279 347.724 101.968 346.924 102.605 346.067C102.687 346.119 102.771 346.169 102.859 346.214C104.562 347.079 106.701 346.285 107.637 344.441C108.573 342.597 107.952 340.401 106.249 339.537C106.161 339.492 106.071 339.455 105.981 339.419C106.297 338.398 106.535 337.37 106.695 336.342C106.793 336.341 106.891 336.339 106.99 336.331Z" fill="#D8DEE8"/>
<path d="M104.69 346.422C106.393 347.287 108.532 346.493 109.469 344.649C110.405 342.805 109.783 340.61 108.08 339.745C107.992 339.7 107.902 339.663 107.812 339.627C108.128 338.606 108.367 337.578 108.527 336.55C108.624 336.549 108.722 336.548 108.822 336.539C110.764 336.366 112.306 334.58 112.266 332.551C112.225 330.522 110.617 329.018 108.674 329.191C108.573 329.2 108.473 329.216 108.374 329.234C108.171 328.228 107.893 327.246 107.542 326.295C107.632 326.243 107.72 326.189 107.807 326.128C109.469 324.963 110.001 322.665 108.994 320.994C107.988 319.324 105.824 318.913 104.162 320.078C104.077 320.138 103.997 320.202 103.918 320.267C103.261 319.542 102.541 318.869 101.762 318.255C101.817 318.166 101.871 318.074 101.919 317.979C102.855 316.135 102.234 313.939 100.531 313.075C98.8279 312.21 96.6886 313.004 95.7525 314.848C95.704 314.943 95.6622 315.041 95.622 315.138C94.6666 314.871 93.6988 314.686 92.7257 314.585C92.7317 314.482 92.7363 314.379 92.7343 314.275C92.6937 312.246 91.0858 310.742 89.1429 310.915C87.2001 311.088 85.6581 312.874 85.6989 314.903C85.701 315.009 85.7099 315.112 85.7204 315.215C84.7458 315.493 83.7888 315.848 82.8572 316.278C82.8129 316.187 82.7669 316.097 82.7143 316.01C81.7078 314.339 79.5443 313.929 77.8821 315.094C76.2199 316.258 75.6887 318.557 76.6951 320.227C76.7467 320.313 76.8031 320.393 76.8606 320.472C76.1246 321.208 75.4352 322.007 74.7981 322.865C74.7157 322.813 74.6322 322.763 74.544 322.718C72.8412 321.853 70.7019 322.647 69.7658 324.491C68.8296 326.335 69.4511 328.53 71.1539 329.395C71.2421 329.44 71.3322 329.477 71.4225 329.513C71.1061 330.533 70.8676 331.562 70.7077 332.59C70.6101 332.591 70.512 332.592 70.4126 332.601C68.4698 332.774 66.9279 334.559 66.9686 336.588C67.0092 338.618 68.6171 340.122 70.5599 339.949C70.6614 339.94 70.7612 339.924 70.8603 339.906C71.0632 340.912 71.3413 341.894 71.6921 342.845C71.6027 342.897 71.5139 342.951 71.427 343.012C69.7649 344.176 69.2336 346.475 70.2401 348.145C71.2467 349.816 73.4101 350.226 75.0723 349.062C75.1575 349.002 75.2377 348.938 75.3167 348.872C75.9733 349.598 76.6933 350.271 77.4723 350.884C77.4175 350.974 77.3638 351.065 77.3154 351.161C76.3792 353.005 77.0008 355.2 78.7036 356.065C80.4064 356.929 82.5457 356.135 83.4819 354.291C83.5305 354.196 83.5721 354.099 83.6124 354.002C84.5677 354.268 85.5355 354.453 86.5088 354.555C86.5028 354.657 86.498 354.76 86.5001 354.864C86.5409 356.893 88.1487 358.398 90.0915 358.224C92.0342 358.051 93.5762 356.266 93.5355 354.237C93.5334 354.131 93.5246 354.027 93.5141 353.924C94.4886 353.646 95.4458 353.291 96.3773 352.862C96.4216 352.952 96.4676 353.042 96.5201 353.129C97.5268 354.8 99.6902 355.21 101.352 354.046C103.015 352.881 103.546 350.583 102.539 348.912C102.488 348.827 102.431 348.747 102.374 348.668C103.11 347.932 103.799 347.132 104.436 346.275C104.519 346.327 104.602 346.377 104.69 346.422ZM83.4629 346.691C77.2803 343.552 75.0238 335.581 78.4227 328.886C81.8216 322.192 89.589 319.31 95.7717 322.449C101.954 325.588 104.211 333.559 100.812 340.254C97.4128 346.948 89.6456 349.831 83.4629 346.691Z" fill="white"/>
<path d="M185.782 324.236C189.45 326.099 194.058 324.389 196.074 320.417C198.091 316.446 196.752 311.717 193.084 309.854C192.894 309.758 192.7 309.677 192.506 309.599C193.187 307.402 193.701 305.187 194.045 302.971C194.256 302.97 194.467 302.967 194.681 302.948C198.866 302.575 202.187 298.729 202.099 294.359C202.012 289.988 198.548 286.747 194.364 287.12C194.145 287.14 193.93 287.174 193.716 287.212C193.279 285.047 192.68 282.931 191.925 280.883C192.117 280.77 192.309 280.654 192.496 280.523C196.076 278.015 197.221 273.064 195.053 269.466C192.884 265.867 188.224 264.984 184.644 267.492C184.461 267.62 184.288 267.759 184.118 267.9C182.703 266.337 181.153 264.888 179.475 263.566C179.592 263.373 179.708 263.177 179.812 262.971C181.829 258.999 184.464 254.661 180.767 252.856C172.216 248.682 168.547 252.255 166.53 256.227C166.426 256.433 166.336 256.642 166.249 256.851C164.191 256.277 162.107 255.879 160.01 255.66C160.023 255.439 160.033 255.218 160.029 254.994C159.941 250.624 161.238 248.258 157.038 248.177C147.878 247.999 144.787 251.974 144.875 256.345C144.88 256.573 144.899 256.797 144.921 257.018C142.822 257.617 140.761 258.382 138.754 259.307C138.659 259.112 138.56 258.918 138.446 258.73C136.278 255.132 131.618 254.248 128.038 256.756C124.458 259.264 123.313 264.215 125.481 267.813C125.592 267.998 125.714 268.17 125.838 268.34C124.252 269.926 122.767 271.648 121.395 273.495C121.218 273.383 121.038 273.275 120.848 273.178C117.18 271.316 112.572 273.026 110.556 276.997C108.539 280.969 109.878 285.698 113.546 287.56C113.736 287.657 113.93 287.738 114.124 287.815C113.443 290.013 112.929 292.228 112.585 294.443C112.374 294.444 112.163 294.447 111.949 294.466C107.764 294.84 104.443 298.685 104.531 303.055C104.619 307.426 108.082 310.667 112.267 310.294C112.485 310.274 112.7 310.24 112.914 310.202C113.351 312.368 113.95 314.483 114.705 316.531C114.513 316.644 114.321 316.76 114.134 316.891C110.554 319.399 109.41 324.35 111.578 327.949C113.746 331.547 120.924 333.219 124.504 330.711C124.688 330.582 122.342 329.655 122.513 329.514C123.927 331.078 125.478 332.526 127.156 333.848C127.038 334.042 126.922 334.238 126.818 334.444C124.801 338.415 126.14 343.144 129.808 345.007C133.476 346.869 138.084 345.159 140.1 341.187C140.205 340.982 140.295 340.773 140.381 340.563C142.439 341.138 144.523 341.535 146.62 341.754C146.607 341.975 146.597 342.197 146.601 342.42C146.689 346.791 150.152 350.032 154.337 349.659C158.521 349.286 161.843 345.44 161.755 341.07C161.75 340.841 161.731 340.618 161.709 340.396C163.808 339.798 165.869 339.033 167.876 338.108C167.971 338.303 168.07 338.496 168.183 338.684C170.352 342.283 175.012 343.167 178.592 340.658C182.172 338.15 183.317 333.2 181.149 329.601C181.037 329.417 180.916 329.244 180.792 329.074C182.378 327.489 183.862 325.767 185.234 323.92C185.412 324.031 185.592 324.14 185.782 324.236ZM140.059 324.817C126.742 318.055 121.881 300.885 129.202 286.465C136.523 272.045 153.254 265.837 166.571 272.598C179.888 279.36 184.749 296.53 177.428 310.95C170.107 325.37 153.376 331.578 140.059 324.817Z" fill="#D8DEE8"/>
<path d="M194.681 302.948C198.866 302.575 202.187 298.73 202.099 294.359C202.012 289.988 198.548 286.748 194.364 287.121C194.145 287.14 193.93 287.175 193.716 287.213C193.28 285.047 192.68 282.931 191.925 280.883C192.117 280.771 192.309 280.654 192.496 280.523C196.076 278.015 200.505 271.954 197.98 268.597C193.186 262.226 188.224 264.984 184.644 267.492C184.461 267.62 184.288 267.759 184.118 267.9C182.703 266.337 181.153 264.888 179.475 263.566C179.592 263.373 179.708 263.177 179.813 262.971C180.91 260.809 181.007 258.426 180.282 256.4C176.824 262.487 173.412 268.599 170.062 274.744C180.686 282.529 184.068 297.87 177.428 310.95C171.8 322.034 160.614 328.257 149.692 327.477C149.204 328.741 148.726 330.011 148.204 331.263C146.788 334.659 145.18 337.985 143.569 341.307C144.582 341.498 145.6 341.648 146.62 341.755C146.607 341.976 146.596 342.197 146.601 342.421C146.688 346.791 149.342 350.505 156.926 350.102C161.121 349.88 161.842 345.441 161.755 341.07C161.75 340.842 161.731 340.618 161.708 340.396C163.807 339.798 165.869 339.033 167.875 338.108C167.971 338.303 168.07 338.497 168.183 338.685C170.352 342.283 177.873 343.812 181.454 341.304C185.034 338.795 183.317 333.2 181.148 329.601C181.037 329.417 180.916 329.244 180.792 329.074C182.378 327.489 183.862 325.767 185.234 323.92C185.412 324.032 185.592 324.14 185.782 324.236C189.45 326.099 194.058 324.389 196.074 320.417C198.09 316.446 196.752 311.717 193.084 309.854C192.894 309.758 192.7 309.677 192.506 309.599C193.187 307.402 193.701 305.187 194.045 302.971C194.256 302.971 194.467 302.967 194.681 302.948Z" fill="#D8DEE8"/>
<path d="M189.727 324.685C193.395 326.547 198.003 324.838 200.019 320.866C202.036 316.894 200.697 312.165 197.029 310.303C196.839 310.207 196.645 310.125 196.451 310.048C197.132 307.85 197.646 305.636 197.99 303.42C198.201 303.419 198.412 303.416 198.626 303.397C202.811 303.024 206.132 299.178 206.044 294.808C205.957 290.437 202.493 287.196 198.309 287.569C198.09 287.589 197.875 287.623 197.661 287.661C197.224 285.496 196.625 283.38 195.87 281.332C196.062 281.219 196.254 281.103 196.441 280.972C200.021 278.464 201.166 273.513 198.998 269.915C196.83 266.316 192.169 265.432 188.589 267.941C188.406 268.069 188.233 268.208 188.063 268.349C186.649 266.786 185.098 265.337 183.42 264.015C183.538 263.821 183.653 263.626 183.758 263.42C185.774 259.448 184.435 254.719 180.768 252.857C177.1 250.994 172.492 252.704 170.475 256.676C170.371 256.882 170.281 257.091 170.194 257.3C168.137 256.726 166.052 256.328 163.956 256.109C163.969 255.888 163.979 255.667 163.974 255.443C163.886 251.073 160.423 247.832 156.239 248.205C152.054 248.578 148.733 252.423 148.82 256.794C148.825 257.022 148.844 257.245 148.866 257.467C146.767 258.066 144.706 258.831 142.699 259.756C142.604 259.561 142.505 259.367 142.392 259.179C140.224 255.581 135.564 254.697 131.983 257.205C128.403 259.714 127.259 264.664 129.427 268.262C129.538 268.447 129.66 268.619 129.783 268.789C128.198 270.375 126.713 272.097 125.341 273.944C125.163 273.832 124.983 273.724 124.793 273.627C121.125 271.765 116.517 273.475 114.501 277.446C112.485 281.418 113.823 286.147 117.491 288.009C117.681 288.106 117.875 288.187 118.07 288.265C117.388 290.462 116.874 292.677 116.53 294.893C116.32 294.893 116.109 294.897 115.895 294.916C111.71 295.289 108.388 299.134 108.476 303.505C108.564 307.875 112.027 311.116 116.212 310.743C116.431 310.723 116.645 310.689 116.859 310.651C117.296 312.817 117.895 314.933 118.65 316.981C118.458 317.093 118.266 317.209 118.079 317.341C114.499 319.849 113.355 324.799 115.523 328.398C117.691 331.996 122.351 332.88 125.931 330.372C126.114 330.243 126.287 330.105 126.458 329.964C127.872 331.527 129.423 332.976 131.101 334.298C130.983 334.491 130.867 334.687 130.763 334.893C128.746 338.864 130.085 343.594 133.753 345.456C137.421 347.318 142.029 345.608 144.045 341.637C144.15 341.431 144.24 341.222 144.326 341.013C146.384 341.587 148.469 341.984 150.565 342.204C150.552 342.424 150.542 342.646 150.546 342.87C150.634 347.24 154.097 350.481 158.282 350.108C162.467 349.735 165.788 345.889 165.7 341.519C165.696 341.29 165.677 341.067 165.654 340.845C167.753 340.247 169.815 339.482 171.821 338.557C171.916 338.751 172.016 338.945 172.129 339.133C174.297 342.732 178.957 343.616 182.537 341.107C186.117 338.599 187.262 333.649 185.094 330.05C184.983 329.866 184.861 329.693 184.737 329.523C186.323 327.938 187.808 326.216 189.18 324.369C189.357 324.48 189.537 324.589 189.727 324.685ZM144.004 325.265C130.687 318.504 125.826 301.333 133.147 286.914C140.469 272.494 157.199 266.285 170.516 273.047C183.833 279.808 188.694 296.979 181.373 311.399C174.051 325.818 157.321 332.027 144.004 325.265Z" fill="url(#paint54_linear_1_1357)"/>
<defs>
<linearGradient id="paint0_linear_1_1357" x1="308.369" y1="53.9328" x2="4.52797" y2="419.439" gradientUnits="userSpaceOnUse">
<stop stop-color="#444B8C"/>
<stop offset="0.9964" stop-color="#26264F"/>
</linearGradient>
<linearGradient id="paint1_linear_1_1357" x1="229.078" y1="87.5408" x2="193.557" y2="198.814" gradientUnits="userSpaceOnUse">
<stop stop-color="#444B8C"/>
<stop offset="0.9964" stop-color="#26264F"/>
</linearGradient>
<linearGradient id="paint2_linear_1_1357" x1="236.478" y1="90.6948" x2="201.145" y2="201.379" gradientUnits="userSpaceOnUse">
<stop stop-color="#444B8C"/>
<stop offset="0.9964" stop-color="#26264F"/>
</linearGradient>
<linearGradient id="paint3_linear_1_1357" x1="249.866" y1="96.0444" x2="214.67" y2="206.299" gradientUnits="userSpaceOnUse">
<stop stop-color="#444B8C"/>
<stop offset="0.9964" stop-color="#26264F"/>
</linearGradient>
<linearGradient id="paint4_linear_1_1357" x1="257.66" y1="99.2864" x2="222.639" y2="208.994" gradientUnits="userSpaceOnUse">
<stop stop-color="#444B8C"/>
<stop offset="0.9964" stop-color="#26264F"/>
</linearGradient>
<linearGradient id="paint5_linear_1_1357" x1="271.278" y1="104.715" x2="236.385" y2="214.021" gradientUnits="userSpaceOnUse">
<stop stop-color="#444B8C"/>
<stop offset="0.9964" stop-color="#26264F"/>
</linearGradient>
<linearGradient id="paint6_linear_1_1357" x1="314.369" y1="212.846" x2="258.038" y2="213.036" gradientUnits="userSpaceOnUse">
<stop offset="0.494" stop-color="#EBEFF2"/>
<stop offset="1" stop-color="white"/>
</linearGradient>
<linearGradient id="paint7_linear_1_1357" x1="288.219" y1="218.33" x2="291.546" y2="199.677" gradientUnits="userSpaceOnUse">
<stop stop-color="#444B8C"/>
<stop offset="0.9964" stop-color="#26264F"/>
</linearGradient>
<linearGradient id="paint8_linear_1_1357" x1="292.511" y1="214.266" x2="289.083" y2="185.338" gradientUnits="userSpaceOnUse">
<stop stop-color="#FFC444"/>
<stop offset="0.9964" stop-color="#F36F56"/>
</linearGradient>
<linearGradient id="paint9_linear_1_1357" x1="281.86" y1="212.208" x2="278.431" y2="183.278" gradientUnits="userSpaceOnUse">
<stop stop-color="#FFC444"/>
<stop offset="0.9964" stop-color="#F36F56"/>
</linearGradient>
<linearGradient id="paint10_linear_1_1357" x1="279.978" y1="213.54" x2="283.305" y2="194.886" gradientUnits="userSpaceOnUse">
<stop stop-color="#444B8C"/>
<stop offset="0.9964" stop-color="#26264F"/>
</linearGradient>
<linearGradient id="paint11_linear_1_1357" x1="287.614" y1="151.547" x2="297.356" y2="211.008" gradientUnits="userSpaceOnUse">
<stop offset="0.0036" stop-color="#E38DDD"/>
<stop offset="1" stop-color="#9571F6"/>
</linearGradient>
<linearGradient id="paint12_linear_1_1357" x1="287.614" y1="151.547" x2="297.356" y2="211.008" gradientUnits="userSpaceOnUse">
<stop stop-color="#AA80F9"/>
<stop offset="0.9964" stop-color="#6165D7"/>
</linearGradient>
<linearGradient id="paint13_linear_1_1357" x1="250.128" y1="178.456" x2="298.572" y2="170.469" gradientUnits="userSpaceOnUse">
<stop offset="0.0036" stop-color="#E38DDD"/>
<stop offset="1" stop-color="#9571F6"/>
</linearGradient>
<linearGradient id="paint14_linear_1_1357" x1="323.729" y1="182.674" x2="280.444" y2="112.969" gradientUnits="userSpaceOnUse">
<stop stop-color="#FF9085"/>
<stop offset="1" stop-color="#FB6FBB"/>
</linearGradient>
<linearGradient id="paint15_linear_1_1357" x1="262.041" y1="106.155" x2="304.176" y2="151.805" gradientUnits="userSpaceOnUse">
<stop stop-color="#FF9085"/>
<stop offset="1" stop-color="#FB6FBB"/>
</linearGradient>
<linearGradient id="paint16_linear_1_1357" x1="274.322" y1="91.4463" x2="281.747" y2="100.786" gradientUnits="userSpaceOnUse">
<stop stop-color="#FFC444"/>
<stop offset="0.9964" stop-color="#F36F56"/>
</linearGradient>
<linearGradient id="paint17_linear_1_1357" x1="252.967" y1="109.801" x2="267.934" y2="128.627" gradientUnits="userSpaceOnUse">
<stop stop-color="#444B8C"/>
<stop offset="0.9964" stop-color="#26264F"/>
</linearGradient>
<linearGradient id="paint18_linear_1_1357" x1="254.263" y1="110.188" x2="267.261" y2="129.451" gradientUnits="userSpaceOnUse">
<stop stop-color="#FFC444"/>
<stop offset="0.9964" stop-color="#F36F56"/>
</linearGradient>
<linearGradient id="paint19_linear_1_1357" x1="254.095" y1="108.346" x2="250.372" y2="102.501" gradientUnits="userSpaceOnUse">
<stop stop-color="#AA80F9"/>
<stop offset="0.9964" stop-color="#6165D7"/>
</linearGradient>
<linearGradient id="paint20_linear_1_1357" x1="251.262" y1="118.144" x2="254.853" y2="122.661" gradientUnits="userSpaceOnUse">
<stop stop-color="#FFC444"/>
<stop offset="0.9964" stop-color="#F36F56"/>
</linearGradient>
<linearGradient id="paint21_linear_1_1357" x1="309.088" y1="191.764" x2="265.804" y2="122.061" gradientUnits="userSpaceOnUse">
<stop stop-color="#FF9085"/>
<stop offset="1" stop-color="#FB6FBB"/>
</linearGradient>
<linearGradient id="paint22_linear_1_1357" x1="313.927" y1="129.561" x2="282.36" y2="78.7254" gradientUnits="userSpaceOnUse">
<stop stop-color="#444B8C"/>
<stop offset="0.9964" stop-color="#26264F"/>
</linearGradient>
<linearGradient id="paint23_linear_1_1357" x1="52.8023" y1="130.3" x2="65.0382" y2="137.062" gradientUnits="userSpaceOnUse">
<stop stop-color="white"/>
<stop offset="1" stop-color="#D8DEE8"/>
</linearGradient>
<linearGradient id="paint24_linear_1_1357" x1="54.8458" y1="126.602" x2="67.0818" y2="133.364" gradientUnits="userSpaceOnUse">
<stop stop-color="white"/>
<stop offset="1" stop-color="#D8DEE8"/>
</linearGradient>
<linearGradient id="paint25_linear_1_1357" x1="58.7404" y1="119.555" x2="70.9764" y2="126.317" gradientUnits="userSpaceOnUse">
<stop stop-color="white"/>
<stop offset="1" stop-color="#D8DEE8"/>
</linearGradient>
<linearGradient id="paint26_linear_1_1357" x1="59.7428" y1="40.6115" x2="122.851" y2="140.804" gradientUnits="userSpaceOnUse">
<stop stop-color="#FCB148"/>
<stop offset="0.0521" stop-color="#FDBA46"/>
<stop offset="0.1424" stop-color="#FFC244"/>
<stop offset="0.3183" stop-color="#FFC444"/>
<stop offset="0.4849" stop-color="#FDB946"/>
<stop offset="0.7754" stop-color="#F99C4D"/>
<stop offset="0.8658" stop-color="#F8924F"/>
<stop offset="1" stop-color="#F8924F"/>
</linearGradient>
<linearGradient id="paint27_linear_1_1357" x1="48.2137" y1="117.758" x2="61.0818" y2="80.1661" gradientUnits="userSpaceOnUse">
<stop offset="0.494" stop-color="#EBEFF2"/>
<stop offset="1" stop-color="white"/>
</linearGradient>
<linearGradient id="paint28_linear_1_1357" x1="60.516" y1="121.969" x2="73.3841" y2="84.3772" gradientUnits="userSpaceOnUse">
<stop offset="0.494" stop-color="#EBEFF2"/>
<stop offset="1" stop-color="white"/>
</linearGradient>
<linearGradient id="paint29_linear_1_1357" x1="43.7328" y1="116.224" x2="56.6009" y2="78.6322" gradientUnits="userSpaceOnUse">
<stop offset="0.494" stop-color="#EBEFF2"/>
<stop offset="1" stop-color="white"/>
</linearGradient>
<linearGradient id="paint30_linear_1_1357" x1="61.9574" y1="18.0273" x2="49.3784" y2="121.695" gradientUnits="userSpaceOnUse">
<stop stop-color="#FCB148"/>
<stop offset="0.0521" stop-color="#FDBA46"/>
<stop offset="0.1424" stop-color="#FFC244"/>
<stop offset="0.3183" stop-color="#FFC444"/>
<stop offset="0.4849" stop-color="#FDB946"/>
<stop offset="0.7754" stop-color="#F99C4D"/>
<stop offset="0.8658" stop-color="#F8924F"/>
<stop offset="1" stop-color="#F8924F"/>
</linearGradient>
<linearGradient id="paint31_linear_1_1357" x1="53.2406" y1="318.913" x2="30.4848" y2="244.439" gradientUnits="userSpaceOnUse">
<stop offset="0.0036" stop-color="#F36F56"/>
<stop offset="1" stop-color="#FFC444"/>
</linearGradient>
<linearGradient id="paint32_linear_1_1357" x1="55.3842" y1="269.742" x2="82.1293" y2="329.716" gradientUnits="userSpaceOnUse">
<stop stop-color="#FF9085"/>
<stop offset="1" stop-color="#FB6FBB"/>
</linearGradient>
<linearGradient id="paint33_linear_1_1357" x1="38.7264" y1="372.311" x2="321.448" y2="372.311" gradientUnits="userSpaceOnUse">
<stop stop-color="#311944"/>
<stop offset="1" stop-color="#893976"/>
</linearGradient>
<linearGradient id="paint34_linear_1_1357" x1="157.972" y1="372.311" x2="321.448" y2="372.311" gradientUnits="userSpaceOnUse">
<stop stop-color="white"/>
<stop offset="0.9964" stop-color="#EBEFF2"/>
</linearGradient>
<linearGradient id="paint35_linear_1_1357" x1="38.7264" y1="361.208" x2="321.448" y2="361.208" gradientUnits="userSpaceOnUse">
<stop stop-color="#FF9085"/>
<stop offset="1" stop-color="#FB6FBB"/>
</linearGradient>
<linearGradient id="paint36_linear_1_1357" x1="38.7264" y1="366.038" x2="321.448" y2="366.038" gradientUnits="userSpaceOnUse">
<stop stop-color="#FF9085"/>
<stop offset="1" stop-color="#FB6FBB"/>
</linearGradient>
<linearGradient id="paint37_linear_1_1357" x1="264.288" y1="349.373" x2="265.974" y2="370.834" gradientUnits="userSpaceOnUse">
<stop stop-color="#311944"/>
<stop offset="1" stop-color="#A03976"/>
</linearGradient>
<linearGradient id="paint38_linear_1_1357" x1="268.641" y1="361.321" x2="268.335" y2="339.093" gradientUnits="userSpaceOnUse">
<stop stop-color="#FFC444"/>
<stop offset="0.9964" stop-color="#F36F56"/>
</linearGradient>
<linearGradient id="paint39_linear_1_1357" x1="296.155" y1="346.869" x2="297.841" y2="368.33" gradientUnits="userSpaceOnUse">
<stop stop-color="#311944"/>
<stop offset="1" stop-color="#A03976"/>
</linearGradient>
<linearGradient id="paint40_linear_1_1357" x1="297.846" y1="360.918" x2="297.539" y2="338.69" gradientUnits="userSpaceOnUse">
<stop stop-color="#FFC444"/>
<stop offset="0.9964" stop-color="#F36F56"/>
</linearGradient>
<linearGradient id="paint41_linear_1_1357" x1="263.337" y1="325.312" x2="279.771" y2="325.312" gradientUnits="userSpaceOnUse">
<stop stop-color="#444B8C"/>
<stop offset="0.9964" stop-color="#3E4177"/>
</linearGradient>
<linearGradient id="paint42_linear_1_1357" x1="263.337" y1="325.313" x2="279.771" y2="325.313" gradientUnits="userSpaceOnUse">
<stop stop-color="#444B8C"/>
<stop offset="0.9964" stop-color="#3E4177"/>
</linearGradient>
<linearGradient id="paint43_linear_1_1357" x1="267.899" y1="323.692" x2="300.984" y2="323.692" gradientUnits="userSpaceOnUse">
<stop stop-color="#444B8C"/>
<stop offset="0.9964" stop-color="#3E4177"/>
</linearGradient>
<linearGradient id="paint44_linear_1_1357" x1="268.158" y1="298.56" x2="280.115" y2="265.218" gradientUnits="userSpaceOnUse">
<stop offset="0.0036" stop-color="#F36F56"/>
<stop offset="1" stop-color="#FFC444"/>
</linearGradient>
<linearGradient id="paint45_linear_1_1357" x1="262.269" y1="264.918" x2="262.269" y2="251.639" gradientUnits="userSpaceOnUse">
<stop stop-color="#FFC444"/>
<stop offset="0.9964" stop-color="#F36F56"/>
</linearGradient>
<linearGradient id="paint46_linear_1_1357" x1="224.452" y1="283.822" x2="255.576" y2="307.904" gradientUnits="userSpaceOnUse">
<stop stop-color="#FFC444"/>
<stop offset="0.9964" stop-color="#F36F56"/>
</linearGradient>
<linearGradient id="paint47_linear_1_1357" x1="278.672" y1="272.922" x2="279.815" y2="272.053" gradientUnits="userSpaceOnUse">
<stop stop-color="#AA80F9"/>
<stop offset="0.9964" stop-color="#6165D7"/>
</linearGradient>
<linearGradient id="paint48_linear_1_1357" x1="224.355" y1="283.746" x2="255.554" y2="307.888" gradientUnits="userSpaceOnUse">
<stop offset="0.0036" stop-color="#F36F56"/>
<stop offset="1" stop-color="#FFC444"/>
</linearGradient>
<linearGradient id="paint49_linear_1_1357" x1="236.826" y1="308.94" x2="242.813" y2="308.94" gradientUnits="userSpaceOnUse">
<stop stop-color="#FFC444"/>
<stop offset="0.9964" stop-color="#F36F56"/>
</linearGradient>
<linearGradient id="paint50_linear_1_1357" x1="283.07" y1="276.867" x2="290.371" y2="276.867" gradientUnits="userSpaceOnUse">
<stop stop-color="#FFC444"/>
<stop offset="0.9964" stop-color="#F36F56"/>
</linearGradient>
<linearGradient id="paint51_linear_1_1357" x1="1553.35" y1="92.3652" x2="1567.82" y2="90.5776" gradientUnits="userSpaceOnUse">
<stop stop-color="#893976"/>
<stop offset="1" stop-color="#311944"/>
</linearGradient>
<linearGradient id="paint52_linear_1_1357" x1="252.882" y1="261.091" x2="259.091" y2="249.019" gradientUnits="userSpaceOnUse">
<stop stop-color="#FFC444"/>
<stop offset="0.9964" stop-color="#F36F56"/>
</linearGradient>
<linearGradient id="paint53_linear_1_1357" x1="257.89" y1="255.885" x2="262.091" y2="259.116" gradientUnits="userSpaceOnUse">
<stop stop-color="#893976"/>
<stop offset="1" stop-color="#311944"/>
</linearGradient>
<linearGradient id="paint54_linear_1_1357" x1="138.394" y1="273.407" x2="198.635" y2="355.628" gradientUnits="userSpaceOnUse">
<stop offset="0.0036" stop-color="#E38DDD"/>
<stop offset="1" stop-color="#9571F6"/>
</linearGradient>
</defs>
</svg>
