<svg xmlns="http://www.w3.org/2000/svg" version="1.1" xmlns:xlink="http://www.w3.org/1999/xlink" xmlns:svgjs="http://svgjs.dev/svgjs" width="128" height="128" viewBox="0 0 128 128"><g transform="matrix(0.8046875,0,0,0.8046875,12.760752631578946,12.760752631578946)"><svg viewBox="0 0 95 95" data-background-color="#d7dde8" preserveAspectRatio="xMidYMid meet" height="128" width="128" xmlns="http://www.w3.org/2000/svg" xmlns:xlink="http://www.w3.org/1999/xlink"><g id="tight-bounds" transform="matrix(1,0,0,1,-0.24049999999999727,-0.24049999999999727)"><svg viewBox="0 0 95.481 95.481" height="95.481" width="95.481"><g><svg viewBox="0 0 95.481 95.481" height="95.481" width="95.481"><g><svg viewBox="0 0 95.481 95.481" height="95.481" width="95.481"><g id="textblocktransform"><svg viewBox="0 0 95.481 95.481" height="95.481" width="95.481" id="textblock"><g><svg viewBox="0 0 95.481 95.481" height="95.481" width="95.481"><g><svg viewBox="0 0 95.481 95.481" height="95.481" width="95.481"><g><svg xmlns="http://www.w3.org/2000/svg" xmlns:xlink="http://www.w3.org/1999/xlink" version="1.1" x="0" y="0" viewBox="0 0 26 26" style="enable-background:new 0 0 26 26;" xml:space="preserve" height="95.481" width="95.481" class="icon-icon-0" data-fill-palette-color="accent" id="icon-0"><g fill="#323467" data-fill-palette-color="accent"><path d="M13 0C5.82 0 0 5.82 0 13s5.82 13 13 13c7.18 0 13-5.82 13-13S20.18 0 13 0zM11.248 20.07c-1.171 1.172-3.155 1.087-5.303-1.06C3.798 16.862 4.178 13 4.178 13s3.862-0.38 6.01 1.768C12.335 16.915 12.42 18.899 11.248 20.07zM10 9.5C10 6.463 13 4 13 4s3 2.463 3 5.5S14.656 14 13 14C11.344 14 10 12.537 10 9.5zM20.055 19.01c-2.148 2.147-4.132 2.232-5.303 1.06-1.172-1.171-1.087-3.155 1.06-5.303C17.96 12.62 21.822 13 21.822 13S22.202 16.862 20.055 19.01z" fill="#323467" data-fill-palette-color="accent"></path></g></svg></g></svg></g></svg></g></svg></g></svg></g><g></g></svg></g><defs></defs></svg><rect width="95.481" height="95.481" fill="none" stroke="none" visibility="hidden"></rect></g></svg></g></svg>