<svg width="750" height="500" viewBox="0 0 750 500" fill="none" xmlns="http://www.w3.org/2000/svg">
<g clip-path="url(#clip0_2_1506)">
<path d="M750 0H0V500H750V0Z" fill="white"/>
<path d="M750 0V340.77C718.82 313.15 708.14 263.32 726.03 158.33C741.64 66.78 702.11 21.61 667.28 0H750Z" fill="#F0DAD0"/>
<path d="M729.532 118.312C729.532 118.312 719.503 270.465 597.542 279.883C475.58 289.3 745.58 342.555 745.58 342.555V123.3L729.532 118.312Z" fill="#F0DAD0"/>
<path d="M393.16 164.3C157.26 124.16 181.84 305.41 319.17 500H0V437.67C46.74 418.89 96.04 383.07 116.58 314.72C160.58 168.3 157.33 70.3 303.96 112.3C386.47 135.94 361.11 65.83 323.15 0H584.55C594.59 60.99 596.03 198.82 393.16 164.3Z" fill="#F0DAD0"/>
<path d="M447.274 355.587C440.46 355.587 433.551 354.304 426.692 351.695C400.279 341.652 380.62 314.077 380.964 287.554C381.144 273.719 387.117 248.519 425.109 235.191C474.364 217.909 496.397 231.469 506.202 245.888C522.512 269.87 513.399 310.229 495.02 331.451C481.286 347.308 464.584 355.587 447.274 355.587ZM465.907 235.094C455.087 235.094 442.308 237.636 427.758 242.74C403.005 251.424 389.228 267.376 388.964 287.658C388.661 310.992 406.103 335.307 429.535 344.218C441.853 348.901 465.954 352.792 488.973 326.213C505.414 307.23 513.447 270.768 499.587 250.388C492.666 240.212 481.258 235.094 465.907 235.094Z" fill="white"/>
<path d="M541.689 267.99C440.86 233.162 388.335 273.232 411.837 386.651L411.835 386.654C411.835 386.654 411.84 386.669 411.842 386.673C412.787 391.231 413.854 395.907 415.046 400.702C418.587 423.66 417.378 466.833 358.674 468.299C278.579 470.299 269.579 499.999 269.579 499.999H450.446H536.86H750V238.875C709.698 265.043 633.322 299.645 541.689 267.99Z" fill="#D7DDE8"/>
<path d="M198.356 331.652C157.079 308.458 180.274 202.042 230.474 171.655C280.674 141.268 349.311 217.256 354.028 242.415C358.745 267.574 332.407 278.974 306.068 275.83C262.826 271.505 247.888 353.666 198.356 331.652Z" fill="#EE7EBF"/>
<path d="M0 352.368V230.3C0 230.3 57.555 273.747 0 352.368Z" fill="#EE7EBF"/>
<path d="M472.59 70.11C429.41 40.12 344.78 40.12 406.28 133.11C467.77 226.11 422.77 247.1 361.77 187.11C300.77 127.11 181.29 65.61 115.29 218.61C70.24 323.04 24.49 299.53 0 274.08V0H494.23C529.19 66.14 512.01 97.49 472.59 70.11Z" fill="#36396F"/>
<path d="M750 138.89V500H416.35C427.73 472.85 456.91 435.79 527.61 472.4C631.09 525.97 644.01 352.5 605.47 220.46C578 126.35 652.59 117.94 750 138.89Z" fill="#36396F"/>
<path d="M464.042 119.958C474.856 104.577 454.79 78.002 434.437 89.721C414.083 101.44 452.323 136.626 464.042 119.958Z" fill="#36396F"/>
<path d="M561.201 442.9C591.16 420.708 575.734 350.389 517.93 384.1C460.127 417.81 541.846 457.237 561.201 442.9Z" fill="white"/>
<path d="M592.529 362.123C606.15 347.636 589.267 332.987 574.601 338.987C559.933 344.986 575.79 379.926 592.529 362.123Z" fill="white"/>
<path d="M527.609 342.499C541.88 332.571 524.942 322.499 516.609 326.499C508.276 330.499 512.276 353.165 527.609 342.499Z" fill="white"/>
<path d="M750 288.44V500H708.69C685.17 442.67 627.8 277.98 750 288.44Z" fill="#323467"/>
<path d="M360.54 57.31C352.29 74 333.49 83.22 304.66 84.71C297.44 85.08 290.14 85.43 282.8 85.78C232.62 88.18 180.75 90.67 137.43 101.53C89.19 113.63 59.01 134.68 45.18 165.9C30.66 198.65 38.93 232.69 70.48 269.95C96.62 300.82 133.36 327.41 165.74 349.91C196.04 370.97 233.75 397.17 234.32 433.78C234.64 454.23 223.48 476.11 200.42 500H189.18C214.42 475.59 226.63 453.77 226.32 433.91C225.85 403.79 197.8 381.93 161.17 356.48C128.38 333.69 91.14 306.73 64.38 275.12C31.12 235.84 22.2 198 37.86 162.66C52.76 129.04 84.69 106.51 135.48 93.77C179.57 82.71 231.85 80.21 282.41 77.79C289.75 77.44 297.04 77.09 304.25 76.72C329.97 75.39 346.5 67.67 353.37 53.76C361.04 38.24 356.06 17.29 348.99 0H357.64C364.64 18.3 369.02 40.16 360.54 57.31Z" fill="white"/>
<path d="M281.782 0C274.719 69.65 138.603 -17.91 95.112 52.3C62.809 104.45 21.543 103.96 0 99.11V0H281.782Z" fill="#323467"/>
<path d="M243.58 500H0V411.857C154.36 322.204 243.58 500 243.58 500Z" fill="#323467"/>
<path d="M99.25 404.056C121.755 383.918 114.466 333.507 68.126 359.79C21.785 386.073 74.185 426.484 99.25 404.056Z" fill="#36396F"/>
<path d="M727.115 0H607.58C607.58 0 630.866 75.851 727.115 0Z" fill="#323467"/>
<path d="M664.95 95.17C655.5 121.67 656.77 153.07 668.71 188.5C682.23 228.56 709.55 274.17 750 324.19V336.83C666.63 236.09 635.48 153.87 657.44 92.42C667.56 64.09 689.54 40.39 721 23.89C731.88 18.18 742.09 14.26 750 11.68V20.14C742.75 22.61 733.84 26.17 724.49 31.09C703.89 41.94 676.83 61.86 664.95 95.17Z" fill="white"/>
</g>
<defs>
<clipPath id="clip0_2_1506">
<rect width="750" height="500" fill="white"/>
</clipPath>
</defs>
</svg>
