<svg width="149" height="149" viewBox="0 0 149 149" fill="none" xmlns="http://www.w3.org/2000/svg">
<g clip-path="url(#clip0_1_124)">
<path d="M44.0151 148.137C19.4911 148.137 -0.388367 128.257 -0.388367 103.733V44.5288C-0.388367 20.0047 19.4911 0.125305 44.0151 0.125305H103.22C127.744 0.125305 147.623 20.0047 147.623 44.5288V103.733C147.623 128.257 127.744 148.137 103.22 148.137H44.0151Z" fill="#323467"/>
<g clip-path="url(#clip1_1_124)">
<g clip-path="url(#clip2_1_124)">
<path d="M74.0056 29.6022C49.4813 29.6022 29.6022 49.4813 29.6022 74.0056C29.6022 98.5299 49.4813 118.409 74.0056 118.409C98.5299 118.409 118.409 98.5299 118.409 74.0056C118.409 49.4813 98.5299 29.6022 74.0056 29.6022ZM68.0214 98.1542C64.0217 102.157 57.245 101.867 49.9082 94.5336C42.5748 87.1968 43.8728 74.0056 43.8728 74.0056C43.8728 74.0056 57.064 72.7076 64.4008 80.0444C71.7342 87.3778 72.0245 94.1544 68.0214 98.1542ZM63.7587 62.0508C63.7587 51.6775 74.0056 43.2648 74.0056 43.2648C74.0056 43.2648 84.2525 51.6775 84.2525 62.0508C84.2525 72.4241 79.6619 77.4212 74.0056 77.4212C68.3493 77.4212 63.7587 72.4241 63.7587 62.0508ZM98.1029 94.5336C90.7661 101.867 83.9895 102.157 79.9898 98.1542C75.9867 94.1544 76.277 87.3778 83.6104 80.041C90.9472 72.7076 104.138 74.0056 104.138 74.0056C104.138 74.0056 105.436 87.1968 98.1029 94.5336Z" fill="#EE7EBF"/>
</g>
</g>
</g>
<defs>
<clipPath id="clip0_1_124">
<rect width="148.011" height="148.011" fill="white"/>
</clipPath>
<clipPath id="clip1_1_124">
<rect width="88.8067" height="88.8067" fill="white" transform="translate(29.6022 29.6022)"/>
</clipPath>
<clipPath id="clip2_1_124">
<rect width="88.8067" height="88.8067" fill="white" transform="translate(29.6022 29.6022)"/>
</clipPath>
</defs>
</svg>
